STARTFONT 2.1
FONT -HP-Mincho-Bold-R-Normal--10-72-100-100-C-100-JISX0208.1990-0
SIZE 7 100 100
FONTBOUNDINGBOX 10 10 0 -2

STARTPROPERTIES 23
FONTNAME_REGISTRY ""
FOUNDRY "HP"
FAMILY_NAME "Mincho"
WEIGHT_NAME "Bold"
SLANT "R"
SETWIDTH_NAME "Normal"
ADD_STYLE_NAME ""
PIXEL_SIZE 10
POINT_SIZE 72
RESOLUTION_X 100
RESOLUTION_Y 100
SPACING "C"
AVERAGE_WIDTH 100
CHARSET_REGISTRY "JISX0208.1990"
CHARSET_ENCODING "0"
COPYRIGHT "Copyright (c) 1994 Hewlett-Packard Company. Copyright 1994 by Bridge Inc."
_HP_ASXVERSION "@(#) ASX 3.00 $Revision: 13.9 $ minB10k"
WEIGHT 10
X_HEIGHT 8
QUAD_WIDTH 10
DEFAULT_CHAR 8751
FONT_DESCENT 2
FONT_ASCENT 8
ENDPROPERTIES

CHARS 6963

STARTCHAR jisx0208_2121
ENCODING 8481
SWIDTH 960 0
DWIDTH 10 0
BBX 10 10 0 -2
BITMAP
0000
0000
0000
0000
0000
0000
0000
0000
0000
0000
ENDCHAR

STARTCHAR jisx0208_2122
ENCODING 8482
SWIDTH 960 0
DWIDTH 10 0
BBX 10 10 0 -2
BITMAP
0000
0000
0000
0000
0000
0000
0000
6000
3000
0000
ENDCHAR

STARTCHAR jisx0208_2123
ENCODING 8483
SWIDTH 960 0
DWIDTH 10 0
BBX 10 10 0 -2
BITMAP
0000
0000
0000
0000
0000
0000
3000
5800
3000
0000
ENDCHAR

STARTCHAR jisx0208_2124
ENCODING 8484
SWIDTH 960 0
DWIDTH 10 0
BBX 10 10 0 -2
BITMAP
0000
0000
0000
0000
0000
0000
3800
1800
3000
0000
ENDCHAR

STARTCHAR jisx0208_2125
ENCODING 8485
SWIDTH 960 0
DWIDTH 10 0
BBX 10 10 0 -2
BITMAP
0000
0000
0000
0000
0000
0000
3000
3000
0000
0000
ENDCHAR

STARTCHAR jisx0208_2126
ENCODING 8486
SWIDTH 960 0
DWIDTH 10 0
BBX 10 10 0 -2
BITMAP
0000
0000
0000
0000
0E00
0E00
0000
0000
0000
0000
ENDCHAR

STARTCHAR jisx0208_2127
ENCODING 8487
SWIDTH 960 0
DWIDTH 10 0
BBX 10 10 0 -2
BITMAP
0000
0000
0000
0E00
0000
0000
0E00
0000
0000
0000
ENDCHAR

STARTCHAR jisx0208_2128
ENCODING 8488
SWIDTH 960 0
DWIDTH 10 0
BBX 10 10 0 -2
BITMAP
0000
0000
0000
0E00
0000
0000
0E00
0600
0C00
0000
ENDCHAR

STARTCHAR jisx0208_2129
ENCODING 8489
SWIDTH 960 0
DWIDTH 10 0
BBX 10 10 0 -2
BITMAP
0000
0E00
1B00
0600
0C00
0000
0000
0E00
0000
0000
ENDCHAR

STARTCHAR jisx0208_212A
ENCODING 8490
SWIDTH 960 0
DWIDTH 10 0
BBX 10 10 0 -2
BITMAP
0000
0C00
0C00
0C00
0C00
0000
0000
0E00
0000
0000
ENDCHAR

STARTCHAR jisx0208_212B
ENCODING 8491
SWIDTH 960 0
DWIDTH 10 0
BBX 10 10 0 -2
BITMAP
0000
5800
5800
0000
0000
0000
0000
0000
0000
0000
ENDCHAR

STARTCHAR jisx0208_212C
ENCODING 8492
SWIDTH 960 0
DWIDTH 10 0
BBX 10 10 0 -2
BITMAP
0000
0000
3000
5800
3000
0000
0000
0000
0000
0000
ENDCHAR

STARTCHAR jisx0208_212D
ENCODING 8493
SWIDTH 960 0
DWIDTH 10 0
BBX 10 10 0 -2
BITMAP
0000
0600
0C00
0000
0000
0000
0000
0000
0000
0000
ENDCHAR

STARTCHAR jisx0208_212E
ENCODING 8494
SWIDTH 960 0
DWIDTH 10 0
BBX 10 10 0 -2
BITMAP
0000
0C00
0600
0000
0000
0000
0000
0000
0000
0000
ENDCHAR

STARTCHAR jisx0208_212F
ENCODING 8495
SWIDTH 960 0
DWIDTH 10 0
BBX 10 10 0 -2
BITMAP
0000
1B00
1B00
0000
0000
0000
0000
0000
0000
0000
ENDCHAR

STARTCHAR jisx0208_2130
ENCODING 8496
SWIDTH 960 0
DWIDTH 10 0
BBX 10 10 0 -2
BITMAP
0000
0C00
1600
0000
0000
0000
0000
0000
0000
0000
ENDCHAR

STARTCHAR jisx0208_2131
ENCODING 8497
SWIDTH 960 0
DWIDTH 10 0
BBX 10 10 0 -2
BITMAP
0000
7FC0
0000
0000
0000
0000
0000
0000
0000
0000
ENDCHAR

STARTCHAR jisx0208_2132
ENCODING 8498
SWIDTH 960 0
DWIDTH 10 0
BBX 10 10 0 -2
BITMAP
0000
0000
0000
0000
0000
0000
0000
0000
7FC0
0000
ENDCHAR

STARTCHAR jisx0208_2133
ENCODING 8499
SWIDTH 960 0
DWIDTH 10 0
BBX 10 10 0 -2
BITMAP
0000
0000
0000
1800
0C00
0600
0300
0300
0000
0000
ENDCHAR

STARTCHAR jisx0208_2134
ENCODING 8500
SWIDTH 960 0
DWIDTH 10 0
BBX 10 10 0 -2
BITMAP
0000
0000
0380
1800
0C00
0600
0300
0300
0000
0000
ENDCHAR

STARTCHAR jisx0208_2135
ENCODING 8501
SWIDTH 960 0
DWIDTH 10 0
BBX 10 10 0 -2
BITMAP
0000
0000
0000
1800
0C00
0600
0F00
0300
0000
0000
ENDCHAR

STARTCHAR jisx0208_2136
ENCODING 8502
SWIDTH 960 0
DWIDTH 10 0
BBX 10 10 0 -2
BITMAP
0000
0000
0380
1800
0C00
0600
0F00
0300
0000
0000
ENDCHAR

STARTCHAR jisx0208_2137
ENCODING 8503
SWIDTH 960 0
DWIDTH 10 0
BBX 10 10 0 -2
BITMAP
0000
0000
0000
0B00
0B00
1600
1600
0000
0000
0000
ENDCHAR

STARTCHAR jisx0208_2138
ENCODING 8504
SWIDTH 960 0
DWIDTH 10 0
BBX 10 10 0 -2
BITMAP
0000
0C00
1600
3300
61C0
3F80
0C00
0D80
7FC0
0000
ENDCHAR

STARTCHAR jisx0208_2139
ENCODING 8505
SWIDTH 960 0
DWIDTH 10 0
BBX 10 10 0 -2
BITMAP
0000
1C00
1980
1F80
3180
6300
1600
0C00
0600
0000
ENDCHAR

STARTCHAR jisx0208_213A
ENCODING 8506
SWIDTH 960 0
DWIDTH 10 0
BBX 10 10 0 -2
BITMAP
0000
0380
0180
3B00
6E00
6B00
5980
7000
6000
0000
ENDCHAR

STARTCHAR jisx0208_213B
ENCODING 8507
SWIDTH 960 0
DWIDTH 10 0
BBX 10 10 0 -2
BITMAP
0000
0000
1E00
3300
6180
6180
6180
3300
1E00
0000
ENDCHAR

STARTCHAR jisx0208_213C
ENCODING 8508
SWIDTH 960 0
DWIDTH 10 0
BBX 10 10 0 -2
BITMAP
0000
0000
0000
0000
3000
1F80
0000
0000
0000
0000
ENDCHAR

STARTCHAR jisx0208_213D
ENCODING 8509
SWIDTH 960 0
DWIDTH 10 0
BBX 10 10 0 -2
BITMAP
0000
0000
0000
0000
7FC0
0000
0000
0000
0000
0000
ENDCHAR

STARTCHAR jisx0208_213E
ENCODING 8510
SWIDTH 960 0
DWIDTH 10 0
BBX 10 10 0 -2
BITMAP
0000
0000
0000
0000
0E00
0000
0000
0000
0000
0000
ENDCHAR

STARTCHAR jisx0208_213F
ENCODING 8511
SWIDTH 960 0
DWIDTH 10 0
BBX 10 10 0 -2
BITMAP
0000
00C0
0180
0300
0600
0C00
1800
3000
6000
0000
ENDCHAR

STARTCHAR jisx0208_2140
ENCODING 8512
SWIDTH 960 0
DWIDTH 10 0
BBX 10 10 0 -2
BITMAP
0000
6000
3000
1800
0C00
0600
0300
0180
00C0
0000
ENDCHAR

STARTCHAR jisx0208_2141
ENCODING 8513
SWIDTH 960 0
DWIDTH 10 0
BBX 10 10 0 -2
BITMAP
0000
0000
0000
0000
3CC0
6780
0000
0000
0000
0000
ENDCHAR

STARTCHAR jisx0208_2142
ENCODING 8514
SWIDTH 960 0
DWIDTH 10 0
BBX 10 10 0 -2
BITMAP
0000
1B00
1B00
1B00
1B00
1B00
1B00
1B00
1B00
0000
ENDCHAR

STARTCHAR jisx0208_2143
ENCODING 8515
SWIDTH 960 0
DWIDTH 10 0
BBX 10 10 0 -2
BITMAP
0000
0C00
0C00
0C00
0C00
0C00
0C00
0C00
0C00
0000
ENDCHAR

STARTCHAR jisx0208_2144
ENCODING 8516
SWIDTH 960 0
DWIDTH 10 0
BBX 10 10 0 -2
BITMAP
0000
0000
0000
0000
6D80
6D80
0000
0000
0000
0000
ENDCHAR

STARTCHAR jisx0208_2145
ENCODING 8517
SWIDTH 960 0
DWIDTH 10 0
BBX 10 10 0 -2
BITMAP
0000
0000
0000
0000
3300
3300
0000
0000
0000
0000
ENDCHAR

STARTCHAR jisx0208_2146
ENCODING 8518
SWIDTH 960 0
DWIDTH 10 0
BBX 10 10 0 -2
BITMAP
0000
0180
0300
0380
0000
0000
0000
0000
0000
0000
ENDCHAR

STARTCHAR jisx0208_2147
ENCODING 8519
SWIDTH 960 0
DWIDTH 10 0
BBX 10 10 0 -2
BITMAP
0000
3800
1800
3000
0000
0000
0000
0000
0000
0000
ENDCHAR

STARTCHAR jisx0208_2148
ENCODING 8520
SWIDTH 960 0
DWIDTH 10 0
BBX 10 10 0 -2
BITMAP
0000
06C0
0D80
0DC0
0000
0000
0000
0000
0000
0000
ENDCHAR

STARTCHAR jisx0208_2149
ENCODING 8521
SWIDTH 960 0
DWIDTH 10 0
BBX 10 10 0 -2
BITMAP
0000
6E00
3600
6C00
0000
0000
0000
0000
0000
0000
ENDCHAR

STARTCHAR jisx0208_214A
ENCODING 8522
SWIDTH 960 0
DWIDTH 10 0
BBX 10 10 0 -2
BITMAP
0000
00C0
0180
0300
0300
0300
0300
0180
00C0
0000
ENDCHAR

STARTCHAR jisx0208_214B
ENCODING 8523
SWIDTH 960 0
DWIDTH 10 0
BBX 10 10 0 -2
BITMAP
0000
6000
3000
1800
1800
1800
1800
3000
6000
0000
ENDCHAR

STARTCHAR jisx0208_214C
ENCODING 8524
SWIDTH 960 0
DWIDTH 10 0
BBX 10 10 0 -2
BITMAP
0000
00C0
0380
0300
0300
0300
0300
0380
00C0
0000
ENDCHAR

STARTCHAR jisx0208_214D
ENCODING 8525
SWIDTH 960 0
DWIDTH 10 0
BBX 10 10 0 -2
BITMAP
0000
6000
3800
1800
1800
1800
1800
3800
6000
0000
ENDCHAR

STARTCHAR jisx0208_214E
ENCODING 8526
SWIDTH 960 0
DWIDTH 10 0
BBX 10 10 0 -2
BITMAP
0000
03C0
0300
0300
0300
0300
0300
0300
03C0
0000
ENDCHAR

STARTCHAR jisx0208_214F
ENCODING 8527
SWIDTH 960 0
DWIDTH 10 0
BBX 10 10 0 -2
BITMAP
0000
7800
1800
1800
1800
1800
1800
1800
7800
0000
ENDCHAR

STARTCHAR jisx0208_2150
ENCODING 8528
SWIDTH 960 0
DWIDTH 10 0
BBX 10 10 0 -2
BITMAP
0000
01C0
0180
0180
0300
0180
0180
0180
01C0
0000
ENDCHAR

STARTCHAR jisx0208_2151
ENCODING 8529
SWIDTH 960 0
DWIDTH 10 0
BBX 10 10 0 -2
BITMAP
0000
7000
3000
3000
1800
3000
3000
3000
7000
0000
ENDCHAR

STARTCHAR jisx0208_2152
ENCODING 8530
SWIDTH 960 0
DWIDTH 10 0
BBX 10 10 0 -2
BITMAP
0000
00C0
0180
0180
0300
0300
0180
0180
00C0
0000
ENDCHAR

STARTCHAR jisx0208_2153
ENCODING 8531
SWIDTH 960 0
DWIDTH 10 0
BBX 10 10 0 -2
BITMAP
0000
6000
3000
3000
1800
1800
3000
3000
6000
0000
ENDCHAR

STARTCHAR jisx0208_2154
ENCODING 8532
SWIDTH 960 0
DWIDTH 10 0
BBX 10 10 0 -2
BITMAP
0000
02C0
0580
0580
0B00
0B00
0580
0580
02C0
0000
ENDCHAR

STARTCHAR jisx0208_2155
ENCODING 8533
SWIDTH 960 0
DWIDTH 10 0
BBX 10 10 0 -2
BITMAP
0000
5800
2C00
2C00
1600
1600
2C00
2C00
5800
0000
ENDCHAR

STARTCHAR jisx0208_2156
ENCODING 8534
SWIDTH 960 0
DWIDTH 10 0
BBX 10 10 0 -2
BITMAP
0000
03C0
0300
0300
0300
0300
0300
0300
0300
0000
ENDCHAR

STARTCHAR jisx0208_2157
ENCODING 8535
SWIDTH 960 0
DWIDTH 10 0
BBX 10 10 0 -2
BITMAP
0000
1800
1800
1800
1800
1800
1800
1800
7800
0000
ENDCHAR

STARTCHAR jisx0208_2158
ENCODING 8536
SWIDTH 960 0
DWIDTH 10 0
BBX 10 10 0 -2
BITMAP
0000
07C0
06C0
05C0
0580
0580
0580
0580
0780
0000
ENDCHAR

STARTCHAR jisx0208_2159
ENCODING 8537
SWIDTH 960 0
DWIDTH 10 0
BBX 10 10 0 -2
BITMAP
0000
3C00
2C00
2C00
2C00
2C00
6C00
6C00
7C00
0000
ENDCHAR

STARTCHAR jisx0208_215A
ENCODING 8538
SWIDTH 960 0
DWIDTH 10 0
BBX 10 10 0 -2
BITMAP
0000
03C0
0380
0300
0300
0300
0300
0380
03C0
0000
ENDCHAR

STARTCHAR jisx0208_215B
ENCODING 8539
SWIDTH 960 0
DWIDTH 10 0
BBX 10 10 0 -2
BITMAP
0000
7800
3800
1800
1800
1800
1800
3800
7800
0000
ENDCHAR

STARTCHAR jisx0208_215C
ENCODING 8540
SWIDTH 960 0
DWIDTH 10 0
BBX 10 10 0 -2
BITMAP
0000
0000
0C00
0C00
3F00
0C00
0C00
0000
0000
0000
ENDCHAR

STARTCHAR jisx0208_215D
ENCODING 8541
SWIDTH 960 0
DWIDTH 10 0
BBX 10 10 0 -2
BITMAP
0000
0000
0000
0000
3F00
0000
0000
0000
0000
0000
ENDCHAR

STARTCHAR jisx0208_215E
ENCODING 8542
SWIDTH 960 0
DWIDTH 10 0
BBX 10 10 0 -2
BITMAP
0000
0000
0C00
3F00
0C00
0000
3F00
0000
0000
0000
ENDCHAR

STARTCHAR jisx0208_215F
ENCODING 8543
SWIDTH 960 0
DWIDTH 10 0
BBX 10 10 0 -2
BITMAP
0000
0000
3300
1600
0C00
1600
3300
0000
0000
0000
ENDCHAR

STARTCHAR jisx0208_2160
ENCODING 8544
SWIDTH 960 0
DWIDTH 10 0
BBX 10 10 0 -2
BITMAP
0000
0000
0E00
0000
3F80
0000
0E00
0000
0000
0000
ENDCHAR

STARTCHAR jisx0208_2161
ENCODING 8545
SWIDTH 960 0
DWIDTH 10 0
BBX 10 10 0 -2
BITMAP
0000
0000
0000
3F00
0000
3F00
0000
0000
0000
0000
ENDCHAR

STARTCHAR jisx0208_2162
ENCODING 8546
SWIDTH 960 0
DWIDTH 10 0
BBX 10 10 0 -2
BITMAP
0000
0000
0600
3F00
0C00
3F00
1800
0000
0000
0000
ENDCHAR

STARTCHAR jisx0208_2163
ENCODING 8547
SWIDTH 960 0
DWIDTH 10 0
BBX 10 10 0 -2
BITMAP
0000
0000
0380
0E00
3800
0E00
0380
0000
0000
0000
ENDCHAR

STARTCHAR jisx0208_2164
ENCODING 8548
SWIDTH 960 0
DWIDTH 10 0
BBX 10 10 0 -2
BITMAP
0000
0000
3800
0E00
0380
0E00
3800
0000
0000
0000
ENDCHAR

STARTCHAR jisx0208_2165
ENCODING 8549
SWIDTH 960 0
DWIDTH 10 0
BBX 10 10 0 -2
BITMAP
0000
0F80
3800
0F80
0000
3F80
0000
3F80
0000
0000
ENDCHAR

STARTCHAR jisx0208_2166
ENCODING 8550
SWIDTH 960 0
DWIDTH 10 0
BBX 10 10 0 -2
BITMAP
0000
3E00
0380
3E00
0000
3F80
0000
3F80
0000
0000
ENDCHAR

STARTCHAR jisx0208_2167
ENCODING 8551
SWIDTH 960 0
DWIDTH 10 0
BBX 10 10 0 -2
BITMAP
0000
0000
0000
3B80
6EC0
6EC0
3B80
0000
0000
0000
ENDCHAR

STARTCHAR jisx0208_2168
ENCODING 8552
SWIDTH 960 0
DWIDTH 10 0
BBX 10 10 0 -2
BITMAP
0000
0000
0C00
0C00
0000
0000
3300
3300
0000
0000
ENDCHAR

STARTCHAR jisx0208_2169
ENCODING 8553
SWIDTH 960 0
DWIDTH 10 0
BBX 10 10 0 -2
BITMAP
0000
07C0
01C0
02C0
3EC0
6600
6600
6600
3C00
0000
ENDCHAR

STARTCHAR jisx0208_216A
ENCODING 8554
SWIDTH 960 0
DWIDTH 10 0
BBX 10 10 0 -2
BITMAP
0000
1E00
3300
3300
3300
1E00
0C00
3F00
0C00
0000
ENDCHAR

STARTCHAR jisx0208_216B
ENCODING 8555
SWIDTH 960 0
DWIDTH 10 0
BBX 10 10 0 -2
BITMAP
0000
3000
5800
3000
0000
0000
0000
0000
0000
0000
ENDCHAR

STARTCHAR jisx0208_216C
ENCODING 8556
SWIDTH 960 0
DWIDTH 10 0
BBX 10 10 0 -2
BITMAP
0000
3000
6000
0000
0000
0000
0000
0000
0000
0000
ENDCHAR

STARTCHAR jisx0208_216D
ENCODING 8557
SWIDTH 960 0
DWIDTH 10 0
BBX 10 10 0 -2
BITMAP
0000
2C00
5800
0000
0000
0000
0000
0000
0000
0000
ENDCHAR

STARTCHAR jisx0208_216E
ENCODING 8558
SWIDTH 960 0
DWIDTH 10 0
BBX 10 10 0 -2
BITMAP
0000
3000
57C0
2CC0
0C00
0C00
0CC0
0780
0000
0000
ENDCHAR

STARTCHAR jisx0208_216F
ENCODING 8559
SWIDTH 960 0
DWIDTH 10 0
BBX 10 10 0 -2
BITMAP
0000
0000
3700
3300
1600
3F00
3F00
0C00
0000
0000
ENDCHAR

STARTCHAR jisx0208_2170
ENCODING 8560
SWIDTH 960 0
DWIDTH 10 0
BBX 10 10 0 -2
BITMAP
0000
0C00
1F00
2B00
1C00
0E00
2B00
3E00
0C00
0000
ENDCHAR

STARTCHAR jisx0208_2171
ENCODING 8561
SWIDTH 960 0
DWIDTH 10 0
BBX 10 10 0 -2
BITMAP
0000
0000
0600
1E00
3700
2C00
2B00
1E00
1800
0000
ENDCHAR

STARTCHAR jisx0208_2172
ENCODING 8562
SWIDTH 960 0
DWIDTH 10 0
BBX 10 10 0 -2
BITMAP
0000
0000
0F00
0C00
3F00
0C00
3D80
3700
0000
0000
ENDCHAR

STARTCHAR jisx0208_2173
ENCODING 8563
SWIDTH 960 0
DWIDTH 10 0
BBX 10 10 0 -2
BITMAP
0000
0000
3180
5B00
3600
0D80
1AC0
3180
0000
0000
ENDCHAR

STARTCHAR jisx0208_2174
ENCODING 8564
SWIDTH 960 0
DWIDTH 10 0
BBX 10 10 0 -2
BITMAP
0000
0000
0B00
3F80
1600
1600
3F80
1600
0000
0000
ENDCHAR

STARTCHAR jisx0208_2175
ENCODING 8565
SWIDTH 960 0
DWIDTH 10 0
BBX 10 10 0 -2
BITMAP
0000
0000
0C00
1600
0C00
1580
3300
1D80
0000
0000
ENDCHAR

STARTCHAR jisx0208_2176
ENCODING 8566
SWIDTH 960 0
DWIDTH 10 0
BBX 10 10 0 -2
BITMAP
0000
0000
0C00
2B00
1E00
1E00
2B00
0C00
0000
0000
ENDCHAR

STARTCHAR jisx0208_2177
ENCODING 8567
SWIDTH 960 0
DWIDTH 10 0
BBX 10 10 0 -2
BITMAP
0000
1F00
3180
6EC0
5AC0
5AC0
6D80
3000
1F00
0000
ENDCHAR

STARTCHAR jisx0208_2178
ENCODING 8568
SWIDTH 960 0
DWIDTH 10 0
BBX 10 10 0 -2
BITMAP
0000
0F00
1800
0E00
1B00
1B00
0E00
0300
1E00
0000
ENDCHAR

STARTCHAR jisx0208_2179
ENCODING 8569
SWIDTH 960 0
DWIDTH 10 0
BBX 10 10 0 -2
BITMAP
0000
0E00
0E00
0E00
7BC0
3180
1B00
3F80
3180
0000
ENDCHAR

STARTCHAR jisx0208_217A
ENCODING 8570
SWIDTH 960 0
DWIDTH 10 0
BBX 10 10 0 -2
BITMAP
0000
0E00
0E00
0E00
7FC0
3F80
1F00
3F80
3180
0000
ENDCHAR

STARTCHAR jisx0208_217B
ENCODING 8571
SWIDTH 960 0
DWIDTH 10 0
BBX 10 10 0 -2
BITMAP
0000
1E00
3300
6180
6180
6180
3300
1E00
0000
0000
ENDCHAR

STARTCHAR jisx0208_217C
ENCODING 8572
SWIDTH 960 0
DWIDTH 10 0
BBX 10 10 0 -2
BITMAP
0000
1E00
3F00
7F80
7F80
7F80
3F00
1E00
0000
0000
ENDCHAR

STARTCHAR jisx0208_217D
ENCODING 8573
SWIDTH 960 0
DWIDTH 10 0
BBX 10 10 0 -2
BITMAP
0000
1F00
3180
6EC0
5AC0
5AC0
6EC0
3180
1F00
0000
ENDCHAR

STARTCHAR jisx0208_217E
ENCODING 8574
SWIDTH 960 0
DWIDTH 10 0
BBX 10 10 0 -2
BITMAP
0000
0E00
1B00
3180
60C0
60C0
3180
1B00
0E00
0000
ENDCHAR

STARTCHAR jisx0208_2221
ENCODING 8737
SWIDTH 960 0
DWIDTH 10 0
BBX 10 10 0 -2
BITMAP
0000
0E00
1F00
3F80
7FC0
7FC0
3F80
1F00
0E00
0000
ENDCHAR

STARTCHAR jisx0208_2222
ENCODING 8738
SWIDTH 960 0
DWIDTH 10 0
BBX 10 10 0 -2
BITMAP
0000
0000
3F80
3180
3180
3180
3180
3F80
0000
0000
ENDCHAR

STARTCHAR jisx0208_2223
ENCODING 8739
SWIDTH 960 0
DWIDTH 10 0
BBX 10 10 0 -2
BITMAP
0000
0000
3F80
3F80
3F80
3F80
3F80
3F80
0000
0000
ENDCHAR

STARTCHAR jisx0208_2224
ENCODING 8740
SWIDTH 960 0
DWIDTH 10 0
BBX 10 10 0 -2
BITMAP
0000
0000
0E00
0E00
1B00
3180
3180
7FC0
0000
0000
ENDCHAR

STARTCHAR jisx0208_2225
ENCODING 8741
SWIDTH 960 0
DWIDTH 10 0
BBX 10 10 0 -2
BITMAP
0000
0000
0E00
0E00
1F00
3F80
3F80
7FC0
0000
0000
ENDCHAR

STARTCHAR jisx0208_2226
ENCODING 8742
SWIDTH 960 0
DWIDTH 10 0
BBX 10 10 0 -2
BITMAP
0000
0000
7FC0
3180
3180
1B00
0E00
0E00
0000
0000
ENDCHAR

STARTCHAR jisx0208_2227
ENCODING 8743
SWIDTH 960 0
DWIDTH 10 0
BBX 10 10 0 -2
BITMAP
0000
0000
7FC0
3F80
3F80
1F00
0E00
0E00
0000
0000
ENDCHAR

STARTCHAR jisx0208_2228
ENCODING 8744
SWIDTH 960 0
DWIDTH 10 0
BBX 10 10 0 -2
BITMAP
0000
6D80
3300
1600
6D80
1600
3300
6D80
0000
0000
ENDCHAR

STARTCHAR jisx0208_2229
ENCODING 8745
SWIDTH 960 0
DWIDTH 10 0
BBX 10 10 0 -2
BITMAP
0000
0000
7F80
0000
7F80
0C00
0C00
0C00
0000
0000
ENDCHAR

STARTCHAR jisx0208_222A
ENCODING 8746
SWIDTH 960 0
DWIDTH 10 0
BBX 10 10 0 -2
BITMAP
0000
0000
0300
0180
7FC0
0180
0300
0000
0000
0000
ENDCHAR

STARTCHAR jisx0208_222B
ENCODING 8747
SWIDTH 960 0
DWIDTH 10 0
BBX 10 10 0 -2
BITMAP
0000
0000
1800
3000
7FC0
3000
1800
0000
0000
0000
ENDCHAR

STARTCHAR jisx0208_222C
ENCODING 8748
SWIDTH 960 0
DWIDTH 10 0
BBX 10 10 0 -2
BITMAP
0000
0C00
1E00
2B00
0C00
0C00
0C00
0C00
0C00
0000
ENDCHAR

STARTCHAR jisx0208_222D
ENCODING 8749
SWIDTH 960 0
DWIDTH 10 0
BBX 10 10 0 -2
BITMAP
0000
0C00
0C00
0C00
0C00
0C00
2B00
1E00
0C00
0000
ENDCHAR

STARTCHAR jisx0208_222E
ENCODING 8750
SWIDTH 960 0
DWIDTH 10 0
BBX 10 10 0 -2
BITMAP
0000
0000
3F80
3F80
0000
3F80
3F80
0000
0000
0000
ENDCHAR

STARTCHAR jisx0208_222F
ENCODING 8751
SWIDTH 960 0
DWIDTH 10 0
BBX 10 10 0 -2
BITMAP
0000
60C0
0000
0000
0000
0000
0000
0000
60C0
0000
ENDCHAR

STARTCHAR jisx0208_223A
ENCODING 8762
SWIDTH 960 0
DWIDTH 10 0
BBX 10 10 0 -2
BITMAP
0000
0000
1F80
3000
3F80
3000
1F80
0000
0000
0000
ENDCHAR

STARTCHAR jisx0208_223B
ENCODING 8763
SWIDTH 960 0
DWIDTH 10 0
BBX 10 10 0 -2
BITMAP
0000
0000
3F00
0180
3F80
0180
3F00
0000
0000
0000
ENDCHAR

STARTCHAR jisx0208_223C
ENCODING 8764
SWIDTH 960 0
DWIDTH 10 0
BBX 10 10 0 -2
BITMAP
0000
0000
1F80
3000
3000
1F80
0000
3F80
0000
0000
ENDCHAR

STARTCHAR jisx0208_223D
ENCODING 8765
SWIDTH 960 0
DWIDTH 10 0
BBX 10 10 0 -2
BITMAP
0000
0000
3F00
0180
0180
3F00
0000
3F80
0000
0000
ENDCHAR

STARTCHAR jisx0208_223E
ENCODING 8766
SWIDTH 960 0
DWIDTH 10 0
BBX 10 10 0 -2
BITMAP
0000
0000
1F80
3000
3000
3000
1F80
0000
0000
0000
ENDCHAR

STARTCHAR jisx0208_223F
ENCODING 8767
SWIDTH 960 0
DWIDTH 10 0
BBX 10 10 0 -2
BITMAP
0000
0000
3F00
0180
0180
0180
3F00
0000
0000
0000
ENDCHAR

STARTCHAR jisx0208_2240
ENCODING 8768
SWIDTH 960 0
DWIDTH 10 0
BBX 10 10 0 -2
BITMAP
0000
0000
3300
3300
3300
3300
3300
1E00
0000
0000
ENDCHAR

STARTCHAR jisx0208_2241
ENCODING 8769
SWIDTH 960 0
DWIDTH 10 0
BBX 10 10 0 -2
BITMAP
0000
0000
1E00
3300
3300
3300
3300
3300
0000
0000
ENDCHAR

STARTCHAR jisx0208_224A
ENCODING 8778
SWIDTH 960 0
DWIDTH 10 0
BBX 10 10 0 -2
BITMAP
0000
0000
0C00
0C00
1600
1600
3300
3300
0000
0000
ENDCHAR

STARTCHAR jisx0208_224B
ENCODING 8779
SWIDTH 960 0
DWIDTH 10 0
BBX 10 10 0 -2
BITMAP
0000
0000
3300
3300
1600
1600
0C00
0C00
0000
0000
ENDCHAR

STARTCHAR jisx0208_224C
ENCODING 8780
SWIDTH 960 0
DWIDTH 10 0
BBX 10 10 0 -2
BITMAP
0000
0000
0000
0000
3F80
0180
0000
0000
0000
0000
ENDCHAR

STARTCHAR jisx0208_224D
ENCODING 8781
SWIDTH 960 0
DWIDTH 10 0
BBX 10 10 0 -2
BITMAP
0000
0000
0300
7F80
00C0
7F80
0300
0000
0000
0000
ENDCHAR

STARTCHAR jisx0208_224E
ENCODING 8782
SWIDTH 960 0
DWIDTH 10 0
BBX 10 10 0 -2
BITMAP
0000
0000
1B00
3F80
60C0
3F80
1B00
0000
0000
0000
ENDCHAR

STARTCHAR jisx0208_224F
ENCODING 8783
SWIDTH 960 0
DWIDTH 10 0
BBX 10 10 0 -2
BITMAP
0000
0000
3180
3F80
1B00
1B00
0E00
0E00
0000
0000
ENDCHAR

STARTCHAR jisx0208_2250
ENCODING 8784
SWIDTH 960 0
DWIDTH 10 0
BBX 10 10 0 -2
BITMAP
0000
0000
3F00
0300
3F00
0300
0300
3F00
0000
0000
ENDCHAR

STARTCHAR jisx0208_225C
ENCODING 8796
SWIDTH 960 0
DWIDTH 10 0
BBX 10 10 0 -2
BITMAP
0000
0000
0180
0300
0600
0C00
1800
3F80
0000
0000
ENDCHAR

STARTCHAR jisx0208_225D
ENCODING 8797
SWIDTH 960 0
DWIDTH 10 0
BBX 10 10 0 -2
BITMAP
0000
0000
0C00
0C00
0C00
0C00
0C00
3F00
0000
0000
ENDCHAR

STARTCHAR jisx0208_225E
ENCODING 8798
SWIDTH 960 0
DWIDTH 10 0
BBX 10 10 0 -2
BITMAP
0000
1F00
3180
60C0
0000
0000
0000
0000
0000
0000
ENDCHAR

STARTCHAR jisx0208_225F
ENCODING 8799
SWIDTH 960 0
DWIDTH 10 0
BBX 10 10 0 -2
BITMAP
0000
0000
1E00
0300
0F00
1B00
1B00
0E00
0000
0000
ENDCHAR

STARTCHAR jisx0208_2260
ENCODING 8800
SWIDTH 960 0
DWIDTH 10 0
BBX 10 10 0 -2
BITMAP
0000
0000
7F80
3B00
3B00
1E00
1E00
0C00
0000
0000
ENDCHAR

STARTCHAR jisx0208_2261
ENCODING 8801
SWIDTH 960 0
DWIDTH 10 0
BBX 10 10 0 -2
BITMAP
0000
0000
3F80
0000
3F80
0000
3F80
0000
0000
0000
ENDCHAR

STARTCHAR jisx0208_2262
ENCODING 8802
SWIDTH 960 0
DWIDTH 10 0
BBX 10 10 0 -2
BITMAP
0000
3800
0000
3F80
0000
3F80
0000
0380
0000
0000
ENDCHAR

STARTCHAR jisx0208_2263
ENCODING 8803
SWIDTH 960 0
DWIDTH 10 0
BBX 10 10 0 -2
BITMAP
0000
0000
0D80
1B00
3600
3600
1B00
0D80
0000
0000
ENDCHAR

STARTCHAR jisx0208_2264
ENCODING 8804
SWIDTH 960 0
DWIDTH 10 0
BBX 10 10 0 -2
BITMAP
0000
0000
3600
1B00
0D80
0D80
1B00
3600
0000
0000
ENDCHAR

STARTCHAR jisx0208_2265
ENCODING 8805
SWIDTH 960 0
DWIDTH 10 0
BBX 10 10 0 -2
BITMAP
0000
07C0
0600
0600
0C00
2C00
5800
1800
0000
0000
ENDCHAR

STARTCHAR jisx0208_2266
ENCODING 8806
SWIDTH 960 0
DWIDTH 10 0
BBX 10 10 0 -2
BITMAP
0000
0000
0000
3B80
66C0
6CC0
3B80
0000
0000
0000
ENDCHAR

STARTCHAR jisx0208_2267
ENCODING 8807
SWIDTH 960 0
DWIDTH 10 0
BBX 10 10 0 -2
BITMAP
0000
0000
0000
3B80
6E00
6E00
3B80
0000
0000
0000
ENDCHAR

STARTCHAR jisx0208_2268
ENCODING 8808
SWIDTH 960 0
DWIDTH 10 0
BBX 10 10 0 -2
BITMAP
0000
0000
3300
3300
0000
0000
0C00
0C00
0000
0000
ENDCHAR

STARTCHAR jisx0208_2269
ENCODING 8809
SWIDTH 960 0
DWIDTH 10 0
BBX 10 10 0 -2
BITMAP
0000
0600
0B00
0C00
0C00
0600
0600
1600
0C00
0000
ENDCHAR

STARTCHAR jisx0208_226A
ENCODING 8810
SWIDTH 960 0
DWIDTH 10 0
BBX 10 10 0 -2
BITMAP
0000
1B00
2D80
3600
3600
1B00
1B00
5B00
3600
0000
ENDCHAR

STARTCHAR jisx0208_2272
ENCODING 8818
SWIDTH 960 0
DWIDTH 10 0
BBX 10 10 0 -2
BITMAP
0000
0C00
1600
0C00
1600
1E00
3300
7780
0000
0000
ENDCHAR

STARTCHAR jisx0208_2273
ENCODING 8819
SWIDTH 960 0
DWIDTH 10 0
BBX 10 10 0 -2
BITMAP
0000
0000
3300
5600
2C00
1580
2AC0
6580
0000
0000
ENDCHAR

STARTCHAR jisx0208_2274
ENCODING 8820
SWIDTH 960 0
DWIDTH 10 0
BBX 10 10 0 -2
BITMAP
0000
0600
1600
1F00
3600
1600
1F00
3600
1800
0000
ENDCHAR

STARTCHAR jisx0208_2275
ENCODING 8821
SWIDTH 960 0
DWIDTH 10 0
BBX 10 10 0 -2
BITMAP
0000
1800
1800
1800
1E00
1B00
1B00
1600
1C00
0000
ENDCHAR

STARTCHAR jisx0208_2276
ENCODING 8822
SWIDTH 960 0
DWIDTH 10 0
BBX 10 10 0 -2
BITMAP
0000
0C00
0E00
0B00
0D80
0D80
0B00
3C00
3800
0000
ENDCHAR

STARTCHAR jisx0208_2277
ENCODING 8823
SWIDTH 960 0
DWIDTH 10 0
BBX 10 10 0 -2
BITMAP
0000
0C00
3F00
0C00
1E00
0C00
0C00
0C00
1E00
0000
ENDCHAR

STARTCHAR jisx0208_2278
ENCODING 8824
SWIDTH 960 0
DWIDTH 10 0
BBX 10 10 0 -2
BITMAP
0000
0C00
3F00
0C00
1E00
0C00
0C00
3F00
0C00
0000
ENDCHAR

STARTCHAR jisx0208_2279
ENCODING 8825
SWIDTH 960 0
DWIDTH 10 0
BBX 10 10 0 -2
BITMAP
0000
1F80
3B00
3B00
1B00
0B00
0B00
0B00
0B00
0000
ENDCHAR

STARTCHAR jisx0208_227E
ENCODING 8830
SWIDTH 960 0
DWIDTH 10 0
BBX 10 10 0 -2
BITMAP
0000
1F00
3180
60C0
60C0
60C0
60C0
3180
1F00
0000
ENDCHAR

STARTCHAR jisx0208_2330
ENCODING 9008
SWIDTH 960 0
DWIDTH 10 0
BBX 10 10 0 -2
BITMAP
0000
0000
1E00
3300
3300
3300
3300
1E00
0000
0000
ENDCHAR

STARTCHAR jisx0208_2331
ENCODING 9009
SWIDTH 960 0
DWIDTH 10 0
BBX 10 10 0 -2
BITMAP
0000
0000
0C00
1C00
0C00
0C00
0C00
1E00
0000
0000
ENDCHAR

STARTCHAR jisx0208_2332
ENCODING 9010
SWIDTH 960 0
DWIDTH 10 0
BBX 10 10 0 -2
BITMAP
0000
0000
1E00
3B00
0700
1C00
3300
3F00
0000
0000
ENDCHAR

STARTCHAR jisx0208_2333
ENCODING 9011
SWIDTH 960 0
DWIDTH 10 0
BBX 10 10 0 -2
BITMAP
0000
0000
1E00
3300
0E00
0300
3B00
1E00
0000
0000
ENDCHAR

STARTCHAR jisx0208_2334
ENCODING 9012
SWIDTH 960 0
DWIDTH 10 0
BBX 10 10 0 -2
BITMAP
0000
0000
0600
0E00
1600
3F80
0600
0F00
0000
0000
ENDCHAR

STARTCHAR jisx0208_2335
ENCODING 9013
SWIDTH 960 0
DWIDTH 10 0
BBX 10 10 0 -2
BITMAP
0000
0000
3F00
3000
3E00
0300
3B00
1E00
0000
0000
ENDCHAR

STARTCHAR jisx0208_2336
ENCODING 9014
SWIDTH 960 0
DWIDTH 10 0
BBX 10 10 0 -2
BITMAP
0000
0000
1F00
3000
3E00
3300
3300
1E00
0000
0000
ENDCHAR

STARTCHAR jisx0208_2337
ENCODING 9015
SWIDTH 960 0
DWIDTH 10 0
BBX 10 10 0 -2
BITMAP
0000
0000
3F00
3300
0600
0C00
0C00
0C00
0000
0000
ENDCHAR

STARTCHAR jisx0208_2338
ENCODING 9016
SWIDTH 960 0
DWIDTH 10 0
BBX 10 10 0 -2
BITMAP
0000
0000
1E00
3300
1E00
3300
3300
1E00
0000
0000
ENDCHAR

STARTCHAR jisx0208_2339
ENCODING 9017
SWIDTH 960 0
DWIDTH 10 0
BBX 10 10 0 -2
BITMAP
0000
0000
1E00
3300
3300
1F00
0300
3E00
0000
0000
ENDCHAR

STARTCHAR jisx0208_2341
ENCODING 9025
SWIDTH 960 0
DWIDTH 10 0
BBX 10 10 0 -2
BITMAP
0000
0000
0C00
1600
1600
3F00
3300
7780
0000
0000
ENDCHAR

STARTCHAR jisx0208_2342
ENCODING 9026
SWIDTH 960 0
DWIDTH 10 0
BBX 10 10 0 -2
BITMAP
0000
0000
3E00
1B00
1F00
1980
1980
3F00
0000
0000
ENDCHAR

STARTCHAR jisx0208_2343
ENCODING 9027
SWIDTH 960 0
DWIDTH 10 0
BBX 10 10 0 -2
BITMAP
0000
0000
1F00
3300
3000
3000
3300
1E00
0000
0000
ENDCHAR

STARTCHAR jisx0208_2344
ENCODING 9028
SWIDTH 960 0
DWIDTH 10 0
BBX 10 10 0 -2
BITMAP
0000
0000
3E00
1B00
1B00
1B00
1B00
3E00
0000
0000
ENDCHAR

STARTCHAR jisx0208_2345
ENCODING 9029
SWIDTH 960 0
DWIDTH 10 0
BBX 10 10 0 -2
BITMAP
0000
0000
3F00
1B00
1E00
1800
1B00
3F00
0000
0000
ENDCHAR

STARTCHAR jisx0208_2346
ENCODING 9030
SWIDTH 960 0
DWIDTH 10 0
BBX 10 10 0 -2
BITMAP
0000
0000
3F00
1B00
1E00
1800
1800
3C00
0000
0000
ENDCHAR

STARTCHAR jisx0208_2347
ENCODING 9031
SWIDTH 960 0
DWIDTH 10 0
BBX 10 10 0 -2
BITMAP
0000
0000
1F00
3300
3000
3780
3300
1F00
0000
0000
ENDCHAR

STARTCHAR jisx0208_2348
ENCODING 9032
SWIDTH 960 0
DWIDTH 10 0
BBX 10 10 0 -2
BITMAP
0000
0000
3780
1B00
1F00
1B00
1B00
3780
0000
0000
ENDCHAR

STARTCHAR jisx0208_2349
ENCODING 9033
SWIDTH 960 0
DWIDTH 10 0
BBX 10 10 0 -2
BITMAP
0000
0000
1E00
0C00
0C00
0C00
0C00
1E00
0000
0000
ENDCHAR

STARTCHAR jisx0208_234A
ENCODING 9034
SWIDTH 960 0
DWIDTH 10 0
BBX 10 10 0 -2
BITMAP
0000
0000
0F00
0600
0600
0600
3600
1C00
0000
0000
ENDCHAR

STARTCHAR jisx0208_234B
ENCODING 9035
SWIDTH 960 0
DWIDTH 10 0
BBX 10 10 0 -2
BITMAP
0000
0000
3B80
1B00
1600
1E00
1B00
3B80
0000
0000
ENDCHAR

STARTCHAR jisx0208_234C
ENCODING 9036
SWIDTH 960 0
DWIDTH 10 0
BBX 10 10 0 -2
BITMAP
0000
0000
3C00
1800
1800
1800
1B00
3F00
0000
0000
ENDCHAR

STARTCHAR jisx0208_234D
ENCODING 9037
SWIDTH 960 0
DWIDTH 10 0
BBX 10 10 0 -2
BITMAP
0000
0000
7380
3300
3700
3700
2B00
6B80
0000
0000
ENDCHAR

STARTCHAR jisx0208_234E
ENCODING 9038
SWIDTH 960 0
DWIDTH 10 0
BBX 10 10 0 -2
BITMAP
0000
0000
3780
1B00
1B00
1700
1B00
3B00
0000
0000
ENDCHAR

STARTCHAR jisx0208_234F
ENCODING 9039
SWIDTH 960 0
DWIDTH 10 0
BBX 10 10 0 -2
BITMAP
0000
0000
1F00
3180
3180
3180
3180
1F00
0000
0000
ENDCHAR

STARTCHAR jisx0208_2350
ENCODING 9040
SWIDTH 960 0
DWIDTH 10 0
BBX 10 10 0 -2
BITMAP
0000
0000
3F00
1980
1980
1F00
1800
3C00
0000
0000
ENDCHAR

STARTCHAR jisx0208_2351
ENCODING 9041
SWIDTH 960 0
DWIDTH 10 0
BBX 10 10 0 -2
BITMAP
0000
0000
1F00
3180
3180
2D80
3B00
1F80
0000
0000
ENDCHAR

STARTCHAR jisx0208_2352
ENCODING 9042
SWIDTH 960 0
DWIDTH 10 0
BBX 10 10 0 -2
BITMAP
0000
0000
3E00
1B00
1B00
1E00
1B00
3B80
0000
0000
ENDCHAR

STARTCHAR jisx0208_2353
ENCODING 9043
SWIDTH 960 0
DWIDTH 10 0
BBX 10 10 0 -2
BITMAP
0000
0000
1F00
3300
1E00
0300
3300
3E00
0000
0000
ENDCHAR

STARTCHAR jisx0208_2354
ENCODING 9044
SWIDTH 960 0
DWIDTH 10 0
BBX 10 10 0 -2
BITMAP
0000
0000
3F00
2B00
0C00
0C00
0C00
1E00
0000
0000
ENDCHAR

STARTCHAR jisx0208_2355
ENCODING 9045
SWIDTH 960 0
DWIDTH 10 0
BBX 10 10 0 -2
BITMAP
0000
0000
3780
1B00
1B00
1B00
1B00
0E00
0000
0000
ENDCHAR

STARTCHAR jisx0208_2356
ENCODING 9046
SWIDTH 960 0
DWIDTH 10 0
BBX 10 10 0 -2
BITMAP
0000
0000
7780
3300
1600
1600
0C00
0C00
0000
0000
ENDCHAR

STARTCHAR jisx0208_2357
ENCODING 9047
SWIDTH 960 0
DWIDTH 10 0
BBX 10 10 0 -2
BITMAP
0000
0000
6B80
6D80
5580
5580
3300
3300
0000
0000
ENDCHAR

STARTCHAR jisx0208_2358
ENCODING 9048
SWIDTH 960 0
DWIDTH 10 0
BBX 10 10 0 -2
BITMAP
0000
0000
3700
1600
0C00
0C00
1600
3700
0000
0000
ENDCHAR

STARTCHAR jisx0208_2359
ENCODING 9049
SWIDTH 960 0
DWIDTH 10 0
BBX 10 10 0 -2
BITMAP
0000
0000
3700
3300
1600
0C00
0C00
1E00
0000
0000
ENDCHAR

STARTCHAR jisx0208_235A
ENCODING 9050
SWIDTH 960 0
DWIDTH 10 0
BBX 10 10 0 -2
BITMAP
0000
0000
3F00
3600
0C00
1800
3300
3F00
0000
0000
ENDCHAR

STARTCHAR jisx0208_2361
ENCODING 9057
SWIDTH 960 0
DWIDTH 10 0
BBX 10 10 0 -2
BITMAP
0000
0000
0000
1E00
0300
1F00
3300
1F80
0000
0000
ENDCHAR

STARTCHAR jisx0208_2362
ENCODING 9058
SWIDTH 960 0
DWIDTH 10 0
BBX 10 10 0 -2
BITMAP
0000
0000
3800
1E00
1B00
1B00
1B00
3E00
0000
0000
ENDCHAR

STARTCHAR jisx0208_2363
ENCODING 9059
SWIDTH 960 0
DWIDTH 10 0
BBX 10 10 0 -2
BITMAP
0000
0000
0000
1E00
3300
3000
3300
1E00
0000
0000
ENDCHAR

STARTCHAR jisx0208_2364
ENCODING 9060
SWIDTH 960 0
DWIDTH 10 0
BBX 10 10 0 -2
BITMAP
0000
0000
0300
0F00
1B00
1B00
1B00
0F80
0000
0000
ENDCHAR

STARTCHAR jisx0208_2365
ENCODING 9061
SWIDTH 960 0
DWIDTH 10 0
BBX 10 10 0 -2
BITMAP
0000
0000
0000
1E00
3300
3F00
3000
1F00
0000
0000
ENDCHAR

STARTCHAR jisx0208_2366
ENCODING 9062
SWIDTH 960 0
DWIDTH 10 0
BBX 10 10 0 -2
BITMAP
0000
0000
0F00
0C00
3F00
0C00
0C00
1E00
0000
0000
ENDCHAR

STARTCHAR jisx0208_2367
ENCODING 9063
SWIDTH 960 0
DWIDTH 10 0
BBX 10 10 0 -2
BITMAP
0000
0000
0000
1B00
3600
1C00
3E00
3300
1E00
0000
ENDCHAR

STARTCHAR jisx0208_2368
ENCODING 9064
SWIDTH 960 0
DWIDTH 10 0
BBX 10 10 0 -2
BITMAP
0000
0000
3800
1E00
1B00
1B00
1B00
3780
0000
0000
ENDCHAR

STARTCHAR jisx0208_2369
ENCODING 9065
SWIDTH 960 0
DWIDTH 10 0
BBX 10 10 0 -2
BITMAP
0000
0600
0000
0E00
0600
0600
0600
0F00
0000
0000
ENDCHAR

STARTCHAR jisx0208_236A
ENCODING 9066
SWIDTH 960 0
DWIDTH 10 0
BBX 10 10 0 -2
BITMAP
0000
0600
0000
0E00
0600
0600
0600
1600
1C00
0000
ENDCHAR

STARTCHAR jisx0208_236B
ENCODING 9067
SWIDTH 960 0
DWIDTH 10 0
BBX 10 10 0 -2
BITMAP
0000
0000
3800
1700
1600
1C00
1600
3700
0000
0000
ENDCHAR

STARTCHAR jisx0208_236C
ENCODING 9068
SWIDTH 960 0
DWIDTH 10 0
BBX 10 10 0 -2
BITMAP
0000
0000
1C00
0C00
0C00
0C00
0C00
1E00
0000
0000
ENDCHAR

STARTCHAR jisx0208_236D
ENCODING 9069
SWIDTH 960 0
DWIDTH 10 0
BBX 10 10 0 -2
BITMAP
0000
0000
0000
7700
2B00
2B00
2B00
7F80
0000
0000
ENDCHAR

STARTCHAR jisx0208_236E
ENCODING 9070
SWIDTH 960 0
DWIDTH 10 0
BBX 10 10 0 -2
BITMAP
0000
0000
0000
3E00
1B00
1B00
1B00
3780
0000
0000
ENDCHAR

STARTCHAR jisx0208_236F
ENCODING 9071
SWIDTH 960 0
DWIDTH 10 0
BBX 10 10 0 -2
BITMAP
0000
0000
0000
1E00
3300
3300
3300
1E00
0000
0000
ENDCHAR

STARTCHAR jisx0208_2370
ENCODING 9072
SWIDTH 960 0
DWIDTH 10 0
BBX 10 10 0 -2
BITMAP
0000
0000
0000
3E00
1B00
1B00
1E00
1800
3C00
0000
ENDCHAR

STARTCHAR jisx0208_2371
ENCODING 9073
SWIDTH 960 0
DWIDTH 10 0
BBX 10 10 0 -2
BITMAP
0000
0000
0000
0F00
1B00
1B00
0F00
0300
0780
0000
ENDCHAR

STARTCHAR jisx0208_2372
ENCODING 9074
SWIDTH 960 0
DWIDTH 10 0
BBX 10 10 0 -2
BITMAP
0000
0000
0000
1B80
0D80
0C00
0C00
1E00
0000
0000
ENDCHAR

STARTCHAR jisx0208_2373
ENCODING 9075
SWIDTH 960 0
DWIDTH 10 0
BBX 10 10 0 -2
BITMAP
0000
0000
0000
1F00
3000
1E00
0300
3E00
0000
0000
ENDCHAR

STARTCHAR jisx0208_2374
ENCODING 9076
SWIDTH 960 0
DWIDTH 10 0
BBX 10 10 0 -2
BITMAP
0000
0000
0C00
1E00
0C00
0C00
0B00
0E00
0000
0000
ENDCHAR

STARTCHAR jisx0208_2375
ENCODING 9077
SWIDTH 960 0
DWIDTH 10 0
BBX 10 10 0 -2
BITMAP
0000
0000
0000
3700
1B00
1B00
1B00
0F80
0000
0000
ENDCHAR

STARTCHAR jisx0208_2376
ENCODING 9078
SWIDTH 960 0
DWIDTH 10 0
BBX 10 10 0 -2
BITMAP
0000
0000
0000
3700
1600
1600
0C00
0C00
0000
0000
ENDCHAR

STARTCHAR jisx0208_2377
ENCODING 9079
SWIDTH 960 0
DWIDTH 10 0
BBX 10 10 0 -2
BITMAP
0000
0000
0000
6DC0
2D80
2D80
1B00
1B00
0000
0000
ENDCHAR

STARTCHAR jisx0208_2378
ENCODING 9080
SWIDTH 960 0
DWIDTH 10 0
BBX 10 10 0 -2
BITMAP
0000
0000
0000
3700
1600
0C00
1600
3700
0000
0000
ENDCHAR

STARTCHAR jisx0208_2379
ENCODING 9081
SWIDTH 960 0
DWIDTH 10 0
BBX 10 10 0 -2
BITMAP
0000
0000
0000
1B80
0B00
0B00
0600
1600
1C00
0000
ENDCHAR

STARTCHAR jisx0208_237A
ENCODING 9082
SWIDTH 960 0
DWIDTH 10 0
BBX 10 10 0 -2
BITMAP
0000
0000
0000
3F00
3600
0C00
1B00
3F00
0000
0000
ENDCHAR

STARTCHAR jisx0208_2421
ENCODING 9249
SWIDTH 960 0
DWIDTH 10 0
BBX 10 10 0 -2
BITMAP
0000
0000
0C00
3F00
0C00
1F00
3580
2D80
1B00
0000
ENDCHAR

STARTCHAR jisx0208_2422
ENCODING 9250
SWIDTH 960 0
DWIDTH 10 0
BBX 10 10 0 -2
BITMAP
0000
0C00
3F00
1800
1F80
3AC0
56C0
6CC0
7780
0000
ENDCHAR

STARTCHAR jisx0208_2423
ENCODING 9251
SWIDTH 960 0
DWIDTH 10 0
BBX 10 10 0 -2
BITMAP
0000
0000
0000
7000
3300
3180
2B80
3980
1800
0000
ENDCHAR

STARTCHAR jisx0208_2424
ENCODING 9252
SWIDTH 960 0
DWIDTH 10 0
BBX 10 10 0 -2
BITMAP
0000
0000
6000
3300
6180
60C0
5BC0
70C0
3000
0000
ENDCHAR

STARTCHAR jisx0208_2425
ENCODING 9253
SWIDTH 960 0
DWIDTH 10 0
BBX 10 10 0 -2
BITMAP
0000
0000
0C00
0600
2E00
1B00
0300
0600
1C00
0000
ENDCHAR

STARTCHAR jisx0208_2426
ENCODING 9254
SWIDTH 960 0
DWIDTH 10 0
BBX 10 10 0 -2
BITMAP
0000
1F00
0000
2F00
1980
0180
0180
0300
0E00
0000
ENDCHAR

STARTCHAR jisx0208_2427
ENCODING 9255
SWIDTH 960 0
DWIDTH 10 0
BBX 10 10 0 -2
BITMAP
0000
0000
0C00
0600
1F00
0600
0C00
1600
3780
0000
ENDCHAR

STARTCHAR jisx0208_2428
ENCODING 9256
SWIDTH 960 0
DWIDTH 10 0
BBX 10 10 0 -2
BITMAP
0000
1F00
0000
2F00
1600
0C00
1600
3600
63C0
0000
ENDCHAR

STARTCHAR jisx0208_2429
ENCODING 9257
SWIDTH 960 0
DWIDTH 10 0
BBX 10 10 0 -2
BITMAP
0000
0000
0000
0C00
3D80
0D80
1F00
2D80
1B00
0000
ENDCHAR

STARTCHAR jisx0208_242A
ENCODING 9258
SWIDTH 960 0
DWIDTH 10 0
BBX 10 10 0 -2
BITMAP
0000
3800
1B00
7D80
1980
1F00
7980
5980
3700
0000
ENDCHAR

STARTCHAR jisx0208_242B
ENCODING 9259
SWIDTH 960 0
DWIDTH 10 0
BBX 10 10 0 -2
BITMAP
0000
3800
1800
7D80
36C0
35C0
36C0
5C00
6C00
0000
ENDCHAR

STARTCHAR jisx0208_242C
ENCODING 9260
SWIDTH 960 0
DWIDTH 10 0
BBX 10 10 0 -2
BITMAP
0000
39C0
1800
7D80
36C0
35C0
36C0
5C00
6C00
0000
ENDCHAR

STARTCHAR jisx0208_242D
ENCODING 9261
SWIDTH 960 0
DWIDTH 10 0
BBX 10 10 0 -2
BITMAP
0000
0600
3F80
0600
3FC0
0300
3F80
3000
1F00
0000
ENDCHAR

STARTCHAR jisx0208_242E
ENCODING 9262
SWIDTH 960 0
DWIDTH 10 0
BBX 10 10 0 -2
BITMAP
0000
05C0
3F80
0600
3FC0
0300
3F80
3000
1F00
0000
ENDCHAR

STARTCHAR jisx0208_242F
ENCODING 9263
SWIDTH 960 0
DWIDTH 10 0
BBX 10 10 0 -2
BITMAP
0000
0700
0600
0C00
1800
1800
0C00
0600
0300
0000
ENDCHAR

STARTCHAR jisx0208_2430
ENCODING 9264
SWIDTH 960 0
DWIDTH 10 0
BBX 10 10 0 -2
BITMAP
0000
0700
0600
0DC0
1800
1800
0C00
0600
0300
0000
ENDCHAR

STARTCHAR jisx0208_2431
ENCODING 9265
SWIDTH 960 0
DWIDTH 10 0
BBX 10 10 0 -2
BITMAP
0000
6700
3300
5FC0
6300
6300
7300
6300
6E00
0000
ENDCHAR

STARTCHAR jisx0208_2432
ENCODING 9266
SWIDTH 960 0
DWIDTH 10 0
BBX 10 10 0 -2
BITMAP
0000
67C0
3300
5FC0
6300
6300
7300
6300
6E00
0000
ENDCHAR

STARTCHAR jisx0208_2433
ENCODING 9267
SWIDTH 960 0
DWIDTH 10 0
BBX 10 10 0 -2
BITMAP
0000
0000
1F00
0C00
0000
0000
3000
3000
1F80
0000
ENDCHAR

STARTCHAR jisx0208_2434
ENCODING 9268
SWIDTH 960 0
DWIDTH 10 0
BBX 10 10 0 -2
BITMAP
0000
01C0
1F00
0C00
0000
0000
3000
3000
1F80
0000
ENDCHAR

STARTCHAR jisx0208_2435
ENCODING 9269
SWIDTH 960 0
DWIDTH 10 0
BBX 10 10 0 -2
BITMAP
0000
0600
3F80
0300
0300
1F80
3180
3000
1F00
0000
ENDCHAR

STARTCHAR jisx0208_2436
ENCODING 9270
SWIDTH 960 0
DWIDTH 10 0
BBX 10 10 0 -2
BITMAP
0000
05C0
3F80
0300
0300
1F80
3180
3000
1F00
0000
ENDCHAR

STARTCHAR jisx0208_2437
ENCODING 9271
SWIDTH 960 0
DWIDTH 10 0
BBX 10 10 0 -2
BITMAP
0000
7000
3000
3000
3000
3000
3180
3300
1E00
0000
ENDCHAR

STARTCHAR jisx0208_2438
ENCODING 9272
SWIDTH 960 0
DWIDTH 10 0
BBX 10 10 0 -2
BITMAP
0000
7000
3380
3000
3000
3000
3180
3300
1E00
0000
ENDCHAR

STARTCHAR jisx0208_2439
ENCODING 9273
SWIDTH 960 0
DWIDTH 10 0
BBX 10 10 0 -2
BITMAP
0000
0600
7FC0
0E00
1600
1600
0E00
0600
1C00
0000
ENDCHAR

STARTCHAR jisx0208_243A
ENCODING 9274
SWIDTH 960 0
DWIDTH 10 0
BBX 10 10 0 -2
BITMAP
0000
05C0
7FC0
0E00
1600
1600
0E00
0600
1C00
0000
ENDCHAR

STARTCHAR jisx0208_243B
ENCODING 9275
SWIDTH 960 0
DWIDTH 10 0
BBX 10 10 0 -2
BITMAP
0000
1B00
1B00
1FC0
7B00
1700
1B00
1800
1F80
0000
ENDCHAR

STARTCHAR jisx0208_243C
ENCODING 9276
SWIDTH 960 0
DWIDTH 10 0
BBX 10 10 0 -2
BITMAP
0000
1BC0
1B00
1FC0
7B00
1700
1B00
1800
1F80
0000
ENDCHAR

STARTCHAR jisx0208_243D
ENCODING 9277
SWIDTH 960 0
DWIDTH 10 0
BBX 10 10 0 -2
BITMAP
0000
1F00
0600
0C00
7FC0
0600
0C00
0C00
0700
0000
ENDCHAR

STARTCHAR jisx0208_243E
ENCODING 9278
SWIDTH 960 0
DWIDTH 10 0
BBX 10 10 0 -2
BITMAP
0000
1F00
05C0
0C00
7FC0
0600
0C00
0C00
0700
0000
ENDCHAR

STARTCHAR jisx0208_243F
ENCODING 9279
SWIDTH 960 0
DWIDTH 10 0
BBX 10 10 0 -2
BITMAP
0000
3800
1C00
7800
2F80
3600
6000
6C00
6F80
0000
ENDCHAR

STARTCHAR jisx0208_2440
ENCODING 9280
SWIDTH 960 0
DWIDTH 10 0
BBX 10 10 0 -2
BITMAP
0000
39C0
1C00
7800
2F80
3600
3000
6C00
6F80
0000
ENDCHAR

STARTCHAR jisx0208_2441
ENCODING 9281
SWIDTH 960 0
DWIDTH 10 0
BBX 10 10 0 -2
BITMAP
0000
1800
7F00
1800
1F00
3980
3180
0180
1F00
0000
ENDCHAR

STARTCHAR jisx0208_2442
ENCODING 9282
SWIDTH 960 0
DWIDTH 10 0
BBX 10 10 0 -2
BITMAP
0000
19C0
7F00
1800
1F00
3980
3180
0180
1F00
0000
ENDCHAR

STARTCHAR jisx0208_2443
ENCODING 9283
SWIDTH 960 0
DWIDTH 10 0
BBX 10 10 0 -2
BITMAP
0000
0000
0000
0000
2F00
1980
0180
0180
0F00
0000
ENDCHAR

STARTCHAR jisx0208_2444
ENCODING 9284
SWIDTH 960 0
DWIDTH 10 0
BBX 10 10 0 -2
BITMAP
0000
0000
6F80
38C0
00C0
00C0
0180
0F00
0000
0000
ENDCHAR

STARTCHAR jisx0208_2445
ENCODING 9285
SWIDTH 960 0
DWIDTH 10 0
BBX 10 10 0 -2
BITMAP
0000
01C0
6F80
38C0
00C0
00C0
0180
0F00
0000
0000
ENDCHAR

STARTCHAR jisx0208_2446
ENCODING 9286
SWIDTH 960 0
DWIDTH 10 0
BBX 10 10 0 -2
BITMAP
0000
0000
6FC0
3600
0C00
0C00
0C00
0C00
0700
0000
ENDCHAR

STARTCHAR jisx0208_2447
ENCODING 9287
SWIDTH 960 0
DWIDTH 10 0
BBX 10 10 0 -2
BITMAP
0000
0000
6FC0
3600
0DC0
0C00
0C00
0C00
0700
0000
ENDCHAR

STARTCHAR jisx0208_2448
ENCODING 9288
SWIDTH 960 0
DWIDTH 10 0
BBX 10 10 0 -2
BITMAP
0000
1C00
0C00
0B80
0E00
1800
3000
3000
1F80
0000
ENDCHAR

STARTCHAR jisx0208_2449
ENCODING 9289
SWIDTH 960 0
DWIDTH 10 0
BBX 10 10 0 -2
BITMAP
0000
1DC0
0C00
0B80
0E00
1800
3000
3000
1F80
0000
ENDCHAR

STARTCHAR jisx0208_244A
ENCODING 9290
SWIDTH 960 0
DWIDTH 10 0
BBX 10 10 0 -2
BITMAP
0000
7000
3B80
71C0
3300
6300
6F00
5B80
0EC0
0000
ENDCHAR

STARTCHAR jisx0208_244B
ENCODING 9291
SWIDTH 960 0
DWIDTH 10 0
BBX 10 10 0 -2
BITMAP
0000
6000
2F80
6600
6000
6000
6C00
6F80
6000
0000
ENDCHAR

STARTCHAR jisx0208_244C
ENCODING 9292
SWIDTH 960 0
DWIDTH 10 0
BBX 10 10 0 -2
BITMAP
0000
0E00
7600
3F80
2CC0
6CC0
5BC0
5EC0
7380
0000
ENDCHAR

STARTCHAR jisx0208_244D
ENCODING 9293
SWIDTH 960 0
DWIDTH 10 0
BBX 10 10 0 -2
BITMAP
0000
3800
1800
7780
1CC0
38C0
5BC0
76C0
1B80
0000
ENDCHAR

STARTCHAR jisx0208_244E
ENCODING 9294
SWIDTH 960 0
DWIDTH 10 0
BBX 10 10 0 -2
BITMAP
0000
0000
1F00
2D80
6CC0
6CC0
6CC0
3980
0700
0000
ENDCHAR

STARTCHAR jisx0208_244F
ENCODING 9295
SWIDTH 960 0
DWIDTH 10 0
BBX 10 10 0 -2
BITMAP
0000
6700
3300
5FC0
6300
6300
6F00
5B80
6EC0
0000
ENDCHAR

STARTCHAR jisx0208_2450
ENCODING 9296
SWIDTH 960 0
DWIDTH 10 0
BBX 10 10 0 -2
BITMAP
0000
67C0
3300
5FC0
6300
6300
6F00
5B80
6EC0
0000
ENDCHAR

STARTCHAR jisx0208_2451
ENCODING 9297
SWIDTH 960 0
DWIDTH 10 0
BBX 10 10 0 -2
BITMAP
0000
67C0
33C0
5F80
6300
6300
6F00
5B80
6EC0
0000
ENDCHAR

STARTCHAR jisx0208_2452
ENCODING 9298
SWIDTH 960 0
DWIDTH 10 0
BBX 10 10 0 -2
BITMAP
0000
6B00
3B00
3380
62C0
6300
6300
6600
3C00
0000
ENDCHAR

STARTCHAR jisx0208_2453
ENCODING 9299
SWIDTH 960 0
DWIDTH 10 0
BBX 10 10 0 -2
BITMAP
0000
6BC0
3B00
3380
62C0
6300
6300
6600
3C00
0000
ENDCHAR

STARTCHAR jisx0208_2454
ENCODING 9300
SWIDTH 960 0
DWIDTH 10 0
BBX 10 10 0 -2
BITMAP
0000
6BC0
3BC0
3380
62C0
6300
6300
6600
3C00
0000
ENDCHAR

STARTCHAR jisx0208_2455
ENCODING 9301
SWIDTH 960 0
DWIDTH 10 0
BBX 10 10 0 -2
BITMAP
0000
0C00
0700
0C00
0C00
0580
5AC0
72C0
0E00
0000
ENDCHAR

STARTCHAR jisx0208_2456
ENCODING 9302
SWIDTH 960 0
DWIDTH 10 0
BBX 10 10 0 -2
BITMAP
0000
0DC0
0700
0C00
0C00
0580
5AC0
72C0
0E00
0000
ENDCHAR

STARTCHAR jisx0208_2457
ENCODING 9303
SWIDTH 960 0
DWIDTH 10 0
BBX 10 10 0 -2
BITMAP
0000
0DC0
07C0
0C00
0C00
0580
5AC0
72C0
0E00
0000
ENDCHAR

STARTCHAR jisx0208_2458
ENCODING 9304
SWIDTH 960 0
DWIDTH 10 0
BBX 10 10 0 -2
BITMAP
0000
0000
0000
1C00
7600
6300
0180
00C0
0000
0000
ENDCHAR

STARTCHAR jisx0208_2459
ENCODING 9305
SWIDTH 960 0
DWIDTH 10 0
BBX 10 10 0 -2
BITMAP
0000
0000
0380
1C00
7600
6300
0180
00C0
0000
0000
ENDCHAR

STARTCHAR jisx0208_245A
ENCODING 9306
SWIDTH 960 0
DWIDTH 10 0
BBX 10 10 0 -2
BITMAP
0000
0000
0380
1B80
7600
6300
0180
00C0
0000
0000
ENDCHAR

STARTCHAR jisx0208_245B
ENCODING 9307
SWIDTH 960 0
DWIDTH 10 0
BBX 10 10 0 -2
BITMAP
0000
6000
3FC0
6300
5FC0
6300
6F00
5B80
6EC0
0000
ENDCHAR

STARTCHAR jisx0208_245C
ENCODING 9308
SWIDTH 960 0
DWIDTH 10 0
BBX 10 10 0 -2
BITMAP
0000
61C0
3F80
6300
5FC0
6300
6F00
5B80
6EC0
0000
ENDCHAR

STARTCHAR jisx0208_245D
ENCODING 9309
SWIDTH 960 0
DWIDTH 10 0
BBX 10 10 0 -2
BITMAP
0000
61C0
3FC0
6300
5FC0
6300
6F00
5B80
6EC0
0000
ENDCHAR

STARTCHAR jisx0208_245E
ENCODING 9310
SWIDTH 960 0
DWIDTH 10 0
BBX 10 10 0 -2
BITMAP
0000
0C00
7F80
0C00
7F80
0C00
3C00
6F00
3D80
0000
ENDCHAR

STARTCHAR jisx0208_245F
ENCODING 9311
SWIDTH 960 0
DWIDTH 10 0
BBX 10 10 0 -2
BITMAP
0000
2E00
1600
0D80
3D80
6B80
59C0
7300
0600
0000
ENDCHAR

STARTCHAR jisx0208_2460
ENCODING 9312
SWIDTH 960 0
DWIDTH 10 0
BBX 10 10 0 -2
BITMAP
0000
1800
7D80
38C0
59C0
5800
3180
31C0
1F80
0000
ENDCHAR

STARTCHAR jisx0208_2461
ENCODING 9313
SWIDTH 960 0
DWIDTH 10 0
BBX 10 10 0 -2
BITMAP
0000
0E00
7600
3F80
36C0
76C0
5CC0
5D80
7700
0000
ENDCHAR

STARTCHAR jisx0208_2462
ENCODING 9314
SWIDTH 960 0
DWIDTH 10 0
BBX 10 10 0 -2
BITMAP
0000
1C00
0C00
3E00
1800
3D80
18C0
18C0
0F80
0000
ENDCHAR

STARTCHAR jisx0208_2463
ENCODING 9315
SWIDTH 960 0
DWIDTH 10 0
BBX 10 10 0 -2
BITMAP
0000
0000
0600
1600
1F80
7980
0B00
0C00
0C00
0000
ENDCHAR

STARTCHAR jisx0208_2464
ENCODING 9316
SWIDTH 960 0
DWIDTH 10 0
BBX 10 10 0 -2
BITMAP
0000
0E00
3780
3CC0
78C0
1B80
0C00
0C00
0C00
0000
ENDCHAR

STARTCHAR jisx0208_2465
ENCODING 9317
SWIDTH 960 0
DWIDTH 10 0
BBX 10 10 0 -2
BITMAP
0000
0000
0000
0600
2F00
3580
3580
2F00
0C00
0000
ENDCHAR

STARTCHAR jisx0208_2466
ENCODING 9318
SWIDTH 960 0
DWIDTH 10 0
BBX 10 10 0 -2
BITMAP
0000
0C00
6F00
5580
76C0
66C0
5580
6F00
1C00
0000
ENDCHAR

STARTCHAR jisx0208_2467
ENCODING 9319
SWIDTH 960 0
DWIDTH 10 0
BBX 10 10 0 -2
BITMAP
0000
0000
0000
0E00
0780
0600
1E00
3700
1D80
0000
ENDCHAR

STARTCHAR jisx0208_2468
ENCODING 9320
SWIDTH 960 0
DWIDTH 10 0
BBX 10 10 0 -2
BITMAP
0000
1C00
0C00
0F80
0C00
0C00
3E00
6B00
3D80
0000
ENDCHAR

STARTCHAR jisx0208_2469
ENCODING 9321
SWIDTH 960 0
DWIDTH 10 0
BBX 10 10 0 -2
BITMAP
0000
1800
0F00
1800
2F00
3980
3180
0180
1F00
0000
ENDCHAR

STARTCHAR jisx0208_246A
ENCODING 9322
SWIDTH 960 0
DWIDTH 10 0
BBX 10 10 0 -2
BITMAP
0000
3800
1700
2D80
3980
3980
1980
0300
0E00
0000
ENDCHAR

STARTCHAR jisx0208_246B
ENCODING 9323
SWIDTH 960 0
DWIDTH 10 0
BBX 10 10 0 -2
BITMAP
0000
2F00
3600
0C00
1F00
3180
6D80
1580
0F00
0000
ENDCHAR

STARTCHAR jisx0208_246C
ENCODING 9324
SWIDTH 960 0
DWIDTH 10 0
BBX 10 10 0 -2
BITMAP
0000
3800
1800
7780
1D80
3980
5980
79C0
1980
0000
ENDCHAR

STARTCHAR jisx0208_246D
ENCODING 9325
SWIDTH 960 0
DWIDTH 10 0
BBX 10 10 0 -2
BITMAP
0000
2F00
3600
0C00
1F00
3180
6180
0180
1F00
0000
ENDCHAR

STARTCHAR jisx0208_246E
ENCODING 9326
SWIDTH 960 0
DWIDTH 10 0
BBX 10 10 0 -2
BITMAP
0000
0000
0000
3800
1700
3D80
1980
3980
1B00
0000
ENDCHAR

STARTCHAR jisx0208_246F
ENCODING 9327
SWIDTH 960 0
DWIDTH 10 0
BBX 10 10 0 -2
BITMAP
0000
3800
1800
7780
1CC0
38C0
58C0
7980
1B00
0000
ENDCHAR

STARTCHAR jisx0208_2470
ENCODING 9328
SWIDTH 960 0
DWIDTH 10 0
BBX 10 10 0 -2
BITMAP
0000
1E00
0600
1F80
2CC0
6CC0
5BC0
56C0
3380
0000
ENDCHAR

STARTCHAR jisx0208_2471
ENCODING 9329
SWIDTH 960 0
DWIDTH 10 0
BBX 10 10 0 -2
BITMAP
0000
1E00
0E00
1B00
2B00
0E00
1800
3780
6DC0
0000
ENDCHAR

STARTCHAR jisx0208_2472
ENCODING 9330
SWIDTH 960 0
DWIDTH 10 0
BBX 10 10 0 -2
BITMAP
0000
0C00
7F00
1800
3B80
6E00
1600
3000
1F80
0000
ENDCHAR

STARTCHAR jisx0208_2473
ENCODING 9331
SWIDTH 960 0
DWIDTH 10 0
BBX 10 10 0 -2
BITMAP
0000
1800
0C00
1800
1800
3EC0
36C0
6580
6700
0000
ENDCHAR

STARTCHAR jisx0208_2521
ENCODING 9505
SWIDTH 960 0
DWIDTH 10 0
BBX 10 10 0 -2
BITMAP
0000
0000
0000
7F80
0300
1E00
0C00
0C00
3800
0000
ENDCHAR

STARTCHAR jisx0208_2522
ENCODING 9506
SWIDTH 960 0
DWIDTH 10 0
BBX 10 10 0 -2
BITMAP
0000
0180
7FC0
0180
1B00
0E00
0C00
1800
3000
0000
ENDCHAR

STARTCHAR jisx0208_2523
ENCODING 9507
SWIDTH 960 0
DWIDTH 10 0
BBX 10 10 0 -2
BITMAP
0000
0000
0700
0300
0600
0E00
3600
0600
0600
0000
ENDCHAR

STARTCHAR jisx0208_2524
ENCODING 9508
SWIDTH 960 0
DWIDTH 10 0
BBX 10 10 0 -2
BITMAP
0000
0780
0300
0600
1E00
7600
0600
0600
0600
0000
ENDCHAR

STARTCHAR jisx0208_2525
ENCODING 9509
SWIDTH 960 0
DWIDTH 10 0
BBX 10 10 0 -2
BITMAP
0000
0000
0C00
2B00
3F80
3300
3300
0600
0C00
0000
ENDCHAR

STARTCHAR jisx0208_2526
ENCODING 9510
SWIDTH 960 0
DWIDTH 10 0
BBX 10 10 0 -2
BITMAP
0000
0C00
2D80
3FC0
3180
3180
0180
0300
0E00
0000
ENDCHAR

STARTCHAR jisx0208_2527
ENCODING 9511
SWIDTH 960 0
DWIDTH 10 0
BBX 10 10 0 -2
BITMAP
0000
0000
0000
0000
3F00
0C00
0C00
0D80
7F80
0000
ENDCHAR

STARTCHAR jisx0208_2528
ENCODING 9512
SWIDTH 960 0
DWIDTH 10 0
BBX 10 10 0 -2
BITMAP
0000
0000
3F80
0C00
0C00
0C00
6D80
3FC0
0000
0000
ENDCHAR

STARTCHAR jisx0208_2529
ENCODING 9513
SWIDTH 960 0
DWIDTH 10 0
BBX 10 10 0 -2
BITMAP
0000
0000
0E00
0600
3F80
0E00
1600
3600
0E00
0000
ENDCHAR

STARTCHAR jisx0208_252A
ENCODING 9514
SWIDTH 960 0
DWIDTH 10 0
BBX 10 10 0 -2
BITMAP
0000
0700
0300
7FC0
0700
0B00
1B00
6B00
0700
0000
ENDCHAR

STARTCHAR jisx0208_252B
ENCODING 9515
SWIDTH 960 0
DWIDTH 10 0
BBX 10 10 0 -2
BITMAP
0000
1C00
0D80
7FC0
1980
1980
1980
3780
6300
0000
ENDCHAR

STARTCHAR jisx0208_252C
ENCODING 9516
SWIDTH 960 0
DWIDTH 10 0
BBX 10 10 0 -2
BITMAP
0000
1DC0
0C00
7FC0
1980
1980
1980
3780
6300
0000
ENDCHAR

STARTCHAR jisx0208_252D
ENCODING 9517
SWIDTH 960 0
DWIDTH 10 0
BBX 10 10 0 -2
BITMAP
0000
1C00
0C00
7F80
0C00
7F80
0600
0600
0600
0000
ENDCHAR

STARTCHAR jisx0208_252E
ENCODING 9518
SWIDTH 960 0
DWIDTH 10 0
BBX 10 10 0 -2
BITMAP
0000
1DC0
0C00
7F80
0C00
7F80
0600
0600
0600
0000
ENDCHAR

STARTCHAR jisx0208_252F
ENCODING 9519
SWIDTH 960 0
DWIDTH 10 0
BBX 10 10 0 -2
BITMAP
0000
1D80
0FC0
1980
3180
0300
0600
0C00
3800
0000
ENDCHAR

STARTCHAR jisx0208_2530
ENCODING 9520
SWIDTH 960 0
DWIDTH 10 0
BBX 10 10 0 -2
BITMAP
0000
1DC0
0F80
1980
3180
0300
0600
0C00
3800
0000
ENDCHAR

STARTCHAR jisx0208_2531
ENCODING 9521
SWIDTH 960 0
DWIDTH 10 0
BBX 10 10 0 -2
BITMAP
0000
3800
1980
3FC0
6600
0600
0600
0C00
3800
0000
ENDCHAR

STARTCHAR jisx0208_2532
ENCODING 9522
SWIDTH 960 0
DWIDTH 10 0
BBX 10 10 0 -2
BITMAP
0000
39C0
1800
3FC0
6600
0600
0600
0C00
3800
0000
ENDCHAR

STARTCHAR jisx0208_2533
ENCODING 9523
SWIDTH 960 0
DWIDTH 10 0
BBX 10 10 0 -2
BITMAP
0000
0300
7F80
0300
0300
0300
0300
7F80
0000
0000
ENDCHAR

STARTCHAR jisx0208_2534
ENCODING 9524
SWIDTH 960 0
DWIDTH 10 0
BBX 10 10 0 -2
BITMAP
0000
01C0
7F80
0300
0300
0300
0300
7F80
0000
0000
ENDCHAR

STARTCHAR jisx0208_2535
ENCODING 9525
SWIDTH 960 0
DWIDTH 10 0
BBX 10 10 0 -2
BITMAP
0000
3700
1B00
7FC0
1B00
1B00
0300
0600
1C00
0000
ENDCHAR

STARTCHAR jisx0208_2536
ENCODING 9526
SWIDTH 960 0
DWIDTH 10 0
BBX 10 10 0 -2
BITMAP
0000
37C0
1B00
7FC0
1B00
1B00
0300
0600
1C00
0000
ENDCHAR

STARTCHAR jisx0208_2537
ENCODING 9527
SWIDTH 960 0
DWIDTH 10 0
BBX 10 10 0 -2
BITMAP
0000
3000
1800
60C0
3180
0300
0600
2C00
3800
0000
ENDCHAR

STARTCHAR jisx0208_2538
ENCODING 9528
SWIDTH 960 0
DWIDTH 10 0
BBX 10 10 0 -2
BITMAP
0000
31C0
1800
60C0
3180
0300
0600
2C00
3800
0000
ENDCHAR

STARTCHAR jisx0208_2539
ENCODING 9529
SWIDTH 960 0
DWIDTH 10 0
BBX 10 10 0 -2
BITMAP
0000
0300
3F80
0300
0300
0600
0B00
1980
70C0
0000
ENDCHAR

STARTCHAR jisx0208_253A
ENCODING 9530
SWIDTH 960 0
DWIDTH 10 0
BBX 10 10 0 -2
BITMAP
0000
01C0
3F80
0300
0300
0600
0B00
1980
70C0
0000
ENDCHAR

STARTCHAR jisx0208_253B
ENCODING 9531
SWIDTH 960 0
DWIDTH 10 0
BBX 10 10 0 -2
BITMAP
0000
3800
1980
1FC0
7980
1B00
1800
1800
1F80
0000
ENDCHAR

STARTCHAR jisx0208_253C
ENCODING 9532
SWIDTH 960 0
DWIDTH 10 0
BBX 10 10 0 -2
BITMAP
0000
39C0
1800
1FC0
7980
1B00
1800
1800
1F80
0000
ENDCHAR

STARTCHAR jisx0208_253D
ENCODING 9533
SWIDTH 960 0
DWIDTH 10 0
BBX 10 10 0 -2
BITMAP
0000
0000
6380
3180
3180
0300
0300
0600
1C00
0000
ENDCHAR

STARTCHAR jisx0208_253E
ENCODING 9534
SWIDTH 960 0
DWIDTH 10 0
BBX 10 10 0 -2
BITMAP
0000
01C0
6380
3180
3180
0300
0300
0600
1C00
0000
ENDCHAR

STARTCHAR jisx0208_253F
ENCODING 9535
SWIDTH 960 0
DWIDTH 10 0
BBX 10 10 0 -2
BITMAP
0000
1D80
0FC0
1980
3180
0B00
0600
0B00
3800
0000
ENDCHAR

STARTCHAR jisx0208_2540
ENCODING 9536
SWIDTH 960 0
DWIDTH 10 0
BBX 10 10 0 -2
BITMAP
0000
1DC0
0F80
1980
3180
0B00
0600
0B00
3800
0000
ENDCHAR

STARTCHAR jisx0208_2541
ENCODING 9537
SWIDTH 960 0
DWIDTH 10 0
BBX 10 10 0 -2
BITMAP
0000
0380
3E00
0600
7FC0
0600
0600
0C00
3800
0000
ENDCHAR

STARTCHAR jisx0208_2542
ENCODING 9538
SWIDTH 960 0
DWIDTH 10 0
BBX 10 10 0 -2
BITMAP
0000
0380
3DC0
0600
7FC0
0600
0600
0C00
3800
0000
ENDCHAR

STARTCHAR jisx0208_2543
ENCODING 9539
SWIDTH 960 0
DWIDTH 10 0
BBX 10 10 0 -2
BITMAP
0000
0000
0000
0000
2B00
2B00
0300
0600
1C00
0000
ENDCHAR

STARTCHAR jisx0208_2544
ENCODING 9540
SWIDTH 960 0
DWIDTH 10 0
BBX 10 10 0 -2
BITMAP
0000
1800
6DC0
2CC0
3180
0180
0300
0600
1C00
0000
ENDCHAR

STARTCHAR jisx0208_2545
ENCODING 9541
SWIDTH 960 0
DWIDTH 10 0
BBX 10 10 0 -2
BITMAP
0000
19C0
6C00
2CC0
30C0
0180
0300
0600
1C00
0000
ENDCHAR

STARTCHAR jisx0208_2546
ENCODING 9542
SWIDTH 960 0
DWIDTH 10 0
BBX 10 10 0 -2
BITMAP
0000
0000
3F80
0000
7FC0
0600
0600
0C00
3800
0000
ENDCHAR

STARTCHAR jisx0208_2547
ENCODING 9543
SWIDTH 960 0
DWIDTH 10 0
BBX 10 10 0 -2
BITMAP
0000
01C0
3F00
0000
7FC0
0600
0600
0C00
3800
0000
ENDCHAR

STARTCHAR jisx0208_2548
ENCODING 9544
SWIDTH 960 0
DWIDTH 10 0
BBX 10 10 0 -2
BITMAP
0000
3800
1800
1800
1E00
1B00
1800
1800
1800
0000
ENDCHAR

STARTCHAR jisx0208_2549
ENCODING 9545
SWIDTH 960 0
DWIDTH 10 0
BBX 10 10 0 -2
BITMAP
0000
3B80
1800
1800
1E00
1B00
1800
1800
1800
0000
ENDCHAR

STARTCHAR jisx0208_254A
ENCODING 9546
SWIDTH 960 0
DWIDTH 10 0
BBX 10 10 0 -2
BITMAP
0000
0E00
0600
7FC0
0600
0600
0600
0C00
3800
0000
ENDCHAR

STARTCHAR jisx0208_254B
ENCODING 9547
SWIDTH 960 0
DWIDTH 10 0
BBX 10 10 0 -2
BITMAP
0000
0000
1F00
0000
0000
0000
6180
3FC0
0000
0000
ENDCHAR

STARTCHAR jisx0208_254C
ENCODING 9548
SWIDTH 960 0
DWIDTH 10 0
BBX 10 10 0 -2
BITMAP
0000
0180
1FC0
0180
1D80
0700
0700
0D80
3800
0000
ENDCHAR

STARTCHAR jisx0208_254D
ENCODING 9549
SWIDTH 960 0
DWIDTH 10 0
BBX 10 10 0 -2
BITMAP
0000
1C00
0600
3F00
0600
1B80
6CC0
0C00
0C00
0000
ENDCHAR

STARTCHAR jisx0208_254E
ENCODING 9550
SWIDTH 960 0
DWIDTH 10 0
BBX 10 10 0 -2
BITMAP
0000
0000
0380
0180
0300
0300
0600
0C00
3800
0000
ENDCHAR

STARTCHAR jisx0208_254F
ENCODING 9551
SWIDTH 960 0
DWIDTH 10 0
BBX 10 10 0 -2
BITMAP
0000
0000
3B00
1980
1980
30C0
30C0
60C0
0000
0000
ENDCHAR

STARTCHAR jisx0208_2550
ENCODING 9552
SWIDTH 960 0
DWIDTH 10 0
BBX 10 10 0 -2
BITMAP
0000
01C0
3B00
1980
1980
30C0
30C0
60C0
0000
0000
ENDCHAR

STARTCHAR jisx0208_2551
ENCODING 9553
SWIDTH 960 0
DWIDTH 10 0
BBX 10 10 0 -2
BITMAP
0000
01C0
3BC0
1980
1980
30C0
30C0
60C0
0000
0000
ENDCHAR

STARTCHAR jisx0208_2552
ENCODING 9554
SWIDTH 960 0
DWIDTH 10 0
BBX 10 10 0 -2
BITMAP
0000
7000
3000
3380
3E00
3000
3000
3000
3F80
0000
ENDCHAR

STARTCHAR jisx0208_2553
ENCODING 9555
SWIDTH 960 0
DWIDTH 10 0
BBX 10 10 0 -2
BITMAP
0000
71C0
3000
3380
3E00
3000
3000
3000
3F80
0000
ENDCHAR

STARTCHAR jisx0208_2554
ENCODING 9556
SWIDTH 960 0
DWIDTH 10 0
BBX 10 10 0 -2
BITMAP
0000
71C0
31C0
3380
3E00
3000
3000
3000
3F80
0000
ENDCHAR

STARTCHAR jisx0208_2555
ENCODING 9557
SWIDTH 960 0
DWIDTH 10 0
BBX 10 10 0 -2
BITMAP
0000
0180
7FC0
0180
0180
0180
0300
0600
1C00
0000
ENDCHAR

STARTCHAR jisx0208_2556
ENCODING 9558
SWIDTH 960 0
DWIDTH 10 0
BBX 10 10 0 -2
BITMAP
0000
01C0
7F80
0180
0180
0180
0300
0600
1C00
0000
ENDCHAR

STARTCHAR jisx0208_2557
ENCODING 9559
SWIDTH 960 0
DWIDTH 10 0
BBX 10 10 0 -2
BITMAP
0000
01C0
7FC0
0180
0180
0180
0300
0600
1C00
0000
ENDCHAR

STARTCHAR jisx0208_2558
ENCODING 9560
SWIDTH 960 0
DWIDTH 10 0
BBX 10 10 0 -2
BITMAP
0000
0000
0000
0C00
5600
7300
0180
00C0
0000
0000
ENDCHAR

STARTCHAR jisx0208_2559
ENCODING 9561
SWIDTH 960 0
DWIDTH 10 0
BBX 10 10 0 -2
BITMAP
0000
0000
0000
0DC0
5600
7300
0180
00C0
0000
0000
ENDCHAR

STARTCHAR jisx0208_255A
ENCODING 9562
SWIDTH 960 0
DWIDTH 10 0
BBX 10 10 0 -2
BITMAP
0000
0000
01C0
0DC0
5600
7300
0180
00C0
0000
0000
ENDCHAR

STARTCHAR jisx0208_255B
ENCODING 9563
SWIDTH 960 0
DWIDTH 10 0
BBX 10 10 0 -2
BITMAP
0000
0E00
0600
7FC0
0600
3580
36C0
56C0
0E00
0000
ENDCHAR

STARTCHAR jisx0208_255C
ENCODING 9564
SWIDTH 960 0
DWIDTH 10 0
BBX 10 10 0 -2
BITMAP
0000
0DC0
0600
7FC0
0600
3580
36C0
56C0
0E00
0000
ENDCHAR

STARTCHAR jisx0208_255D
ENCODING 9565
SWIDTH 960 0
DWIDTH 10 0
BBX 10 10 0 -2
BITMAP
0000
0DC0
05C0
7FC0
0600
3580
36C0
56C0
0E00
0000
ENDCHAR

STARTCHAR jisx0208_255E
ENCODING 9566
SWIDTH 960 0
DWIDTH 10 0
BBX 10 10 0 -2
BITMAP
0000
0180
7FC0
0180
0300
1600
0C00
0600
0600
0000
ENDCHAR

STARTCHAR jisx0208_255F
ENCODING 9567
SWIDTH 960 0
DWIDTH 10 0
BBX 10 10 0 -2
BITMAP
0000
1E00
0300
0000
1E00
0300
0000
3E00
0380
0000
ENDCHAR

STARTCHAR jisx0208_2560
ENCODING 9568
SWIDTH 960 0
DWIDTH 10 0
BBX 10 10 0 -2
BITMAP
0000
0C00
0600
0C00
0C00
1B00
1980
37C0
7CC0
0000
ENDCHAR

STARTCHAR jisx0208_2561
ENCODING 9569
SWIDTH 960 0
DWIDTH 10 0
BBX 10 10 0 -2
BITMAP
0000
0000
0380
0180
1B00
0600
0B00
1980
7000
0000
ENDCHAR

STARTCHAR jisx0208_2562
ENCODING 9570
SWIDTH 960 0
DWIDTH 10 0
BBX 10 10 0 -2
BITMAP
0000
0000
7F00
1800
1800
7F80
1800
1800
1F80
0000
ENDCHAR

STARTCHAR jisx0208_2563
ENCODING 9571
SWIDTH 960 0
DWIDTH 10 0
BBX 10 10 0 -2
BITMAP
0000
0000
0000
1800
1F80
3980
0B00
0C00
0C00
0000
ENDCHAR

STARTCHAR jisx0208_2564
ENCODING 9572
SWIDTH 960 0
DWIDTH 10 0
BBX 10 10 0 -2
BITMAP
0000
3800
1980
1FC0
7980
1B00
0C00
0C00
0C00
0000
ENDCHAR

STARTCHAR jisx0208_2565
ENCODING 9573
SWIDTH 960 0
DWIDTH 10 0
BBX 10 10 0 -2
BITMAP
0000
0000
0000
0000
3E00
0600
0600
0600
7F80
0000
ENDCHAR

STARTCHAR jisx0208_2566
ENCODING 9574
SWIDTH 960 0
DWIDTH 10 0
BBX 10 10 0 -2
BITMAP
0000
0300
3F80
0300
0300
0300
62C0
3FC0
0000
0000
ENDCHAR

STARTCHAR jisx0208_2567
ENCODING 9575
SWIDTH 960 0
DWIDTH 10 0
BBX 10 10 0 -2
BITMAP
0000
0000
0000
0000
3F00
0300
3F00
0300
3F00
0000
ENDCHAR

STARTCHAR jisx0208_2568
ENCODING 9576
SWIDTH 960 0
DWIDTH 10 0
BBX 10 10 0 -2
BITMAP
0000
0300
7F80
0300
7F00
0300
0300
7F80
0000
0000
ENDCHAR

STARTCHAR jisx0208_2569
ENCODING 9577
SWIDTH 960 0
DWIDTH 10 0
BBX 10 10 0 -2
BITMAP
0000
3F00
0180
7FC0
0180
0180
0300
0600
1C00
0000
ENDCHAR

STARTCHAR jisx0208_256A
ENCODING 9578
SWIDTH 960 0
DWIDTH 10 0
BBX 10 10 0 -2
BITMAP
0000
7700
3300
3300
3300
3300
0300
0600
1C00
0000
ENDCHAR

STARTCHAR jisx0208_256B
ENCODING 9579
SWIDTH 960 0
DWIDTH 10 0
BBX 10 10 0 -2
BITMAP
0000
0E00
7600
3600
3600
36C0
3580
6700
6600
0000
ENDCHAR

STARTCHAR jisx0208_256C
ENCODING 9580
SWIDTH 960 0
DWIDTH 10 0
BBX 10 10 0 -2
BITMAP
0000
7000
3000
3000
3000
3180
3300
2E00
3800
0000
ENDCHAR

STARTCHAR jisx0208_256D
ENCODING 9581
SWIDTH 960 0
DWIDTH 10 0
BBX 10 10 0 -2
BITMAP
0000
3180
3FC0
3180
3180
3180
3180
3FC0
3000
0000
ENDCHAR

STARTCHAR jisx0208_256E
ENCODING 9582
SWIDTH 960 0
DWIDTH 10 0
BBX 10 10 0 -2
BITMAP
0000
0000
0000
3300
3F80
3300
3300
0600
1C00
0000
ENDCHAR

STARTCHAR jisx0208_256F
ENCODING 9583
SWIDTH 960 0
DWIDTH 10 0
BBX 10 10 0 -2
BITMAP
0000
7180
3FC0
3180
3180
3180
0300
0600
1C00
0000
ENDCHAR

STARTCHAR jisx0208_2570
ENCODING 9584
SWIDTH 960 0
DWIDTH 10 0
BBX 10 10 0 -2
BITMAP
0000
0E00
0600
7F80
3600
3600
7FC0
0600
0600
0000
ENDCHAR

STARTCHAR jisx0208_2571
ENCODING 9585
SWIDTH 960 0
DWIDTH 10 0
BBX 10 10 0 -2
BITMAP
0000
0300
3F80
0300
0E00
0C00
6D80
3FC0
0000
0000
ENDCHAR

STARTCHAR jisx0208_2572
ENCODING 9586
SWIDTH 960 0
DWIDTH 10 0
BBX 10 10 0 -2
BITMAP
0000
0180
3FC0
0180
3F80
0180
0300
0600
1C00
0000
ENDCHAR

STARTCHAR jisx0208_2573
ENCODING 9587
SWIDTH 960 0
DWIDTH 10 0
BBX 10 10 0 -2
BITMAP
0000
0000
7000
18C0
0180
0300
0600
2C00
3800
0000
ENDCHAR

STARTCHAR jisx0208_2574
ENCODING 9588
SWIDTH 960 0
DWIDTH 10 0
BBX 10 10 0 -2
BITMAP
0000
0DC0
2D80
3F80
3180
3180
0300
0600
1C00
0000
ENDCHAR

STARTCHAR jisx0208_2575
ENCODING 9589
SWIDTH 960 0
DWIDTH 10 0
BBX 10 10 0 -2
BITMAP
0000
0000
0000
1800
3F00
1B00
1B00
2F00
3600
0000
ENDCHAR

STARTCHAR jisx0208_2576
ENCODING 9590
SWIDTH 960 0
DWIDTH 10 0
BBX 10 10 0 -2
BITMAP
0000
0000
0000
3800
1F80
3600
3600
0600
1C00
0000
ENDCHAR

STARTCHAR jisx0208_2621
ENCODING 9761
SWIDTH 960 0
DWIDTH 10 0
BBX 10 10 0 -2
BITMAP
0000
0000
0C00
1600
1600
3F00
3300
7780
0000
0000
ENDCHAR

STARTCHAR jisx0208_2622
ENCODING 9762
SWIDTH 960 0
DWIDTH 10 0
BBX 10 10 0 -2
BITMAP
0000
0000
3E00
1B00
1F00
1980
1980
3F00
0000
0000
ENDCHAR

STARTCHAR jisx0208_2623
ENCODING 9763
SWIDTH 960 0
DWIDTH 10 0
BBX 10 10 0 -2
BITMAP
0000
0000
3F00
1B00
1800
1800
1800
3C00
0000
0000
ENDCHAR

STARTCHAR jisx0208_2624
ENCODING 9764
SWIDTH 960 0
DWIDTH 10 0
BBX 10 10 0 -2
BITMAP
0000
0000
0C00
1600
1600
3300
3300
7F80
0000
0000
ENDCHAR

STARTCHAR jisx0208_2625
ENCODING 9765
SWIDTH 960 0
DWIDTH 10 0
BBX 10 10 0 -2
BITMAP
0000
0000
3F00
1B00
1E00
1800
1B00
3F00
0000
0000
ENDCHAR

STARTCHAR jisx0208_2626
ENCODING 9766
SWIDTH 960 0
DWIDTH 10 0
BBX 10 10 0 -2
BITMAP
0000
0000
3F00
3600
0C00
1800
3300
3F00
0000
0000
ENDCHAR

STARTCHAR jisx0208_2627
ENCODING 9767
SWIDTH 960 0
DWIDTH 10 0
BBX 10 10 0 -2
BITMAP
0000
0000
3780
1B00
1F00
1B00
1B00
3780
0000
0000
ENDCHAR

STARTCHAR jisx0208_2628
ENCODING 9768
SWIDTH 960 0
DWIDTH 10 0
BBX 10 10 0 -2
BITMAP
0000
0000
1F00
3180
2D80
3180
3180
1F00
0000
0000
ENDCHAR

STARTCHAR jisx0208_2629
ENCODING 9769
SWIDTH 960 0
DWIDTH 10 0
BBX 10 10 0 -2
BITMAP
0000
0000
1E00
0C00
0C00
0C00
0C00
1E00
0000
0000
ENDCHAR

STARTCHAR jisx0208_262A
ENCODING 9770
SWIDTH 960 0
DWIDTH 10 0
BBX 10 10 0 -2
BITMAP
0000
0000
3B80
1B00
1600
1B00
1B00
3B80
0000
0000
ENDCHAR

STARTCHAR jisx0208_262B
ENCODING 9771
SWIDTH 960 0
DWIDTH 10 0
BBX 10 10 0 -2
BITMAP
0000
0000
0C00
1600
1600
3300
3300
7780
0000
0000
ENDCHAR

STARTCHAR jisx0208_262C
ENCODING 9772
SWIDTH 960 0
DWIDTH 10 0
BBX 10 10 0 -2
BITMAP
0000
0000
7380
3300
3700
3700
2B00
6B80
0000
0000
ENDCHAR

STARTCHAR jisx0208_262D
ENCODING 9773
SWIDTH 960 0
DWIDTH 10 0
BBX 10 10 0 -2
BITMAP
0000
0000
3780
1B00
1B00
1700
1B00
3B00
0000
0000
ENDCHAR

STARTCHAR jisx0208_262E
ENCODING 9774
SWIDTH 960 0
DWIDTH 10 0
BBX 10 10 0 -2
BITMAP
0000
0000
3F00
3300
1E00
0000
3300
3F00
0000
0000
ENDCHAR

STARTCHAR jisx0208_262F
ENCODING 9775
SWIDTH 960 0
DWIDTH 10 0
BBX 10 10 0 -2
BITMAP
0000
0000
1F00
3180
3180
3180
3180
1F00
0000
0000
ENDCHAR

STARTCHAR jisx0208_2630
ENCODING 9776
SWIDTH 960 0
DWIDTH 10 0
BBX 10 10 0 -2
BITMAP
0000
0000
3F80
1B00
1B00
1B00
1B00
3780
0000
0000
ENDCHAR

STARTCHAR jisx0208_2631
ENCODING 9777
SWIDTH 960 0
DWIDTH 10 0
BBX 10 10 0 -2
BITMAP
0000
0000
3F00
1980
1980
1F00
1800
3C00
0000
0000
ENDCHAR

STARTCHAR jisx0208_2632
ENCODING 9778
SWIDTH 960 0
DWIDTH 10 0
BBX 10 10 0 -2
BITMAP
0000
0000
3F00
1B00
0C00
0C00
1B00
3F00
0000
0000
ENDCHAR

STARTCHAR jisx0208_2633
ENCODING 9779
SWIDTH 960 0
DWIDTH 10 0
BBX 10 10 0 -2
BITMAP
0000
0000
3F00
2B00
0C00
0C00
0C00
1E00
0000
0000
ENDCHAR

STARTCHAR jisx0208_2634
ENCODING 9780
SWIDTH 960 0
DWIDTH 10 0
BBX 10 10 0 -2
BITMAP
0000
0000
1600
2B00
0C00
0C00
0C00
1E00
0000
0000
ENDCHAR

STARTCHAR jisx0208_2635
ENCODING 9781
SWIDTH 960 0
DWIDTH 10 0
BBX 10 10 0 -2
BITMAP
0000
0000
0C00
1E00
2B00
2B00
1E00
0C00
0000
0000
ENDCHAR

STARTCHAR jisx0208_2636
ENCODING 9782
SWIDTH 960 0
DWIDTH 10 0
BBX 10 10 0 -2
BITMAP
0000
0000
3700
1600
0C00
0C00
1600
3700
0000
0000
ENDCHAR

STARTCHAR jisx0208_2637
ENCODING 9783
SWIDTH 960 0
DWIDTH 10 0
BBX 10 10 0 -2
BITMAP
0000
0000
6B80
2B00
2B00
1E00
0C00
1E00
0000
0000
ENDCHAR

STARTCHAR jisx0208_2638
ENCODING 9784
SWIDTH 960 0
DWIDTH 10 0
BBX 10 10 0 -2
BITMAP
0000
0000
1E00
3300
3300
3300
1600
3700
0000
0000
ENDCHAR

STARTCHAR jisx0208_2641
ENCODING 9793
SWIDTH 960 0
DWIDTH 10 0
BBX 10 10 0 -2
BITMAP
0000
0000
0000
0D80
1B80
3300
3700
1B80
0000
0000
ENDCHAR

STARTCHAR jisx0208_2642
ENCODING 9794
SWIDTH 960 0
DWIDTH 10 0
BBX 10 10 0 -2
BITMAP
0000
0000
0700
0D80
0B00
1980
1D80
1700
3C00
0000
ENDCHAR

STARTCHAR jisx0208_2643
ENCODING 9795
SWIDTH 960 0
DWIDTH 10 0
BBX 10 10 0 -2
BITMAP
0000
0000
0000
1B80
3600
0600
0C00
0C00
1E00
0000
ENDCHAR

STARTCHAR jisx0208_2644
ENCODING 9796
SWIDTH 960 0
DWIDTH 10 0
BBX 10 10 0 -2
BITMAP
0000
0000
0F80
0E00
1B00
3300
3600
1C00
0000
0000
ENDCHAR

STARTCHAR jisx0208_2645
ENCODING 9797
SWIDTH 960 0
DWIDTH 10 0
BBX 10 10 0 -2
BITMAP
0000
0000
0000
0F00
1B00
1C00
3300
1E00
0000
0000
ENDCHAR

STARTCHAR jisx0208_2646
ENCODING 9798
SWIDTH 960 0
DWIDTH 10 0
BBX 10 10 0 -2
BITMAP
0000
0000
0B00
0600
0C00
1800
1E00
0300
0E00
0000
ENDCHAR

STARTCHAR jisx0208_2647
ENCODING 9799
SWIDTH 960 0
DWIDTH 10 0
BBX 10 10 0 -2
BITMAP
0000
0000
0000
1700
2D80
0D80
1B00
3B00
0780
0000
ENDCHAR

STARTCHAR jisx0208_2648
ENCODING 9800
SWIDTH 960 0
DWIDTH 10 0
BBX 10 10 0 -2
BITMAP
0000
0000
0E00
1B00
3F00
3300
3600
1C00
0000
0000
ENDCHAR

STARTCHAR jisx0208_2649
ENCODING 9801
SWIDTH 960 0
DWIDTH 10 0
BBX 10 10 0 -2
BITMAP
0000
0000
0000
0E00
0600
0C00
0B00
0E00
0000
0000
ENDCHAR

STARTCHAR jisx0208_264A
ENCODING 9802
SWIDTH 960 0
DWIDTH 10 0
BBX 10 10 0 -2
BITMAP
0000
0000
0000
3B80
1580
1E00
3580
7700
0000
0000
ENDCHAR

STARTCHAR jisx0208_264B
ENCODING 9803
SWIDTH 960 0
DWIDTH 10 0
BBX 10 10 0 -2
BITMAP
0000
0000
1C00
0600
0E00
1600
1580
3700
0000
0000
ENDCHAR

STARTCHAR jisx0208_264C
ENCODING 9804
SWIDTH 960 0
DWIDTH 10 0
BBX 10 10 0 -2
BITMAP
0000
0000
0000
1B00
1B00
3600
3580
3F00
7000
0000
ENDCHAR

STARTCHAR jisx0208_264D
ENCODING 9805
SWIDTH 960 0
DWIDTH 10 0
BBX 10 10 0 -2
BITMAP
0000
0000
0000
3700
1B00
1600
1C00
1800
0000
0000
ENDCHAR

STARTCHAR jisx0208_264E
ENCODING 9806
SWIDTH 960 0
DWIDTH 10 0
BBX 10 10 0 -2
BITMAP
0000
0000
1F00
0C00
0F00
1800
1E00
0300
0E00
0000
ENDCHAR

STARTCHAR jisx0208_264F
ENCODING 9807
SWIDTH 960 0
DWIDTH 10 0
BBX 10 10 0 -2
BITMAP
0000
0000
0000
0E00
1B00
3300
3600
1C00
0000
0000
ENDCHAR

STARTCHAR jisx0208_2650
ENCODING 9808
SWIDTH 960 0
DWIDTH 10 0
BBX 10 10 0 -2
BITMAP
0000
0000
0000
1FC0
2B00
0B00
1580
3700
0000
0000
ENDCHAR

STARTCHAR jisx0208_2651
ENCODING 9809
SWIDTH 960 0
DWIDTH 10 0
BBX 10 10 0 -2
BITMAP
0000
0000
0000
0700
0D80
1980
1D80
1700
3C00
0000
ENDCHAR

STARTCHAR jisx0208_2652
ENCODING 9810
SWIDTH 960 0
DWIDTH 10 0
BBX 10 10 0 -2
BITMAP
0000
0000
0000
0F80
1B00
3300
3600
1C00
0000
0000
ENDCHAR

STARTCHAR jisx0208_2653
ENCODING 9811
SWIDTH 960 0
DWIDTH 10 0
BBX 10 10 0 -2
BITMAP
0000
0000
0000
1F00
2C00
0C00
1600
1C00
0000
0000
ENDCHAR

STARTCHAR jisx0208_2654
ENCODING 9812
SWIDTH 960 0
DWIDTH 10 0
BBX 10 10 0 -2
BITMAP
0000
0000
0000
3600
1B00
3300
3600
1C00
0000
0000
ENDCHAR

STARTCHAR jisx0208_2655
ENCODING 9813
SWIDTH 960 0
DWIDTH 10 0
BBX 10 10 0 -2
BITMAP
0000
0000
0600
1E00
2B00
2B00
1E00
0C00
1E00
0000
ENDCHAR

STARTCHAR jisx0208_2656
ENCODING 9814
SWIDTH 960 0
DWIDTH 10 0
BBX 10 10 0 -2
BITMAP
0000
0000
0000
3B80
2B00
0E00
0E00
1580
3700
0000
ENDCHAR

STARTCHAR jisx0208_2657
ENCODING 9815
SWIDTH 960 0
DWIDTH 10 0
BBX 10 10 0 -2
BITMAP
0000
0000
0000
3580
1580
3580
1F00
0C00
1E00
0000
ENDCHAR

STARTCHAR jisx0208_2658
ENCODING 9816
SWIDTH 960 0
DWIDTH 10 0
BBX 10 10 0 -2
BITMAP
0000
0000
0000
0B00
1980
3580
3580
1F00
0000
0000
ENDCHAR

STARTCHAR jisx0208_2721
ENCODING 10017
SWIDTH 960 0
DWIDTH 10 0
BBX 10 10 0 -2
BITMAP
0000
0000
0C00
1600
1600
3F00
3300
7780
0000
0000
ENDCHAR

STARTCHAR jisx0208_2722
ENCODING 10018
SWIDTH 960 0
DWIDTH 10 0
BBX 10 10 0 -2
BITMAP
0000
0000
3F00
1800
1F00
1980
1980
3F00
0000
0000
ENDCHAR

STARTCHAR jisx0208_2723
ENCODING 10019
SWIDTH 960 0
DWIDTH 10 0
BBX 10 10 0 -2
BITMAP
0000
0000
3E00
1B00
1F00
1980
1980
3F00
0000
0000
ENDCHAR

STARTCHAR jisx0208_2724
ENCODING 10020
SWIDTH 960 0
DWIDTH 10 0
BBX 10 10 0 -2
BITMAP
0000
0000
3F00
1B00
1800
1800
1800
3C00
0000
0000
ENDCHAR

STARTCHAR jisx0208_2725
ENCODING 10021
SWIDTH 960 0
DWIDTH 10 0
BBX 10 10 0 -2
BITMAP
0000
0000
1F80
0B00
0B00
0B00
1B00
3F80
3180
0000
ENDCHAR

STARTCHAR jisx0208_2726
ENCODING 10022
SWIDTH 960 0
DWIDTH 10 0
BBX 10 10 0 -2
BITMAP
0000
0000
3F00
1B00
1E00
1800
1B00
3F00
0000
0000
ENDCHAR

STARTCHAR jisx0208_2727
ENCODING 10023
SWIDTH 960 0
DWIDTH 10 0
BBX 10 10 0 -2
BITMAP
0000
1600
3F00
1B00
1E00
1800
1B00
3F00
0000
0000
ENDCHAR

STARTCHAR jisx0208_2728
ENCODING 10024
SWIDTH 960 0
DWIDTH 10 0
BBX 10 10 0 -2
BITMAP
0000
0000
6B80
2B00
1E00
2B00
2B00
6B80
0000
0000
ENDCHAR

STARTCHAR jisx0208_2729
ENCODING 10025
SWIDTH 960 0
DWIDTH 10 0
BBX 10 10 0 -2
BITMAP
0000
0000
3E00
3300
0E00
0300
3300
1E00
0000
0000
ENDCHAR

STARTCHAR jisx0208_272A
ENCODING 10026
SWIDTH 960 0
DWIDTH 10 0
BBX 10 10 0 -2
BITMAP
0000
0000
3B80
1B00
1700
1B00
1B00
3B80
0000
0000
ENDCHAR

STARTCHAR jisx0208_272B
ENCODING 10027
SWIDTH 960 0
DWIDTH 10 0
BBX 10 10 0 -2
BITMAP
0000
1B00
0E00
3B80
1700
1B00
1B00
3780
0000
0000
ENDCHAR

STARTCHAR jisx0208_272C
ENCODING 10028
SWIDTH 960 0
DWIDTH 10 0
BBX 10 10 0 -2
BITMAP
0000
0000
3780
1B00
1E00
1600
1B00
3780
0000
0000
ENDCHAR

STARTCHAR jisx0208_272D
ENCODING 10029
SWIDTH 960 0
DWIDTH 10 0
BBX 10 10 0 -2
BITMAP
0000
0000
1F80
0B00
0B00
0B00
2B00
3780
0000
0000
ENDCHAR

STARTCHAR jisx0208_272E
ENCODING 10030
SWIDTH 960 0
DWIDTH 10 0
BBX 10 10 0 -2
BITMAP
0000
0000
7380
3300
3700
3700
2B00
6B80
0000
0000
ENDCHAR

STARTCHAR jisx0208_272F
ENCODING 10031
SWIDTH 960 0
DWIDTH 10 0
BBX 10 10 0 -2
BITMAP
0000
0000
3780
1B00
1F00
1B00
1B00
3780
0000
0000
ENDCHAR

STARTCHAR jisx0208_2730
ENCODING 10032
SWIDTH 960 0
DWIDTH 10 0
BBX 10 10 0 -2
BITMAP
0000
0000
1F00
3180
3180
3180
3180
1F00
0000
0000
ENDCHAR

STARTCHAR jisx0208_2731
ENCODING 10033
SWIDTH 960 0
DWIDTH 10 0
BBX 10 10 0 -2
BITMAP
0000
0000
3F80
1B00
1B00
1B00
1B00
3B80
0000
0000
ENDCHAR

STARTCHAR jisx0208_2732
ENCODING 10034
SWIDTH 960 0
DWIDTH 10 0
BBX 10 10 0 -2
BITMAP
0000
0000
3F00
1980
1980
1F00
1800
3C00
0000
0000
ENDCHAR

STARTCHAR jisx0208_2733
ENCODING 10035
SWIDTH 960 0
DWIDTH 10 0
BBX 10 10 0 -2
BITMAP
0000
0000
1F00
3300
3000
3000
3300
1E00
0000
0000
ENDCHAR

STARTCHAR jisx0208_2734
ENCODING 10036
SWIDTH 960 0
DWIDTH 10 0
BBX 10 10 0 -2
BITMAP
0000
0000
3F00
2B00
0C00
0C00
0C00
1E00
0000
0000
ENDCHAR

STARTCHAR jisx0208_2735
ENCODING 10037
SWIDTH 960 0
DWIDTH 10 0
BBX 10 10 0 -2
BITMAP
0000
0000
1B80
0B00
0B00
0600
1600
1C00
0000
0000
ENDCHAR

STARTCHAR jisx0208_2736
ENCODING 10038
SWIDTH 960 0
DWIDTH 10 0
BBX 10 10 0 -2
BITMAP
0000
0000
0C00
1E00
2B00
2B00
1E00
0C00
0000
0000
ENDCHAR

STARTCHAR jisx0208_2737
ENCODING 10039
SWIDTH 960 0
DWIDTH 10 0
BBX 10 10 0 -2
BITMAP
0000
0000
3700
1600
0C00
0C00
1600
3700
0000
0000
ENDCHAR

STARTCHAR jisx0208_2738
ENCODING 10040
SWIDTH 960 0
DWIDTH 10 0
BBX 10 10 0 -2
BITMAP
0000
0000
3780
1B00
1B00
1B00
1B00
3F80
0180
0000
ENDCHAR

STARTCHAR jisx0208_2739
ENCODING 10041
SWIDTH 960 0
DWIDTH 10 0
BBX 10 10 0 -2
BITMAP
0000
0000
3780
1B00
1B00
0F00
0300
0780
0000
0000
ENDCHAR

STARTCHAR jisx0208_273A
ENCODING 10042
SWIDTH 960 0
DWIDTH 10 0
BBX 10 10 0 -2
BITMAP
0000
0000
6B80
2B00
2B00
2B00
2B00
7F80
0000
0000
ENDCHAR

STARTCHAR jisx0208_273B
ENCODING 10043
SWIDTH 960 0
DWIDTH 10 0
BBX 10 10 0 -2
BITMAP
0000
0000
6B80
2B00
2B00
2B00
2B00
7F80
0180
0000
ENDCHAR

STARTCHAR jisx0208_273C
ENCODING 10044
SWIDTH 960 0
DWIDTH 10 0
BBX 10 10 0 -2
BITMAP
0000
0000
7C00
5800
1F00
1980
1980
3F00
0000
0000
ENDCHAR

STARTCHAR jisx0208_273D
ENCODING 10045
SWIDTH 960 0
DWIDTH 10 0
BBX 10 10 0 -2
BITMAP
0000
0000
7BC0
3180
3D80
3580
3580
7BC0
0000
0000
ENDCHAR

STARTCHAR jisx0208_273E
ENCODING 10046
SWIDTH 960 0
DWIDTH 10 0
BBX 10 10 0 -2
BITMAP
0000
0000
3C00
1800
1F00
1980
1980
3F00
0000
0000
ENDCHAR

STARTCHAR jisx0208_273F
ENCODING 10047
SWIDTH 960 0
DWIDTH 10 0
BBX 10 10 0 -2
BITMAP
0000
0000
1F00
3180
0F80
0180
3180
1F00
0000
0000
ENDCHAR

STARTCHAR jisx0208_2740
ENCODING 10048
SWIDTH 960 0
DWIDTH 10 0
BBX 10 10 0 -2
BITMAP
0000
0000
7780
2CC0
3CC0
2CC0
2CC0
7780
0000
0000
ENDCHAR

STARTCHAR jisx0208_2741
ENCODING 10049
SWIDTH 960 0
DWIDTH 10 0
BBX 10 10 0 -2
BITMAP
0000
0000
0F80
1B00
1B00
0F00
1B00
3780
0000
0000
ENDCHAR

STARTCHAR jisx0208_2751
ENCODING 10065
SWIDTH 960 0
DWIDTH 10 0
BBX 10 10 0 -2
BITMAP
0000
0000
0000
1E00
0300
1F00
3300
1F80
0000
0000
ENDCHAR

STARTCHAR jisx0208_2752
ENCODING 10066
SWIDTH 960 0
DWIDTH 10 0
BBX 10 10 0 -2
BITMAP
0000
0000
0F00
1800
1E00
1B00
1B00
0E00
0000
0000
ENDCHAR

STARTCHAR jisx0208_2753
ENCODING 10067
SWIDTH 960 0
DWIDTH 10 0
BBX 10 10 0 -2
BITMAP
0000
0000
0000
3E00
1B00
1E00
1B00
3E00
0000
0000
ENDCHAR

STARTCHAR jisx0208_2754
ENCODING 10068
SWIDTH 960 0
DWIDTH 10 0
BBX 10 10 0 -2
BITMAP
0000
0000
0000
3F00
1B00
1800
1800
3C00
0000
0000
ENDCHAR

STARTCHAR jisx0208_2755
ENCODING 10069
SWIDTH 960 0
DWIDTH 10 0
BBX 10 10 0 -2
BITMAP
0000
0000
0000
1F80
0B00
0B00
1B00
3F80
3180
0000
ENDCHAR

STARTCHAR jisx0208_2756
ENCODING 10070
SWIDTH 960 0
DWIDTH 10 0
BBX 10 10 0 -2
BITMAP
0000
0000
0000
1E00
3300
3F00
3000
1F00
0000
0000
ENDCHAR

STARTCHAR jisx0208_2757
ENCODING 10071
SWIDTH 960 0
DWIDTH 10 0
BBX 10 10 0 -2
BITMAP
0000
1600
0000
1E00
3300
3F00
3000
1F00
0000
0000
ENDCHAR

STARTCHAR jisx0208_2758
ENCODING 10072
SWIDTH 960 0
DWIDTH 10 0
BBX 10 10 0 -2
BITMAP
0000
0000
0000
6B80
2B00
1E00
2B00
6B80
0000
0000
ENDCHAR

STARTCHAR jisx0208_2759
ENCODING 10073
SWIDTH 960 0
DWIDTH 10 0
BBX 10 10 0 -2
BITMAP
0000
0000
0000
3E00
3300
0E00
3300
1E00
0000
0000
ENDCHAR

STARTCHAR jisx0208_275A
ENCODING 10074
SWIDTH 960 0
DWIDTH 10 0
BBX 10 10 0 -2
BITMAP
0000
0000
0000
3B80
1700
1B00
1B00
3B80
0000
0000
ENDCHAR

STARTCHAR jisx0208_275B
ENCODING 10075
SWIDTH 960 0
DWIDTH 10 0
BBX 10 10 0 -2
BITMAP
0000
1600
0C00
3B80
1700
1B00
1B00
3B80
0000
0000
ENDCHAR

STARTCHAR jisx0208_275C
ENCODING 10076
SWIDTH 960 0
DWIDTH 10 0
BBX 10 10 0 -2
BITMAP
0000
0000
0000
3700
1600
1C00
1600
3700
0000
0000
ENDCHAR

STARTCHAR jisx0208_275D
ENCODING 10077
SWIDTH 960 0
DWIDTH 10 0
BBX 10 10 0 -2
BITMAP
0000
0000
0000
1F80
0B00
0B00
2B00
3B80
0000
0000
ENDCHAR

STARTCHAR jisx0208_275E
ENCODING 10078
SWIDTH 960 0
DWIDTH 10 0
BBX 10 10 0 -2
BITMAP
0000
0000
0000
7380
3700
3700
2B00
6B80
0000
0000
ENDCHAR

STARTCHAR jisx0208_275F
ENCODING 10079
SWIDTH 960 0
DWIDTH 10 0
BBX 10 10 0 -2
BITMAP
0000
0000
0000
3780
1B00
1F00
1B00
3780
0000
0000
ENDCHAR

STARTCHAR jisx0208_2760
ENCODING 10080
SWIDTH 960 0
DWIDTH 10 0
BBX 10 10 0 -2
BITMAP
0000
0000
0000
1E00
3300
3300
3300
1E00
0000
0000
ENDCHAR

STARTCHAR jisx0208_2761
ENCODING 10081
SWIDTH 960 0
DWIDTH 10 0
BBX 10 10 0 -2
BITMAP
0000
0000
0000
3F80
1B00
1B00
1B00
3780
0000
0000
ENDCHAR

STARTCHAR jisx0208_2762
ENCODING 10082
SWIDTH 960 0
DWIDTH 10 0
BBX 10 10 0 -2
BITMAP
0000
0000
0000
3E00
1B00
1B00
1E00
1800
3C00
0000
ENDCHAR

STARTCHAR jisx0208_2763
ENCODING 10083
SWIDTH 960 0
DWIDTH 10 0
BBX 10 10 0 -2
BITMAP
0000
0000
0000
1E00
3300
3000
3300
1E00
0000
0000
ENDCHAR

STARTCHAR jisx0208_2764
ENCODING 10084
SWIDTH 960 0
DWIDTH 10 0
BBX 10 10 0 -2
BITMAP
0000
0000
0000
3F00
2B00
0C00
0C00
1E00
0000
0000
ENDCHAR

STARTCHAR jisx0208_2765
ENCODING 10085
SWIDTH 960 0
DWIDTH 10 0
BBX 10 10 0 -2
BITMAP
0000
0000
0000
1B80
0B00
0B00
0600
1600
1C00
0000
ENDCHAR

STARTCHAR jisx0208_2766
ENCODING 10086
SWIDTH 960 0
DWIDTH 10 0
BBX 10 10 0 -2
BITMAP
0000
0000
0C00
2B00
5D80
5D80
2B00
0C00
1E00
0000
ENDCHAR

STARTCHAR jisx0208_2767
ENCODING 10087
SWIDTH 960 0
DWIDTH 10 0
BBX 10 10 0 -2
BITMAP
0000
0000
0000
3700
1600
0C00
1600
3700
0000
0000
ENDCHAR

STARTCHAR jisx0208_2768
ENCODING 10088
SWIDTH 960 0
DWIDTH 10 0
BBX 10 10 0 -2
BITMAP
0000
0000
0000
3780
1B00
1B00
1B00
3F80
0180
0000
ENDCHAR

STARTCHAR jisx0208_2769
ENCODING 10089
SWIDTH 960 0
DWIDTH 10 0
BBX 10 10 0 -2
BITMAP
0000
0000
0000
3780
1B00
1F00
0300
0780
0000
0000
ENDCHAR

STARTCHAR jisx0208_276A
ENCODING 10090
SWIDTH 960 0
DWIDTH 10 0
BBX 10 10 0 -2
BITMAP
0000
0000
0000
6B80
2B00
2B00
2B00
7F80
0000
0000
ENDCHAR

STARTCHAR jisx0208_276B
ENCODING 10091
SWIDTH 960 0
DWIDTH 10 0
BBX 10 10 0 -2
BITMAP
0000
0000
0000
6B80
2B00
2B00
2B00
7F80
0180
0000
ENDCHAR

STARTCHAR jisx0208_276C
ENCODING 10092
SWIDTH 960 0
DWIDTH 10 0
BBX 10 10 0 -2
BITMAP
0000
0000
0000
3E00
2C00
0F00
0D80
1F00
0000
0000
ENDCHAR

STARTCHAR jisx0208_276D
ENCODING 10093
SWIDTH 960 0
DWIDTH 10 0
BBX 10 10 0 -2
BITMAP
0000
0000
0000
7BC0
3180
3D80
3580
7BC0
0000
0000
ENDCHAR

STARTCHAR jisx0208_276E
ENCODING 10094
SWIDTH 960 0
DWIDTH 10 0
BBX 10 10 0 -2
BITMAP
0000
0000
0000
1E00
0C00
0F00
0D80
1F00
0000
0000
ENDCHAR

STARTCHAR jisx0208_276F
ENCODING 10095
SWIDTH 960 0
DWIDTH 10 0
BBX 10 10 0 -2
BITMAP
0000
0000
0000
1E00
3300
0F00
3300
1E00
0000
0000
ENDCHAR

STARTCHAR jisx0208_2770
ENCODING 10096
SWIDTH 960 0
DWIDTH 10 0
BBX 10 10 0 -2
BITMAP
0000
0000
0000
7700
2D80
3D80
2D80
7700
0000
0000
ENDCHAR

STARTCHAR jisx0208_2771
ENCODING 10097
SWIDTH 960 0
DWIDTH 10 0
BBX 10 10 0 -2
BITMAP
0000
0000
0000
0F80
1B00
0F00
1B00
3780
0000
0000
ENDCHAR

STARTCHAR jisx0208_2821
ENCODING 10273
SWIDTH 960 0
DWIDTH 10 0
BBX 10 10 0 -2
BITMAP
0000
0000
0000
0000
FFC0
0000
0000
0000
0000
0000
ENDCHAR

STARTCHAR jisx0208_2822
ENCODING 10274
SWIDTH 960 0
DWIDTH 10 0
BBX 10 10 0 -2
BITMAP
0C00
0C00
0C00
0C00
0C00
0C00
0C00
0C00
0C00
0C00
ENDCHAR

STARTCHAR jisx0208_2823
ENCODING 10275
SWIDTH 960 0
DWIDTH 10 0
BBX 10 10 0 -2
BITMAP
0000
0000
0000
0000
0FC0
0C00
0C00
0C00
0C00
0C00
ENDCHAR

STARTCHAR jisx0208_2824
ENCODING 10276
SWIDTH 960 0
DWIDTH 10 0
BBX 10 10 0 -2
BITMAP
0000
0000
0000
0000
FC00
0C00
0C00
0C00
0C00
0C00
ENDCHAR

STARTCHAR jisx0208_2825
ENCODING 10277
SWIDTH 960 0
DWIDTH 10 0
BBX 10 10 0 -2
BITMAP
0C00
0C00
0C00
0C00
FC00
0000
0000
0000
0000
0000
ENDCHAR

STARTCHAR jisx0208_2826
ENCODING 10278
SWIDTH 960 0
DWIDTH 10 0
BBX 10 10 0 -2
BITMAP
0C00
0C00
0C00
0C00
0FC0
0000
0000
0000
0000
0000
ENDCHAR

STARTCHAR jisx0208_2827
ENCODING 10279
SWIDTH 960 0
DWIDTH 10 0
BBX 10 10 0 -2
BITMAP
0C00
0C00
0C00
0C00
0FC0
0C00
0C00
0C00
0C00
0C00
ENDCHAR

STARTCHAR jisx0208_2828
ENCODING 10280
SWIDTH 960 0
DWIDTH 10 0
BBX 10 10 0 -2
BITMAP
0000
0000
0000
0000
FFC0
0C00
0C00
0C00
0C00
0C00
ENDCHAR

STARTCHAR jisx0208_2829
ENCODING 10281
SWIDTH 960 0
DWIDTH 10 0
BBX 10 10 0 -2
BITMAP
0C00
0C00
0C00
0C00
FC00
0C00
0C00
0C00
0C00
0C00
ENDCHAR

STARTCHAR jisx0208_282A
ENCODING 10282
SWIDTH 960 0
DWIDTH 10 0
BBX 10 10 0 -2
BITMAP
0C00
0C00
0C00
0C00
FFC0
0000
0000
0000
0000
0000
ENDCHAR

STARTCHAR jisx0208_282B
ENCODING 10283
SWIDTH 960 0
DWIDTH 10 0
BBX 10 10 0 -2
BITMAP
0C00
0C00
0C00
0C00
FFC0
0C00
0C00
0C00
0C00
0C00
ENDCHAR

STARTCHAR jisx0208_282C
ENCODING 10284
SWIDTH 960 0
DWIDTH 10 0
BBX 10 10 0 -2
BITMAP
0000
0000
0000
0000
FFC0
FFC0
0000
0000
0000
0000
ENDCHAR

STARTCHAR jisx0208_282D
ENCODING 10285
SWIDTH 960 0
DWIDTH 10 0
BBX 10 10 0 -2
BITMAP
0E00
0E00
0E00
0E00
0E00
0E00
0E00
0E00
0E00
0E00
ENDCHAR

STARTCHAR jisx0208_282E
ENCODING 10286
SWIDTH 960 0
DWIDTH 10 0
BBX 10 10 0 -2
BITMAP
0000
0000
0000
0000
0FC0
0FC0
0E00
0E00
0E00
0E00
ENDCHAR

STARTCHAR jisx0208_282F
ENCODING 10287
SWIDTH 960 0
DWIDTH 10 0
BBX 10 10 0 -2
BITMAP
0000
0000
0000
0000
FE00
FE00
0E00
0E00
0E00
0E00
ENDCHAR

STARTCHAR jisx0208_2830
ENCODING 10288
SWIDTH 960 0
DWIDTH 10 0
BBX 10 10 0 -2
BITMAP
0E00
0E00
0E00
0E00
FE00
FE00
0000
0000
0000
0000
ENDCHAR

STARTCHAR jisx0208_2831
ENCODING 10289
SWIDTH 960 0
DWIDTH 10 0
BBX 10 10 0 -2
BITMAP
0E00
0E00
0E00
0E00
0FC0
0FC0
0000
0000
0000
0000
ENDCHAR

STARTCHAR jisx0208_2832
ENCODING 10290
SWIDTH 960 0
DWIDTH 10 0
BBX 10 10 0 -2
BITMAP
0E00
0E00
0E00
0E00
0FC0
0FC0
0E00
0E00
0E00
0E00
ENDCHAR

STARTCHAR jisx0208_2833
ENCODING 10291
SWIDTH 960 0
DWIDTH 10 0
BBX 10 10 0 -2
BITMAP
0000
0000
0000
0000
FFC0
FFC0
0E00
0E00
0E00
0E00
ENDCHAR

STARTCHAR jisx0208_2834
ENCODING 10292
SWIDTH 960 0
DWIDTH 10 0
BBX 10 10 0 -2
BITMAP
0E00
0E00
0E00
0E00
FE00
FE00
0E00
0E00
0E00
0E00
ENDCHAR

STARTCHAR jisx0208_2835
ENCODING 10293
SWIDTH 960 0
DWIDTH 10 0
BBX 10 10 0 -2
BITMAP
0E00
0E00
0E00
0E00
FFC0
FFC0
0000
0000
0000
0000
ENDCHAR

STARTCHAR jisx0208_2836
ENCODING 10294
SWIDTH 960 0
DWIDTH 10 0
BBX 10 10 0 -2
BITMAP
0E00
0E00
0E00
0E00
FFC0
FFC0
0E00
0E00
0E00
0E00
ENDCHAR

STARTCHAR jisx0208_2837
ENCODING 10295
SWIDTH 960 0
DWIDTH 10 0
BBX 10 10 0 -2
BITMAP
0E00
0E00
0E00
0E00
0FC0
0E00
0E00
0E00
0E00
0E00
ENDCHAR

STARTCHAR jisx0208_2838
ENCODING 10296
SWIDTH 960 0
DWIDTH 10 0
BBX 10 10 0 -2
BITMAP
0000
0000
0000
0000
FFC0
FFC0
0C00
0C00
0C00
0C00
ENDCHAR

STARTCHAR jisx0208_2839
ENCODING 10297
SWIDTH 960 0
DWIDTH 10 0
BBX 10 10 0 -2
BITMAP
0E00
0E00
0E00
0E00
FE00
0E00
0E00
0E00
0E00
0E00
ENDCHAR

STARTCHAR jisx0208_283A
ENCODING 10298
SWIDTH 960 0
DWIDTH 10 0
BBX 10 10 0 -2
BITMAP
0C00
0C00
0C00
0C00
FFC0
FFC0
0000
0000
0000
0000
ENDCHAR

STARTCHAR jisx0208_283B
ENCODING 10299
SWIDTH 960 0
DWIDTH 10 0
BBX 10 10 0 -2
BITMAP
0C00
0C00
0C00
0C00
FFC0
FFC0
0C00
0C00
0C00
0C00
ENDCHAR

STARTCHAR jisx0208_283C
ENCODING 10300
SWIDTH 960 0
DWIDTH 10 0
BBX 10 10 0 -2
BITMAP
0C00
0C00
0C00
0C00
0FC0
0FC0
0C00
0C00
0C00
0C00
ENDCHAR

STARTCHAR jisx0208_283D
ENCODING 10301
SWIDTH 960 0
DWIDTH 10 0
BBX 10 10 0 -2
BITMAP
0000
0000
0000
0000
FFC0
0E00
0E00
0E00
0E00
0E00
ENDCHAR

STARTCHAR jisx0208_283E
ENCODING 10302
SWIDTH 960 0
DWIDTH 10 0
BBX 10 10 0 -2
BITMAP
0C00
0C00
0C00
0C00
FC00
FC00
0C00
0C00
0C00
0C00
ENDCHAR

STARTCHAR jisx0208_283F
ENCODING 10303
SWIDTH 960 0
DWIDTH 10 0
BBX 10 10 0 -2
BITMAP
0E00
0E00
0E00
0E00
FFC0
0000
0000
0000
0000
0000
ENDCHAR

STARTCHAR jisx0208_2840
ENCODING 10304
SWIDTH 960 0
DWIDTH 10 0
BBX 10 10 0 -2
BITMAP
0E00
0E00
0E00
0E00
FFC0
0E00
0E00
0E00
0E00
0E00
ENDCHAR

STARTCHAR jisx0208_2D21
ENCODING 11553
SWIDTH 960 0
DWIDTH 10 0
BBX 10 10 0 -2
BITMAP
0000
3E00
6300
CD80
DD80
CD80
CD80
6B00
3E00
0000
ENDCHAR

STARTCHAR jisx0208_2D22
ENCODING 11554
SWIDTH 960 0
DWIDTH 10 0
BBX 10 10 0 -2
BITMAP
0000
3E00
6300
DD80
B580
CD80
D980
7F00
3E00
0000
ENDCHAR

STARTCHAR jisx0208_2D23
ENCODING 11555
SWIDTH 960 0
DWIDTH 10 0
BBX 10 10 0 -2
BITMAP
0000
3E00
6300
DD80
B580
CD80
B580
5B00
3E00
0000
ENDCHAR

STARTCHAR jisx0208_2D24
ENCODING 11556
SWIDTH 960 0
DWIDTH 10 0
BBX 10 10 0 -2
BITMAP
0000
3E00
6300
CD80
DD80
AD80
FD80
6B00
3E00
0000
ENDCHAR

STARTCHAR jisx0208_2D25
ENCODING 11557
SWIDTH 960 0
DWIDTH 10 0
BBX 10 10 0 -2
BITMAP
0000
3E00
6300
BD80
B180
BD80
C580
7B00
3E00
0000
ENDCHAR

STARTCHAR jisx0208_2D26
ENCODING 11558
SWIDTH 960 0
DWIDTH 10 0
BBX 10 10 0 -2
BITMAP
0000
3E00
6300
DD80
B180
BD80
B580
5B00
3E00
0000
ENDCHAR

STARTCHAR jisx0208_2D27
ENCODING 11559
SWIDTH 960 0
DWIDTH 10 0
BBX 10 10 0 -2
BITMAP
0000
3E00
6300
BD80
C580
CD80
CD80
6B00
3E00
0000
ENDCHAR

STARTCHAR jisx0208_2D28
ENCODING 11560
SWIDTH 960 0
DWIDTH 10 0
BBX 10 10 0 -2
BITMAP
0000
3E00
6300
DD80
B580
DD80
B580
5B00
3E00
0000
ENDCHAR

STARTCHAR jisx0208_2D29
ENCODING 11561
SWIDTH 960 0
DWIDTH 10 0
BBX 10 10 0 -2
BITMAP
0000
3E00
6300
DD80
B580
DD80
C580
7B00
3E00
0000
ENDCHAR

STARTCHAR jisx0208_2D2A
ENCODING 11562
SWIDTH 960 0
DWIDTH 10 0
BBX 10 10 0 -2
BITMAP
0000
3E00
6300
F580
AB80
AB80
AB80
7700
3E00
0000
ENDCHAR

STARTCHAR jisx0208_2D2B
ENCODING 11563
SWIDTH 960 0
DWIDTH 10 0
BBX 10 10 0 -2
BITMAP
0000
3E00
6300
ED80
B580
B580
B580
7700
3E00
0000
ENDCHAR

STARTCHAR jisx0208_2D2C
ENCODING 11564
SWIDTH 960 0
DWIDTH 10 0
BBX 10 10 0 -2
BITMAP
0000
3E00
6300
ED80
BB80
B580
AD80
7F00
3E00
0000
ENDCHAR

STARTCHAR jisx0208_2D2D
ENCODING 11565
SWIDTH 960 0
DWIDTH 10 0
BBX 10 10 0 -2
BITMAP
0000
3E00
6300
ED80
BB80
B580
BB80
6F00
3E00
0000
ENDCHAR

STARTCHAR jisx0208_2D2E
ENCODING 11566
SWIDTH 960 0
DWIDTH 10 0
BBX 10 10 0 -2
BITMAP
0000
3E00
6300
F580
AD80
B580
BF80
7700
3E00
0000
ENDCHAR

STARTCHAR jisx0208_2D2F
ENCODING 11567
SWIDTH 960 0
DWIDTH 10 0
BBX 10 10 0 -2
BITMAP
0000
3E00
6300
EF80
AD80
AD80
B380
6F00
3E00
0000
ENDCHAR

STARTCHAR jisx0208_2D30
ENCODING 11568
SWIDTH 960 0
DWIDTH 10 0
BBX 10 10 0 -2
BITMAP
0000
3E00
6300
ED80
B980
BD80
BB80
6F00
3E00
0000
ENDCHAR

STARTCHAR jisx0208_2D31
ENCODING 11569
SWIDTH 960 0
DWIDTH 10 0
BBX 10 10 0 -2
BITMAP
0000
3E00
6300
EF80
B380
B580
B580
7700
3E00
0000
ENDCHAR

STARTCHAR jisx0208_2D32
ENCODING 11570
SWIDTH 960 0
DWIDTH 10 0
BBX 10 10 0 -2
BITMAP
0000
3E00
6300
ED80
BB80
AD80
BB80
6F00
3E00
0000
ENDCHAR

STARTCHAR jisx0208_2D33
ENCODING 11571
SWIDTH 960 0
DWIDTH 10 0
BBX 10 10 0 -2
BITMAP
0000
3E00
6300
ED80
BB80
AF80
B380
6F00
3E00
0000
ENDCHAR

STARTCHAR jisx0208_2D34
ENCODING 11572
SWIDTH 960 0
DWIDTH 10 0
BBX 10 10 0 -2
BITMAP
0000
3E00
6300
B580
DB80
DB80
AB80
7700
3E00
0000
ENDCHAR

STARTCHAR jisx0208_2D35
ENCODING 11573
SWIDTH 960 0
DWIDTH 10 0
BBX 10 10 0 -2
BITMAP
0000
0000
1800
1800
1800
1800
1800
1800
0000
0000
ENDCHAR

STARTCHAR jisx0208_2D36
ENCODING 11574
SWIDTH 960 0
DWIDTH 10 0
BBX 10 10 0 -2
BITMAP
0000
0000
3600
3600
3600
3600
3600
3600
0000
0000
ENDCHAR

STARTCHAR jisx0208_2D37
ENCODING 11575
SWIDTH 960 0
DWIDTH 10 0
BBX 10 10 0 -2
BITMAP
0000
0000
5600
5600
5600
5600
5600
5600
0000
0000
ENDCHAR

STARTCHAR jisx0208_2D38
ENCODING 11576
SWIDTH 960 0
DWIDTH 10 0
BBX 10 10 0 -2
BITMAP
0000
0000
5B00
5B00
5B00
5B00
6E00
6E00
0000
0000
ENDCHAR

STARTCHAR jisx0208_2D39
ENCODING 11577
SWIDTH 960 0
DWIDTH 10 0
BBX 10 10 0 -2
BITMAP
0000
0000
6600
6600
6600
2C00
2C00
1800
0000
0000
ENDCHAR

STARTCHAR jisx0208_2D3A
ENCODING 11578
SWIDTH 960 0
DWIDTH 10 0
BBX 10 10 0 -2
BITMAP
0000
0000
6B00
6B00
6B00
6B00
3B00
3B00
0000
0000
ENDCHAR

STARTCHAR jisx0208_2D3B
ENCODING 11579
SWIDTH 960 0
DWIDTH 10 0
BBX 10 10 0 -2
BITMAP
0000
0000
AB00
AB00
AB00
AB00
6B00
6B00
0000
0000
ENDCHAR

STARTCHAR jisx0208_2D3C
ENCODING 11580
SWIDTH 960 0
DWIDTH 10 0
BBX 10 10 0 -2
BITMAP
0000
0000
B580
B580
B580
5580
5580
5580
0000
0000
ENDCHAR

STARTCHAR jisx0208_2D3D
ENCODING 11581
SWIDTH 960 0
DWIDTH 10 0
BBX 10 10 0 -2
BITMAP
0000
0000
5B00
5B00
6E00
6E00
5B00
5B00
0000
0000
ENDCHAR

STARTCHAR jisx0208_2D3E
ENCODING 11582
SWIDTH 960 0
DWIDTH 10 0
BBX 10 10 0 -2
BITMAP
0000
0000
6600
2C00
1800
1800
2C00
6600
0000
0000
ENDCHAR

STARTCHAR jisx0208_2D40
ENCODING 11584
SWIDTH 960 0
DWIDTH 10 0
BBX 10 10 0 -2
BITMAP
0000
F000
0000
F000
0D80
ED80
0D80
0180
0700
0000
ENDCHAR

STARTCHAR jisx0208_2D41
ENCODING 11585
SWIDTH 960 0
DWIDTH 10 0
BBX 10 10 0 -2
BITMAP
0000
3000
F800
3000
F800
2F80
0D80
0D80
0F80
0000
ENDCHAR

STARTCHAR jisx0208_2D42
ENCODING 11586
SWIDTH 960 0
DWIDTH 10 0
BBX 10 10 0 -2
BITMAP
0000
7600
D980
6180
7700
3000
F800
3000
6000
0000
ENDCHAR

STARTCHAR jisx0208_2D43
ENCODING 11587
SWIDTH 960 0
DWIDTH 10 0
BBX 10 10 0 -2
BITMAP
0000
1800
5800
3780
D800
6300
7700
6780
6B00
0000
ENDCHAR

STARTCHAR jisx0208_2D44
ENCODING 11588
SWIDTH 960 0
DWIDTH 10 0
BBX 10 10 0 -2
BITMAP
0000
5780
7800
D780
3180
E700
6000
B800
D800
0000
ENDCHAR

STARTCHAR jisx0208_2D45
ENCODING 11589
SWIDTH 960 0
DWIDTH 10 0
BBX 10 10 0 -2
BITMAP
0000
6000
6000
7800
6000
6E00
0180
0300
0E00
0000
ENDCHAR

STARTCHAR jisx0208_2D46
ENCODING 11590
SWIDTH 960 0
DWIDTH 10 0
BBX 10 10 0 -2
BITMAP
0000
F800
5800
7780
C000
3000
7000
6C00
B800
0000
ENDCHAR

STARTCHAR jisx0208_2D47
ENCODING 11591
SWIDTH 960 0
DWIDTH 10 0
BBX 10 10 0 -2
BITMAP
0000
6780
AD80
1B00
0600
7B00
DF00
3780
EB00
0000
ENDCHAR

STARTCHAR jisx0208_2D48
ENCODING 11592
SWIDTH 960 0
DWIDTH 10 0
BBX 10 10 0 -2
BITMAP
0000
B000
AD80
3180
6700
6300
7700
6780
6B00
0000
ENDCHAR

STARTCHAR jisx0208_2D49
ENCODING 11593
SWIDTH 960 0
DWIDTH 10 0
BBX 10 10 0 -2
BITMAP
0000
F800
DD80
1980
7700
6000
7800
6000
6000
0000
ENDCHAR

STARTCHAR jisx0208_2D4A
ENCODING 11594
SWIDTH 960 0
DWIDTH 10 0
BBX 10 10 0 -2
BITMAP
0000
6000
F780
5580
B780
5800
5780
1800
7000
0000
ENDCHAR

STARTCHAR jisx0208_2D4B
ENCODING 11595
SWIDTH 960 0
DWIDTH 10 0
BBX 10 10 0 -2
BITMAP
0000
AC00
C000
F000
C000
C600
0E00
0D80
1700
0000
ENDCHAR

STARTCHAR jisx0208_2D4C
ENCODING 11596
SWIDTH 960 0
DWIDTH 10 0
BBX 10 10 0 -2
BITMAP
0000
7600
D980
6180
7700
6000
7800
6000
6000
0000
ENDCHAR

STARTCHAR jisx0208_2D4D
ENCODING 11597
SWIDTH 960 0
DWIDTH 10 0
BBX 10 10 0 -2
BITMAP
0000
0E00
5E00
6B80
CC00
FB00
B780
C700
DB00
0000
ENDCHAR

STARTCHAR jisx0208_2D4E
ENCODING 11598
SWIDTH 960 0
DWIDTH 10 0
BBX 10 10 0 -2
BITMAP
0000
7580
7580
0180
FB00
1B00
B700
B780
AB00
0000
ENDCHAR

STARTCHAR jisx0208_2D4F
ENCODING 11599
SWIDTH 960 0
DWIDTH 10 0
BBX 10 10 0 -2
BITMAP
0000
5C00
BC00
1780
0C00
DC00
EC00
1800
F000
0000
ENDCHAR

STARTCHAR jisx0208_2D50
ENCODING 11600
SWIDTH 960 0
DWIDTH 10 0
BBX 10 10 0 -2
BITMAP
0000
0000
0000
AB00
DD80
DD80
DD80
DD80
0000
0000
ENDCHAR

STARTCHAR jisx0208_2D51
ENCODING 11601
SWIDTH 960 0
DWIDTH 10 0
BBX 10 10 0 -2
BITMAP
0000
0000
0000
6B00
DD80
CD80
DD80
6D80
0000
0000
ENDCHAR

STARTCHAR jisx0208_2D52
ENCODING 11602
SWIDTH 960 0
DWIDTH 10 0
BBX 10 10 0 -2
BITMAP
0000
0000
C000
AB00
AD80
ED80
AD80
AD80
0000
0000
ENDCHAR

STARTCHAR jisx0208_2D53
ENCODING 11603
SWIDTH 960 0
DWIDTH 10 0
BBX 10 10 0 -2
BITMAP
0000
0000
0000
B780
DD80
DD80
D780
D980
0F00
0000
ENDCHAR

STARTCHAR jisx0208_2D54
ENCODING 11604
SWIDTH 960 0
DWIDTH 10 0
BBX 10 10 0 -2
BITMAP
0000
0000
C000
B780
AD80
ED80
B780
B180
0F00
0000
ENDCHAR

STARTCHAR jisx0208_2D55
ENCODING 11605
SWIDTH 960 0
DWIDTH 10 0
BBX 10 10 0 -2
BITMAP
0000
0000
0000
7700
DD80
CC00
DD80
7700
0000
0000
ENDCHAR

STARTCHAR jisx0208_2D56
ENCODING 11606
SWIDTH 960 0
DWIDTH 10 0
BBX 10 10 0 -2
BITMAP
0000
0380
0180
EF00
DB80
DB00
DB00
DB00
0000
0000
ENDCHAR

STARTCHAR jisx0208_2D5F
ENCODING 11615
SWIDTH 960 0
DWIDTH 10 0
BBX 10 10 0 -2
BITMAP
0000
FB00
2F80
BB00
2F80
FB80
2B00
2F80
3580
0000
ENDCHAR

STARTCHAR jisx0208_2D60
ENCODING 11616
SWIDTH 960 0
DWIDTH 10 0
BBX 10 10 0 -2
BITMAP
0000
0580
0B00
0000
0000
0000
0000
0000
0000
0000
ENDCHAR

STARTCHAR jisx0208_2D61
ENCODING 11617
SWIDTH 960 0
DWIDTH 10 0
BBX 10 10 0 -2
BITMAP
0000
0000
0000
0000
0000
0000
0000
5800
B000
0000
ENDCHAR

STARTCHAR jisx0208_2D62
ENCODING 11618
SWIDTH 960 0
DWIDTH 10 0
BBX 10 10 0 -2
BITMAP
0000
0000
D800
D600
DB00
BB00
BB00
D580
0000
0000
ENDCHAR

STARTCHAR jisx0208_2D63
ENCODING 11619
SWIDTH 960 0
DWIDTH 10 0
BBX 10 10 0 -2
BITMAP
0000
0000
AB00
AB00
EE00
AB00
AB00
BB80
0000
0000
ENDCHAR

STARTCHAR jisx0208_2D64
ENCODING 11620
SWIDTH 960 0
DWIDTH 10 0
BBX 10 10 0 -2
BITMAP
0000
0000
FE00
5600
5E00
5600
5600
5F80
0000
0000
ENDCHAR

STARTCHAR jisx0208_2D65
ENCODING 11621
SWIDTH 960 0
DWIDTH 10 0
BBX 10 10 0 -2
BITMAP
0000
3E00
5B00
D980
DD80
D980
FF80
6300
3E00
0000
ENDCHAR

STARTCHAR jisx0208_2D66
ENCODING 11622
SWIDTH 960 0
DWIDTH 10 0
BBX 10 10 0 -2
BITMAP
0000
3E00
5B00
FD80
D580
FD80
D980
5B00
3E00
0000
ENDCHAR

STARTCHAR jisx0208_2D67
ENCODING 11623
SWIDTH 960 0
DWIDTH 10 0
BBX 10 10 0 -2
BITMAP
0000
3E00
6300
FF80
D980
DD80
D980
5B00
3E00
0000
ENDCHAR

STARTCHAR jisx0208_2D68
ENCODING 11624
SWIDTH 960 0
DWIDTH 10 0
BBX 10 10 0 -2
BITMAP
0000
3E00
5B00
FF80
DD80
AD80
FF80
6300
3E00
0000
ENDCHAR

STARTCHAR jisx0208_2D69
ENCODING 11625
SWIDTH 960 0
DWIDTH 10 0
BBX 10 10 0 -2
BITMAP
0000
3E00
5B00
FF80
B180
FD80
B580
7F00
3E00
0000
ENDCHAR

STARTCHAR jisx0208_2D6A
ENCODING 11626
SWIDTH 960 0
DWIDTH 10 0
BBX 10 10 0 -2
BITMAP
0000
6300
AD80
FF80
B580
FF80
AD80
B780
7700
0000
ENDCHAR

STARTCHAR jisx0208_2D6B
ENCODING 11627
SWIDTH 960 0
DWIDTH 10 0
BBX 10 10 0 -2
BITMAP
0000
5B00
FF80
B180
BD80
F580
BD80
B580
6F00
0000
ENDCHAR

STARTCHAR jisx0208_2D6C
ENCODING 11628
SWIDTH 960 0
DWIDTH 10 0
BBX 10 10 0 -2
BITMAP
0000
6300
AD80
AD80
BF80
ED80
AB80
AB80
7700
0000
ENDCHAR

STARTCHAR jisx0208_2D6D
ENCODING 11629
SWIDTH 960 0
DWIDTH 10 0
BBX 10 10 0 -2
BITMAP
0000
FB00
DB00
FD80
D780
F800
D780
5D80
B780
0000
ENDCHAR

STARTCHAR jisx0208_2D6E
ENCODING 11630
SWIDTH 960 0
DWIDTH 10 0
BBX 10 10 0 -2
BITMAP
0000
6F80
6300
F300
6B80
6B00
AB00
AB00
BF80
0000
ENDCHAR

STARTCHAR jisx0208_2D6F
ENCODING 11631
SWIDTH 960 0
DWIDTH 10 0
BBX 10 10 0 -2
BITMAP
0000
FB00
DE00
D780
FD80
ED80
FD80
D580
7780
0000
ENDCHAR

STARTCHAR jisx0208_2D70
ENCODING 11632
SWIDTH 960 0
DWIDTH 10 0
BBX 10 10 0 -2
BITMAP
0000
7000
0000
7F00
0000
7F00
0000
0700
0000
0000
ENDCHAR

STARTCHAR jisx0208_2D71
ENCODING 11633
SWIDTH 960 0
DWIDTH 10 0
BBX 10 10 0 -2
BITMAP
0000
0000
7F00
0000
7F00
0000
7F00
0000
0000
0000
ENDCHAR

STARTCHAR jisx0208_2D72
ENCODING 11634
SWIDTH 960 0
DWIDTH 10 0
BBX 10 10 0 -2
BITMAP
0000
0C00
1600
1800
1800
0C00
0C00
2C00
1800
0000
ENDCHAR

STARTCHAR jisx0208_2D73
ENCODING 11635
SWIDTH 960 0
DWIDTH 10 0
BBX 10 10 0 -2
BITMAP
0000
0C00
1600
1C00
3600
2E00
1C00
2C00
1800
0000
ENDCHAR

STARTCHAR jisx0208_2D74
ENCODING 11636
SWIDTH 960 0
DWIDTH 10 0
BBX 10 10 0 -2
BITMAP
0000
0000
7E00
3000
1800
1800
3000
7E00
0000
0000
ENDCHAR

STARTCHAR jisx0208_2D75
ENCODING 11637
SWIDTH 960 0
DWIDTH 10 0
BBX 10 10 0 -2
BITMAP
0000
0F80
0C00
0C00
1800
5800
B000
3000
0000
0000
ENDCHAR

STARTCHAR jisx0208_2D76
ENCODING 11638
SWIDTH 960 0
DWIDTH 10 0
BBX 10 10 0 -2
BITMAP
0000
0000
1800
1800
1800
1800
1800
7E00
0000
0000
ENDCHAR

STARTCHAR jisx0208_2D77
ENCODING 11639
SWIDTH 960 0
DWIDTH 10 0
BBX 10 10 0 -2
BITMAP
0000
0000
0300
0600
0C00
1800
3000
7F00
0000
0000
ENDCHAR

STARTCHAR jisx0208_2D78
ENCODING 11640
SWIDTH 960 0
DWIDTH 10 0
BBX 10 10 0 -2
BITMAP
0000
0000
6000
6000
6000
6000
6000
7F00
0000
0000
ENDCHAR

STARTCHAR jisx0208_2D79
ENCODING 11641
SWIDTH 960 0
DWIDTH 10 0
BBX 10 10 0 -2
BITMAP
0000
0000
0300
0700
0B00
1B00
3300
7F00
0000
0000
ENDCHAR

STARTCHAR jisx0208_2D7A
ENCODING 11642
SWIDTH 960 0
DWIDTH 10 0
BBX 10 10 0 -2
BITMAP
0000
0000
6600
6600
0000
0000
1800
1800
0000
0000
ENDCHAR

STARTCHAR jisx0208_2D7B
ENCODING 11643
SWIDTH 960 0
DWIDTH 10 0
BBX 10 10 0 -2
BITMAP
0000
0000
1C00
3600
3600
3600
3600
3600
0000
0000
ENDCHAR

STARTCHAR jisx0208_2D7C
ENCODING 11644
SWIDTH 960 0
DWIDTH 10 0
BBX 10 10 0 -2
BITMAP
0000
0000
3600
3600
3600
3600
3600
1C00
0000
0000
ENDCHAR

STARTCHAR jisx0208_3021
ENCODING 12321
SWIDTH 960 0
DWIDTH 10 0
BBX 10 10 0 -2
BITMAP
0000
7FC0
1B00
7FC0
5AC0
7FC0
1B00
1B00
7FC0
0000
ENDCHAR

STARTCHAR jisx0208_3022
ENCODING 12322
SWIDTH 960 0
DWIDTH 10 0
BBX 10 10 0 -2
BITMAP
0000
1FC0
7580
5FC0
55C0
5FC0
7580
0580
1FC0
0000
ENDCHAR

STARTCHAR jisx0208_3023
ENCODING 12323
SWIDTH 960 0
DWIDTH 10 0
BBX 10 10 0 -2
BITMAP
0000
3300
2F80
7B00
3FC0
5B00
6FC0
3300
5FC0
0000
ENDCHAR

STARTCHAR jisx0208_3024
ENCODING 12324
SWIDTH 960 0
DWIDTH 10 0
BBX 10 10 0 -2
BITMAP
0000
77C0
5980
5F80
6B80
5F80
5980
7180
6380
0000
ENDCHAR

STARTCHAR jisx0208_3025
ENCODING 12325
SWIDTH 960 0
DWIDTH 10 0
BBX 10 10 0 -2
BITMAP
0000
0C00
7FC0
3180
3F80
0EC0
7B80
1980
7EC0
0000
ENDCHAR

STARTCHAR jisx0208_3026
ENCODING 12326
SWIDTH 960 0
DWIDTH 10 0
BBX 10 10 0 -2
BITMAP
0000
3F80
1580
7FC0
6AC0
2F80
3B00
0F00
79C0
0000
ENDCHAR

STARTCHAR jisx0208_3027
ENCODING 12327
SWIDTH 960 0
DWIDTH 10 0
BBX 10 10 0 -2
BITMAP
0000
3300
7580
2EC0
3600
6FC0
3780
3300
6DC0
0000
ENDCHAR

STARTCHAR jisx0208_3028
ENCODING 12328
SWIDTH 960 0
DWIDTH 10 0
BBX 10 10 0 -2
BITMAP
0000
3300
3580
7CC0
3780
5800
57C0
36C0
57C0
0000
ENDCHAR

STARTCHAR jisx0208_3029
ENCODING 12329
SWIDTH 960 0
DWIDTH 10 0
BBX 10 10 0 -2
BITMAP
0000
6780
0580
0B00
0580
6AC0
3780
3300
5FC0
0000
ENDCHAR

STARTCHAR jisx0208_302A
ENCODING 12330
SWIDTH 960 0
DWIDTH 10 0
BBX 10 10 0 -2
BITMAP
0000
1B00
7FC0
1B00
7AC0
1D80
6EC0
1B00
71C0
0000
ENDCHAR

STARTCHAR jisx0208_302B
ENCODING 12331
SWIDTH 960 0
DWIDTH 10 0
BBX 10 10 0 -2
BITMAP
0000
1B00
7FC0
1B00
7FC0
5AC0
73C0
60C0
7FC0
0000
ENDCHAR

STARTCHAR jisx0208_302C
ENCODING 12332
SWIDTH 960 0
DWIDTH 10 0
BBX 10 10 0 -2
BITMAP
0000
1700
6F80
2D80
7FC0
2EC0
7FC0
3300
33C0
0000
ENDCHAR

STARTCHAR jisx0208_302D
ENCODING 12333
SWIDTH 960 0
DWIDTH 10 0
BBX 10 10 0 -2
BITMAP
0000
7F80
1600
7F80
5580
7F80
1600
58C0
5EC0
0000
ENDCHAR

STARTCHAR jisx0208_302E
ENCODING 12334
SWIDTH 960 0
DWIDTH 10 0
BBX 10 10 0 -2
BITMAP
0000
2FC0
7CC0
2FC0
3B00
6D80
2FC0
3B00
77C0
0000
ENDCHAR

STARTCHAR jisx0208_302F
ENCODING 12335
SWIDTH 960 0
DWIDTH 10 0
BBX 10 10 0 -2
BITMAP
0000
6FC0
0CC0
6FC0
0B00
0D80
2FC0
2B00
57C0
0000
ENDCHAR

STARTCHAR jisx0208_3030
ENCODING 12336
SWIDTH 960 0
DWIDTH 10 0
BBX 10 10 0 -2
BITMAP
0000
3000
33C0
7AC0
2BC0
2AC0
2BC0
2C00
6FC0
0000
ENDCHAR

STARTCHAR jisx0208_3031
ENCODING 12337
SWIDTH 960 0
DWIDTH 10 0
BBX 10 10 0 -2
BITMAP
0000
1B00
7FC0
3F80
0D80
7FC0
1B00
7FC0
0300
0000
ENDCHAR

STARTCHAR jisx0208_3032
ENCODING 12338
SWIDTH 960 0
DWIDTH 10 0
BBX 10 10 0 -2
BITMAP
0000
1B00
7FC0
1B00
7FC0
3180
3F80
3000
6000
0000
ENDCHAR

STARTCHAR jisx0208_3033
ENCODING 12339
SWIDTH 960 0
DWIDTH 10 0
BBX 10 10 0 -2
BITMAP
0000
3580
6FC0
7B00
5DC0
5980
76C0
0180
5700
0000
ENDCHAR

STARTCHAR jisx0208_3034
ENCODING 12340
SWIDTH 960 0
DWIDTH 10 0
BBX 10 10 0 -2
BITMAP
0000
3300
7FC0
3580
7FC0
7300
2FC0
3300
3300
0000
ENDCHAR

STARTCHAR jisx0208_3035
ENCODING 12341
SWIDTH 960 0
DWIDTH 10 0
BBX 10 10 0 -2
BITMAP
0000
3FC0
3000
3300
3300
2FC0
3300
3300
5FC0
0000
ENDCHAR

STARTCHAR jisx0208_3036
ENCODING 12342
SWIDTH 960 0
DWIDTH 10 0
BBX 10 10 0 -2
BITMAP
0000
3300
7580
2CC0
5580
7580
31C0
7780
3180
0000
ENDCHAR

STARTCHAR jisx0208_3037
ENCODING 12343
SWIDTH 960 0
DWIDTH 10 0
BBX 10 10 0 -2
BITMAP
0000
2F80
7580
35C0
36C0
76C0
2B80
3B80
76C0
0000
ENDCHAR

STARTCHAR jisx0208_3038
ENCODING 12344
SWIDTH 960 0
DWIDTH 10 0
BBX 10 10 0 -2
BITMAP
0000
0C00
7FC0
58C0
3F80
6D80
3580
36C0
67C0
0000
ENDCHAR

STARTCHAR jisx0208_3039
ENCODING 12345
SWIDTH 960 0
DWIDTH 10 0
BBX 10 10 0 -2
BITMAP
0000
3000
3780
7580
3780
5580
7780
3580
5FC0
0000
ENDCHAR

STARTCHAR jisx0208_303A
ENCODING 12346
SWIDTH 960 0
DWIDTH 10 0
BBX 10 10 0 -2
BITMAP
0000
3180
3180
7FC0
6B00
7B00
3300
2B00
7BC0
0000
ENDCHAR

STARTCHAR jisx0208_303B
ENCODING 12347
SWIDTH 960 0
DWIDTH 10 0
BBX 10 10 0 -2
BITMAP
0000
3300
5B00
3580
7EC0
5800
7780
6580
7780
0000
ENDCHAR

STARTCHAR jisx0208_303C
ENCODING 12348
SWIDTH 960 0
DWIDTH 10 0
BBX 10 10 0 -2
BITMAP
0000
3600
57C0
2AC0
7EC0
2AC0
7EC0
78C0
3380
0000
ENDCHAR

STARTCHAR jisx0208_303D
ENCODING 12349
SWIDTH 960 0
DWIDTH 10 0
BBX 10 10 0 -2
BITMAP
0000
3300
5780
3300
7FC0
3780
7D80
7B80
2EC0
0000
ENDCHAR

STARTCHAR jisx0208_303E
ENCODING 12350
SWIDTH 960 0
DWIDTH 10 0
BBX 10 10 0 -2
BITMAP
0000
3300
7300
7BC0
5B00
57C0
76C0
06C0
57C0
0000
ENDCHAR

STARTCHAR jisx0208_303F
ENCODING 12351
SWIDTH 960 0
DWIDTH 10 0
BBX 10 10 0 -2
BITMAP
0000
0580
7FC0
0600
3AC0
2AC0
3D80
0380
76C0
0000
ENDCHAR

STARTCHAR jisx0208_3040
ENCODING 12352
SWIDTH 960 0
DWIDTH 10 0
BBX 10 10 0 -2
BITMAP
0000
7FC0
3F80
2D80
3F80
2B00
7FC0
1B00
6DC0
0000
ENDCHAR

STARTCHAR jisx0208_3041
ENCODING 12353
SWIDTH 960 0
DWIDTH 10 0
BBX 10 10 0 -2
BITMAP
0000
3380
76C0
1800
37C0
7800
37C0
36C0
37C0
0000
ENDCHAR

STARTCHAR jisx0208_3042
ENCODING 12354
SWIDTH 960 0
DWIDTH 10 0
BBX 10 10 0 -2
BITMAP
0000
0C00
7FC0
6CC0
1800
7FC0
1B00
0F00
7980
0000
ENDCHAR

STARTCHAR jisx0208_3043
ENCODING 12355
SWIDTH 960 0
DWIDTH 10 0
BBX 10 10 0 -2
BITMAP
0000
0600
3FC0
2F00
3F80
35C0
3F80
3600
67C0
0000
ENDCHAR

STARTCHAR jisx0208_3044
ENCODING 12356
SWIDTH 960 0
DWIDTH 10 0
BBX 10 10 0 -2
BITMAP
0000
3300
7FC0
2AC0
3600
6FC0
3580
3380
6EC0
0000
ENDCHAR

STARTCHAR jisx0208_3045
ENCODING 12357
SWIDTH 960 0
DWIDTH 10 0
BBX 10 10 0 -2
BITMAP
0000
0300
7FC0
5580
7FC0
5580
5780
7580
0780
0000
ENDCHAR

STARTCHAR jisx0208_3046
ENCODING 12358
SWIDTH 960 0
DWIDTH 10 0
BBX 10 10 0 -2
BITMAP
0000
0C00
7FC0
6CC0
3F80
1600
7FC0
1B00
6DC0
0000
ENDCHAR

STARTCHAR jisx0208_3047
ENCODING 12359
SWIDTH 960 0
DWIDTH 10 0
BBX 10 10 0 -2
BITMAP
0000
7BC0
5AC0
7BC0
6CC0
7EC0
56C0
56C0
5EC0
0000
ENDCHAR

STARTCHAR jisx0208_3048
ENCODING 12360
SWIDTH 960 0
DWIDTH 10 0
BBX 10 10 0 -2
BITMAP
0000
5B00
7FC0
36C0
7B00
7FC0
3580
7B80
2EC0
0000
ENDCHAR

STARTCHAR jisx0208_3049
ENCODING 12361
SWIDTH 960 0
DWIDTH 10 0
BBX 10 10 0 -2
BITMAP
0000
0C00
7FC0
1E00
2B80
6CC0
3F80
3180
3F80
0000
ENDCHAR

STARTCHAR jisx0208_304A
ENCODING 12362
SWIDTH 960 0
DWIDTH 10 0
BBX 10 10 0 -2
BITMAP
0000
3180
3180
2D80
3580
3180
2D80
3B80
76C0
0000
ENDCHAR

STARTCHAR jisx0208_304B
ENCODING 12363
SWIDTH 960 0
DWIDTH 10 0
BBX 10 10 0 -2
BITMAP
0000
17C0
32C0
6FC0
32C0
37C0
3300
3300
3600
0000
ENDCHAR

STARTCHAR jisx0208_304C
ENCODING 12364
SWIDTH 960 0
DWIDTH 10 0
BBX 10 10 0 -2
BITMAP
0000
1B00
3300
6FC0
3580
3580
3580
3580
2FC0
0000
ENDCHAR

STARTCHAR jisx0208_304D
ENCODING 12365
SWIDTH 960 0
DWIDTH 10 0
BBX 10 10 0 -2
BITMAP
0000
1B00
2FC0
7300
36C0
2D80
3580
36C0
2EC0
0000
ENDCHAR

STARTCHAR jisx0208_304E
ENCODING 12366
SWIDTH 960 0
DWIDTH 10 0
BBX 10 10 0 -2
BITMAP
0000
1600
2F80
7580
3FC0
2D80
2FC0
3580
2FC0
0000
ENDCHAR

STARTCHAR jisx0208_304F
ENCODING 12367
SWIDTH 960 0
DWIDTH 10 0
BBX 10 10 0 -2
BITMAP
0000
7FC0
56C0
7EC0
56C0
7EC0
56C0
76C0
7FC0
0000
ENDCHAR

STARTCHAR jisx0208_3050
ENCODING 12368
SWIDTH 960 0
DWIDTH 10 0
BBX 10 10 0 -2
BITMAP
0000
0C00
7FC0
0D80
7F80
6C00
7FC0
0CC0
76C0
0000
ENDCHAR

STARTCHAR jisx0208_3051
ENCODING 12369
SWIDTH 960 0
DWIDTH 10 0
BBX 10 10 0 -2
BITMAP
0000
3F80
0C00
7FC0
2B00
7FC0
1B00
0F00
7980
0000
ENDCHAR

STARTCHAR jisx0208_3052
ENCODING 12370
SWIDTH 960 0
DWIDTH 10 0
BBX 10 10 0 -2
BITMAP
0000
02C0
3FC0
2B00
3EC0
35C0
3580
2D80
56C0
0000
ENDCHAR

STARTCHAR jisx0208_3053
ENCODING 12371
SWIDTH 960 0
DWIDTH 10 0
BBX 10 10 0 -2
BITMAP
0000
7CC0
6CC0
7BC0
60C0
7AC0
58C0
7CC0
59C0
0000
ENDCHAR

STARTCHAR jisx0208_3054
ENCODING 12372
SWIDTH 960 0
DWIDTH 10 0
BBX 10 10 0 -2
BITMAP
0000
3580
2B00
7FC0
6B00
2FC0
2B00
2B00
2FC0
0000
ENDCHAR

STARTCHAR jisx0208_3055
ENCODING 12373
SWIDTH 960 0
DWIDTH 10 0
BBX 10 10 0 -2
BITMAP
0000
0600
7FC0
1B00
7FC0
3180
3F80
56C0
5EC0
0000
ENDCHAR

STARTCHAR jisx0208_3056
ENCODING 12374
SWIDTH 960 0
DWIDTH 10 0
BBX 10 10 0 -2
BITMAP
0000
7CC0
6FC0
7CC0
7AC0
59C0
0600
58C0
5EC0
0000
ENDCHAR

STARTCHAR jisx0208_3057
ENCODING 12375
SWIDTH 960 0
DWIDTH 10 0
BBX 10 10 0 -2
BITMAP
0000
3F80
3180
3F80
3180
3FC0
6AC0
16C0
2D80
0000
ENDCHAR

STARTCHAR jisx0208_3058
ENCODING 12376
SWIDTH 960 0
DWIDTH 10 0
BBX 10 10 0 -2
BITMAP
0000
3300
7FC0
3580
7CC0
6FC0
2AC0
2EC0
31C0
0000
ENDCHAR

STARTCHAR jisx0208_3059
ENCODING 12377
SWIDTH 960 0
DWIDTH 10 0
BBX 10 10 0 -2
BITMAP
0000
1600
3F80
0D80
0FC0
18C0
3FC0
60C0
35C0
0000
ENDCHAR

STARTCHAR jisx0208_305A
ENCODING 12378
SWIDTH 960 0
DWIDTH 10 0
BBX 10 10 0 -2
BITMAP
0000
3F80
2D80
3F80
2D80
7FC0
2D80
3700
79C0
0000
ENDCHAR

STARTCHAR jisx0208_305B
ENCODING 12379
SWIDTH 960 0
DWIDTH 10 0
BBX 10 10 0 -2
BITMAP
0000
7F80
6D80
7F80
1600
7F80
1600
7F80
3300
0000
ENDCHAR

STARTCHAR jisx0208_305C
ENCODING 12380
SWIDTH 960 0
DWIDTH 10 0
BBX 10 10 0 -2
BITMAP
0000
1BC0
76C0
2B80
7B00
2FC0
76C0
2B80
3600
0000
ENDCHAR

STARTCHAR jisx0208_305D
ENCODING 12381
SWIDTH 960 0
DWIDTH 10 0
BBX 10 10 0 -2
BITMAP
0000
3580
5B00
2FC0
7B00
2FC0
7B00
7B00
2FC0
0000
ENDCHAR

STARTCHAR jisx0208_305E
ENCODING 12382
SWIDTH 960 0
DWIDTH 10 0
BBX 10 10 0 -2
BITMAP
0000
3600
5F80
3580
7FC0
2D80
7F80
7580
2FC0
0000
ENDCHAR

STARTCHAR jisx0208_305F
ENCODING 12383
SWIDTH 960 0
DWIDTH 10 0
BBX 10 10 0 -2
BITMAP
0000
7F80
6D80
7F80
3300
3F00
3300
3F00
3300
0000
ENDCHAR

STARTCHAR jisx0208_3060
ENCODING 12384
SWIDTH 960 0
DWIDTH 10 0
BBX 10 10 0 -2
BITMAP
0000
1B00
7FC0
2C00
7FC0
2B00
7FC0
1B00
7DC0
0000
ENDCHAR

STARTCHAR jisx0208_3061
ENCODING 12385
SWIDTH 960 0
DWIDTH 10 0
BBX 10 10 0 -2
BITMAP
0000
0600
7FC0
0E00
16C0
7380
3300
3180
7CC0
0000
ENDCHAR

STARTCHAR jisx0208_3062
ENCODING 12386
SWIDTH 960 0
DWIDTH 10 0
BBX 10 10 0 -2
BITMAP
0000
2FC0
7AC0
0FC0
7AC0
0FC0
76C0
57C0
76C0
0000
ENDCHAR

STARTCHAR jisx0208_3063
ENCODING 12387
SWIDTH 960 0
DWIDTH 10 0
BBX 10 10 0 -2
BITMAP
0000
6F80
0580
1FC0
0D80
6F80
2FC0
3180
5FC0
0000
ENDCHAR

STARTCHAR jisx0208_3064
ENCODING 12388
SWIDTH 960 0
DWIDTH 10 0
BBX 10 10 0 -2
BITMAP
0000
6F80
0B80
1FC0
0580
7580
3780
2CC0
5FC0
0000
ENDCHAR

STARTCHAR jisx0208_3065
ENCODING 12389
SWIDTH 960 0
DWIDTH 10 0
BBX 10 10 0 -2
BITMAP
0000
7FC0
6C00
6F80
5600
5FC0
6700
5D80
7FC0
0000
ENDCHAR

STARTCHAR jisx0208_3066
ENCODING 12390
SWIDTH 960 0
DWIDTH 10 0
BBX 10 10 0 -2
BITMAP
0000
1B00
1B00
7FC0
1B00
1B00
7FC0
1B00
3300
0000
ENDCHAR

STARTCHAR jisx0208_3067
ENCODING 12391
SWIDTH 960 0
DWIDTH 10 0
BBX 10 10 0 -2
BITMAP
0000
0C00
7FC0
0D80
3B00
0E00
7980
0F00
7980
0000
ENDCHAR

STARTCHAR jisx0208_3068
ENCODING 12392
SWIDTH 960 0
DWIDTH 10 0
BBX 10 10 0 -2
BITMAP
0000
32C0
2FC0
7B00
2EC0
2B80
3F80
72C0
1EC0
0000
ENDCHAR

STARTCHAR jisx0208_3069
ENCODING 12393
SWIDTH 960 0
DWIDTH 10 0
BBX 10 10 0 -2
BITMAP
0000
0C00
7F80
1B00
7F80
3300
3F00
3300
3300
0000
ENDCHAR

STARTCHAR jisx0208_306A
ENCODING 12394
SWIDTH 960 0
DWIDTH 10 0
BBX 10 10 0 -2
BITMAP
0000
33C0
7AC0
32C0
3B80
6AC0
3AC0
2B80
2B00
0000
ENDCHAR

STARTCHAR jisx0208_306B
ENCODING 12395
SWIDTH 960 0
DWIDTH 10 0
BBX 10 10 0 -2
BITMAP
0000
06C0
7B80
2FC0
36C0
3FC0
6D80
2DC0
3AC0
0000
ENDCHAR

STARTCHAR jisx0208_306C
ENCODING 12396
SWIDTH 960 0
DWIDTH 10 0
BBX 10 10 0 -2
BITMAP
0000
0000
0000
0000
7FC0
0000
0000
0000
0000
0000
ENDCHAR

STARTCHAR jisx0208_306D
ENCODING 12397
SWIDTH 960 0
DWIDTH 10 0
BBX 10 10 0 -2
BITMAP
0000
0C00
7FC0
3F80
0C00
7FC0
5EC0
1800
1FC0
0000
ENDCHAR

STARTCHAR jisx0208_306E
ENCODING 12398
SWIDTH 960 0
DWIDTH 10 0
BBX 10 10 0 -2
BITMAP
0000
6CC0
0580
5FC0
0D80
18C0
2FC0
2AC0
5FC0
0000
ENDCHAR

STARTCHAR jisx0208_306F
ENCODING 12399
SWIDTH 960 0
DWIDTH 10 0
BBX 10 10 0 -2
BITMAP
0000
6700
0FC0
1AC0
0FC0
7580
2DC0
3000
5FC0
0000
ENDCHAR

STARTCHAR jisx0208_3070
ENCODING 12400
SWIDTH 960 0
DWIDTH 10 0
BBX 10 10 0 -2
BITMAP
0000
19C0
6EC0
3580
7BC0
2AC0
7BC0
2AC0
2BC0
0000
ENDCHAR

STARTCHAR jisx0208_3071
ENCODING 12401
SWIDTH 960 0
DWIDTH 10 0
BBX 10 10 0 -2
BITMAP
0000
1B00
7FC0
1B00
6600
07C0
2AC0
3300
6DC0
0000
ENDCHAR

STARTCHAR jisx0208_3072
ENCODING 12402
SWIDTH 960 0
DWIDTH 10 0
BBX 10 10 0 -2
BITMAP
0000
1B00
7FC0
1B00
3F80
0600
7FC0
0600
0E00
0000
ENDCHAR

STARTCHAR jisx0208_3073
ENCODING 12403
SWIDTH 960 0
DWIDTH 10 0
BBX 10 10 0 -2
BITMAP
0000
2DC0
76C0
7DC0
5D80
5DC0
76C0
06C0
5D80
0000
ENDCHAR

STARTCHAR jisx0208_3074
ENCODING 12404
SWIDTH 960 0
DWIDTH 10 0
BBX 10 10 0 -2
BITMAP
0000
0C00
0B00
1980
7FC0
16C0
1600
36C0
67C0
0000
ENDCHAR

STARTCHAR jisx0208_3075
ENCODING 12405
SWIDTH 960 0
DWIDTH 10 0
BBX 10 10 0 -2
BITMAP
0000
1800
77C0
66C0
76C0
66C0
66C0
75C0
0600
0000
ENDCHAR

STARTCHAR jisx0208_3076
ENCODING 12406
SWIDTH 960 0
DWIDTH 10 0
BBX 10 10 0 -2
BITMAP
0000
0FC0
7AC0
5AC0
5FC0
5AC0
5AC0
7DC0
0FC0
0000
ENDCHAR

STARTCHAR jisx0208_3077
ENCODING 12407
SWIDTH 960 0
DWIDTH 10 0
BBX 10 10 0 -2
BITMAP
0000
3F80
3180
3F80
1B00
1F00
1B00
1F00
71C0
0000
ENDCHAR

STARTCHAR jisx0208_3078
ENCODING 12408
SWIDTH 960 0
DWIDTH 10 0
BBX 10 10 0 -2
BITMAP
0000
7FC0
60C0
6CC0
7EC0
6CC0
56C0
72C0
7FC0
0000
ENDCHAR

STARTCHAR jisx0208_3079
ENCODING 12409
SWIDTH 960 0
DWIDTH 10 0
BBX 10 10 0 -2
BITMAP
0000
2FC0
2CC0
7AC0
3FC0
5AC0
5AC0
2DC0
5FC0
0000
ENDCHAR

STARTCHAR jisx0208_307A
ENCODING 12410
SWIDTH 960 0
DWIDTH 10 0
BBX 10 10 0 -2
BITMAP
0000
7CC0
0CC0
7CC0
60C0
7CC0
0CC0
0CC0
38C0
0000
ENDCHAR

STARTCHAR jisx0208_307B
ENCODING 12411
SWIDTH 960 0
DWIDTH 10 0
BBX 10 10 0 -2
BITMAP
0000
3600
57C0
2AC0
7B00
5B00
7B00
5580
6CC0
0000
ENDCHAR

STARTCHAR jisx0208_307C
ENCODING 12412
SWIDTH 960 0
DWIDTH 10 0
BBX 10 10 0 -2
BITMAP
0000
61C0
0EC0
6B80
0FC0
0300
2FC0
3300
6FC0
0000
ENDCHAR

STARTCHAR jisx0208_307D
ENCODING 12413
SWIDTH 960 0
DWIDTH 10 0
BBX 10 10 0 -2
BITMAP
0000
6D80
5580
6D80
7F80
5580
5D80
5580
55C0
0000
ENDCHAR

STARTCHAR jisx0208_307E
ENCODING 12414
SWIDTH 960 0
DWIDTH 10 0
BBX 10 10 0 -2
BITMAP
0000
1B00
7FC0
1B00
7580
5FC0
7300
5FC0
7780
0000
ENDCHAR

STARTCHAR jisx0208_3121
ENCODING 12577
SWIDTH 960 0
DWIDTH 10 0
BBX 10 10 0 -2
BITMAP
0000
7B00
5FC0
56C0
7000
5FC0
5580
7580
6DC0
0000
ENDCHAR

STARTCHAR jisx0208_3122
ENCODING 12578
SWIDTH 960 0
DWIDTH 10 0
BBX 10 10 0 -2
BITMAP
0000
7B00
5580
5AC0
7780
5980
5FC0
7580
6FC0
0000
ENDCHAR

STARTCHAR jisx0208_3123
ENCODING 12579
SWIDTH 960 0
DWIDTH 10 0
BBX 10 10 0 -2
BITMAP
0000
77C0
5AC0
57C0
70C0
57C0
5B00
6EC0
56C0
0000
ENDCHAR

STARTCHAR jisx0208_3124
ENCODING 12580
SWIDTH 960 0
DWIDTH 10 0
BBX 10 10 0 -2
BITMAP
0000
1BC0
7EC0
2BC0
7EC0
2BC0
3AC0
2BC0
3EC0
0000
ENDCHAR

STARTCHAR jisx0208_3125
ENCODING 12581
SWIDTH 960 0
DWIDTH 10 0
BBX 10 10 0 -2
BITMAP
0000
0180
7980
5FC0
5980
5580
5980
7980
0380
0000
ENDCHAR

STARTCHAR jisx0208_3126
ENCODING 12582
SWIDTH 960 0
DWIDTH 10 0
BBX 10 10 0 -2
BITMAP
0000
0C00
7FC0
0C00
1800
1F80
3980
5980
1F80
0000
ENDCHAR

STARTCHAR jisx0208_3127
ENCODING 12583
SWIDTH 960 0
DWIDTH 10 0
BBX 10 10 0 -2
BITMAP
0000
0C00
7FC0
60C0
1F80
0600
7FC0
0600
0E00
0000
ENDCHAR

STARTCHAR jisx0208_3128
ENCODING 12584
SWIDTH 960 0
DWIDTH 10 0
BBX 10 10 0 -2
BITMAP
0000
0C00
3F00
3300
3F00
3000
3FC0
00C0
5580
0000
ENDCHAR

STARTCHAR jisx0208_3129
ENCODING 12585
SWIDTH 960 0
DWIDTH 10 0
BBX 10 10 0 -2
BITMAP
0000
77C0
18C0
56C0
18C0
19C0
3AC0
56C0
18C0
0000
ENDCHAR

STARTCHAR jisx0208_312A
ENCODING 12586
SWIDTH 960 0
DWIDTH 10 0
BBX 10 10 0 -2
BITMAP
0000
6FC0
0300
1FC0
0300
7300
3700
3000
5FC0
0000
ENDCHAR

STARTCHAR jisx0208_312B
ENCODING 12587
SWIDTH 960 0
DWIDTH 10 0
BBX 10 10 0 -2
BITMAP
0000
7FC0
0C00
7FC0
6AC0
6CC0
6AC0
6CC0
6DC0
0000
ENDCHAR

STARTCHAR jisx0208_312C
ENCODING 12588
SWIDTH 960 0
DWIDTH 10 0
BBX 10 10 0 -2
BITMAP
0000
0C00
3BC0
2AC0
2AC0
2AC0
7AC0
1B00
3300
0000
ENDCHAR

STARTCHAR jisx0208_312D
ENCODING 12589
SWIDTH 960 0
DWIDTH 10 0
BBX 10 10 0 -2
BITMAP
0000
5980
7BC0
2AC0
7BC0
3300
7BC0
6CC0
35C0
0000
ENDCHAR

STARTCHAR jisx0208_312E
ENCODING 12590
SWIDTH 960 0
DWIDTH 10 0
BBX 10 10 0 -2
BITMAP
0000
0C00
7FC0
6AC0
7780
3580
7F80
3700
5BC0
0000
ENDCHAR

STARTCHAR jisx0208_312F
ENCODING 12591
SWIDTH 960 0
DWIDTH 10 0
BBX 10 10 0 -2
BITMAP
0000
3F80
0D80
0D80
7FC0
1B00
1B00
1B00
7FC0
0000
ENDCHAR

STARTCHAR jisx0208_3130
ENCODING 12592
SWIDTH 960 0
DWIDTH 10 0
BBX 10 10 0 -2
BITMAP
0000
7AC0
3580
2FC0
3D80
6FC0
2D80
2D80
3FC0
0000
ENDCHAR

STARTCHAR jisx0208_3131
ENCODING 12593
SWIDTH 960 0
DWIDTH 10 0
BBX 10 10 0 -2
BITMAP
0000
1C00
73C0
60C0
60C0
7BC0
60C0
60C0
7FC0
0000
ENDCHAR

STARTCHAR jisx0208_3132
ENCODING 12594
SWIDTH 960 0
DWIDTH 10 0
BBX 10 10 0 -2
BITMAP
0000
6F80
0D80
6B80
1FC0
18C0
16C0
56C0
58C0
0000
ENDCHAR

STARTCHAR jisx0208_3133
ENCODING 12595
SWIDTH 960 0
DWIDTH 10 0
BBX 10 10 0 -2
BITMAP
0000
0380
7FC0
5AC0
5F80
5B00
7AC0
1780
2FC0
0000
ENDCHAR

STARTCHAR jisx0208_3134
ENCODING 12596
SWIDTH 960 0
DWIDTH 10 0
BBX 10 10 0 -2
BITMAP
0000
07C0
76C0
57C0
56C0
57C0
76C0
07C0
0CC0
0000
ENDCHAR

STARTCHAR jisx0208_3135
ENCODING 12597
SWIDTH 960 0
DWIDTH 10 0
BBX 10 10 0 -2
BITMAP
0000
1580
7BC0
3580
7FC0
2AC0
3FC0
32C0
7DC0
0000
ENDCHAR

STARTCHAR jisx0208_3136
ENCODING 12598
SWIDTH 960 0
DWIDTH 10 0
BBX 10 10 0 -2
BITMAP
0000
0B00
7FC0
6B00
7CC0
63C0
7CC0
7AC0
58C0
0000
ENDCHAR

STARTCHAR jisx0208_3137
ENCODING 12599
SWIDTH 960 0
DWIDTH 10 0
BBX 10 10 0 -2
BITMAP
0000
3780
7580
7FC0
56C0
5FC0
7580
0300
5DC0
0000
ENDCHAR

STARTCHAR jisx0208_3138
ENCODING 12600
SWIDTH 960 0
DWIDTH 10 0
BBX 10 10 0 -2
BITMAP
0000
3300
3780
7AC0
3FC0
5B00
57C0
2B00
5BC0
0000
ENDCHAR

STARTCHAR jisx0208_3139
ENCODING 12601
SWIDTH 960 0
DWIDTH 10 0
BBX 10 10 0 -2
BITMAP
0000
3FC0
3000
3FC0
36C0
3FC0
3B80
3580
5DC0
0000
ENDCHAR

STARTCHAR jisx0208_313A
ENCODING 12602
SWIDTH 960 0
DWIDTH 10 0
BBX 10 10 0 -2
BITMAP
0000
62C0
0FC0
6300
0FC0
0AC0
2FC0
2AC0
6AC0
0000
ENDCHAR

STARTCHAR jisx0208_313B
ENCODING 12603
SWIDTH 960 0
DWIDTH 10 0
BBX 10 10 0 -2
BITMAP
0000
00C0
3F80
3580
3580
3580
36C0
36C0
6EC0
0000
ENDCHAR

STARTCHAR jisx0208_313C
ENCODING 12604
SWIDTH 960 0
DWIDTH 10 0
BBX 10 10 0 -2
BITMAP
0000
7BC0
5AC0
7BC0
5EC0
6CC0
5EC0
6CC0
5EC0
0000
ENDCHAR

STARTCHAR jisx0208_313D
ENCODING 12605
SWIDTH 960 0
DWIDTH 10 0
BBX 10 10 0 -2
BITMAP
0000
0B00
7FC0
5B80
5980
5F80
5FC0
7980
0580
0000
ENDCHAR

STARTCHAR jisx0208_313E
ENCODING 12606
SWIDTH 960 0
DWIDTH 10 0
BBX 10 10 0 -2
BITMAP
0000
3F80
0000
0000
7FC0
0C00
1B00
3180
7EC0
0000
ENDCHAR

STARTCHAR jisx0208_313F
ENCODING 12607
SWIDTH 960 0
DWIDTH 10 0
BBX 10 10 0 -2
BITMAP
0000
5FC0
1AC0
0F80
0B80
6B80
3FC0
3300
5FC0
0000
ENDCHAR

STARTCHAR jisx0208_3140
ENCODING 12608
SWIDTH 960 0
DWIDTH 10 0
BBX 10 10 0 -2
BITMAP
0000
3F80
0C00
7FC0
6AC0
0000
7FC0
1B00
3F80
0000
ENDCHAR

STARTCHAR jisx0208_3141
ENCODING 12609
SWIDTH 960 0
DWIDTH 10 0
BBX 10 10 0 -2
BITMAP
0000
1B00
7FC0
1800
2FC0
7300
2FC0
3300
2FC0
0000
ENDCHAR

STARTCHAR jisx0208_3142
ENCODING 12610
SWIDTH 960 0
DWIDTH 10 0
BBX 10 10 0 -2
BITMAP
0000
2FC0
5580
3780
7580
5780
75C0
6F80
7980
0000
ENDCHAR

STARTCHAR jisx0208_3143
ENCODING 12611
SWIDTH 960 0
DWIDTH 10 0
BBX 10 10 0 -2
BITMAP
0000
1800
7FC0
5AC0
3AC0
6EC0
3D80
2D80
2AC0
0000
ENDCHAR

STARTCHAR jisx0208_3144
ENCODING 12612
SWIDTH 960 0
DWIDTH 10 0
BBX 10 10 0 -2
BITMAP
0000
2D80
7FC0
5AC0
1F00
0C00
3F80
3180
3F80
0000
ENDCHAR

STARTCHAR jisx0208_3145
ENCODING 12613
SWIDTH 960 0
DWIDTH 10 0
BBX 10 10 0 -2
BITMAP
0000
3BC0
2AC0
3BC0
6EC0
7FC0
1B00
0F00
79C0
0000
ENDCHAR

STARTCHAR jisx0208_3146
ENCODING 12614
SWIDTH 960 0
DWIDTH 10 0
BBX 10 10 0 -2
BITMAP
0000
3EC0
3D80
3600
7EC0
3580
3E00
18C0
5580
0000
ENDCHAR

STARTCHAR jisx0208_3147
ENCODING 12615
SWIDTH 960 0
DWIDTH 10 0
BBX 10 10 0 -2
BITMAP
0000
0300
7FC0
5AC0
7AC0
5FC0
5B00
7580
0CC0
0000
ENDCHAR

STARTCHAR jisx0208_3148
ENCODING 12616
SWIDTH 960 0
DWIDTH 10 0
BBX 10 10 0 -2
BITMAP
0000
0C00
7F80
7F80
6D80
7F80
0B00
1EC0
73C0
0000
ENDCHAR

STARTCHAR jisx0208_3149
ENCODING 12617
SWIDTH 960 0
DWIDTH 10 0
BBX 10 10 0 -2
BITMAP
0000
2D80
7FC0
6CC0
3F80
1E00
2B00
6DC0
0C00
0000
ENDCHAR

STARTCHAR jisx0208_314A
ENCODING 12618
SWIDTH 960 0
DWIDTH 10 0
BBX 10 10 0 -2
BITMAP
0000
0C00
0000
1D80
7B00
1E00
2B00
6DC0
1C00
0000
ENDCHAR

STARTCHAR jisx0208_314B
ENCODING 12619
SWIDTH 960 0
DWIDTH 10 0
BBX 10 10 0 -2
BITMAP
0000
6700
0000
0F00
62C0
1B80
2B80
2AC0
56C0
0000
ENDCHAR

STARTCHAR jisx0208_314C
ENCODING 12620
SWIDTH 960 0
DWIDTH 10 0
BBX 10 10 0 -2
BITMAP
0000
6600
1F80
1F80
5580
1F80
3580
36C0
5DC0
0000
ENDCHAR

STARTCHAR jisx0208_314D
ENCODING 12621
SWIDTH 960 0
DWIDTH 10 0
BBX 10 10 0 -2
BITMAP
0000
0580
7FC0
3580
2FC0
7AC0
2FC0
3B00
6DC0
0000
ENDCHAR

STARTCHAR jisx0208_314E
ENCODING 12622
SWIDTH 960 0
DWIDTH 10 0
BBX 10 10 0 -2
BITMAP
0000
7F00
3300
3BC0
6CC0
1580
3FC0
2AC0
7FC0
0000
ENDCHAR

STARTCHAR jisx0208_314F
ENCODING 12623
SWIDTH 960 0
DWIDTH 10 0
BBX 10 10 0 -2
BITMAP
0000
77C0
6300
77C0
16C0
77C0
36C0
77C0
2CC0
0000
ENDCHAR

STARTCHAR jisx0208_3150
ENCODING 12624
SWIDTH 960 0
DWIDTH 10 0
BBX 10 10 0 -2
BITMAP
0000
77C0
6300
77C0
06C0
77C0
36C0
77C0
2CC0
0000
ENDCHAR

STARTCHAR jisx0208_3151
ENCODING 12625
SWIDTH 960 0
DWIDTH 10 0
BBX 10 10 0 -2
BITMAP
0000
3300
7FC0
2B00
3F80
2D80
7FC0
1B00
71C0
0000
ENDCHAR

STARTCHAR jisx0208_3152
ENCODING 12626
SWIDTH 960 0
DWIDTH 10 0
BBX 10 10 0 -2
BITMAP
0000
2DC0
5F00
2BC0
7EC0
2AC0
2EC0
3EC0
35C0
0000
ENDCHAR

STARTCHAR jisx0208_3153
ENCODING 12627
SWIDTH 960 0
DWIDTH 10 0
BBX 10 10 0 -2
BITMAP
0000
3300
7800
0700
7AC0
0F80
7780
5AC0
7B00
0000
ENDCHAR

STARTCHAR jisx0208_3154
ENCODING 12628
SWIDTH 960 0
DWIDTH 10 0
BBX 10 10 0 -2
BITMAP
0000
3580
5FC0
7CC0
2FC0
7580
3580
7580
6DC0
0000
ENDCHAR

STARTCHAR jisx0208_3155
ENCODING 12629
SWIDTH 960 0
DWIDTH 10 0
BBX 10 10 0 -2
BITMAP
0000
6600
1FC0
6B00
1BC0
36C0
1580
5B00
55C0
0000
ENDCHAR

STARTCHAR jisx0208_3156
ENCODING 12630
SWIDTH 960 0
DWIDTH 10 0
BBX 10 10 0 -2
BITMAP
0000
0600
3FC0
2F80
6DC0
3F80
6D80
3700
5DC0
0000
ENDCHAR

STARTCHAR jisx0208_3157
ENCODING 12631
SWIDTH 960 0
DWIDTH 10 0
BBX 10 10 0 -2
BITMAP
0000
1B00
7FC0
1B00
3180
7FC0
2D80
2D80
7FC0
0000
ENDCHAR

STARTCHAR jisx0208_3158
ENCODING 12632
SWIDTH 960 0
DWIDTH 10 0
BBX 10 10 0 -2
BITMAP
0000
7FC0
56C0
7EC0
57C0
7D80
0D80
6EC0
1CC0
0000
ENDCHAR

STARTCHAR jisx0208_3159
ENCODING 12633
SWIDTH 960 0
DWIDTH 10 0
BBX 10 10 0 -2
BITMAP
0000
2CC0
3580
7FC0
6CC0
2FC0
3580
3580
2DC0
0000
ENDCHAR

STARTCHAR jisx0208_315A
ENCODING 12634
SWIDTH 960 0
DWIDTH 10 0
BBX 10 10 0 -2
BITMAP
0000
3780
7580
0780
7580
0FC0
76C0
56C0
7780
0000
ENDCHAR

STARTCHAR jisx0208_315B
ENCODING 12635
SWIDTH 960 0
DWIDTH 10 0
BBX 10 10 0 -2
BITMAP
0000
32C0
7FC0
2B00
7AC0
2D80
7B80
6EC0
5FC0
0000
ENDCHAR

STARTCHAR jisx0208_315C
ENCODING 12636
SWIDTH 960 0
DWIDTH 10 0
BBX 10 10 0 -2
BITMAP
0000
7BC0
5AC0
7BC0
5EC0
5AC0
5EC0
6EC0
56C0
0000
ENDCHAR

STARTCHAR jisx0208_315D
ENCODING 12637
SWIDTH 960 0
DWIDTH 10 0
BBX 10 10 0 -2
BITMAP
0000
2FC0
7600
2FC0
7CC0
6FC0
3580
2B00
2DC0
0000
ENDCHAR

STARTCHAR jisx0208_315E
ENCODING 12638
SWIDTH 960 0
DWIDTH 10 0
BBX 10 10 0 -2
BITMAP
0000
3FC0
2D80
3DC0
2FC0
3D80
2D80
3AC0
6AC0
0000
ENDCHAR

STARTCHAR jisx0208_315F
ENCODING 12639
SWIDTH 960 0
DWIDTH 10 0
BBX 10 10 0 -2
BITMAP
0000
7FC0
6CC0
6CC0
7FC0
60C0
60C0
60C0
61C0
0000
ENDCHAR

STARTCHAR jisx0208_3160
ENCODING 12640
SWIDTH 960 0
DWIDTH 10 0
BBX 10 10 0 -2
BITMAP
0000
7FC0
5EC0
6CC0
7FC0
5AC0
5EC0
6DC0
7FC0
0000
ENDCHAR

STARTCHAR jisx0208_3161
ENCODING 12641
SWIDTH 960 0
DWIDTH 10 0
BBX 10 10 0 -2
BITMAP
0000
2FC0
2AC0
7BC0
2AC0
2FC0
3B80
6EC0
0FC0
0000
ENDCHAR

STARTCHAR jisx0208_3162
ENCODING 12642
SWIDTH 960 0
DWIDTH 10 0
BBX 10 10 0 -2
BITMAP
0000
0C00
7FC0
2B00
7F80
2AC0
3F00
0CC0
0FC0
0000
ENDCHAR

STARTCHAR jisx0208_3163
ENCODING 12643
SWIDTH 960 0
DWIDTH 10 0
BBX 10 10 0 -2
BITMAP
0000
0C00
7FC0
5EC0
1B00
7FC0
1B00
0F00
79C0
0000
ENDCHAR

STARTCHAR jisx0208_3164
ENCODING 12644
SWIDTH 960 0
DWIDTH 10 0
BBX 10 10 0 -2
BITMAP
0000
78C0
1780
3180
75C0
1580
77C0
3800
6FC0
0000
ENDCHAR

STARTCHAR jisx0208_3165
ENCODING 12645
SWIDTH 960 0
DWIDTH 10 0
BBX 10 10 0 -2
BITMAP
0000
3BC0
6AC0
3B00
32C0
63C0
1600
58C0
5EC0
0000
ENDCHAR

STARTCHAR jisx0208_3166
ENCODING 12646
SWIDTH 960 0
DWIDTH 10 0
BBX 10 10 0 -2
BITMAP
0000
3300
7FC0
3580
3FC0
6AC0
2FC0
3300
73C0
0000
ENDCHAR

STARTCHAR jisx0208_3167
ENCODING 12647
SWIDTH 960 0
DWIDTH 10 0
BBX 10 10 0 -2
BITMAP
0000
33C0
7580
2FC0
3B00
6FC0
32C0
3580
6AC0
0000
ENDCHAR

STARTCHAR jisx0208_3168
ENCODING 12648
SWIDTH 960 0
DWIDTH 10 0
BBX 10 10 0 -2
BITMAP
0000
6B80
0D80
58C0
0000
0F80
2D80
2D80
6F80
0000
ENDCHAR

STARTCHAR jisx0208_3169
ENCODING 12649
SWIDTH 960 0
DWIDTH 10 0
BBX 10 10 0 -2
BITMAP
0000
6600
1FC0
56C0
0F80
0D80
2D80
2F80
58C0
0000
ENDCHAR

STARTCHAR jisx0208_316A
ENCODING 12650
SWIDTH 960 0
DWIDTH 10 0
BBX 10 10 0 -2
BITMAP
0000
16C0
3580
0B00
79C0
1600
3580
0B00
79C0
0000
ENDCHAR

STARTCHAR jisx0208_316B
ENCODING 12651
SWIDTH 960 0
DWIDTH 10 0
BBX 10 10 0 -2
BITMAP
0000
33C0
36C0
7980
2BC0
2AC0
2BC0
5AC0
6BC0
0000
ENDCHAR

STARTCHAR jisx0208_316C
ENCODING 12652
SWIDTH 960 0
DWIDTH 10 0
BBX 10 10 0 -2
BITMAP
0000
2FC0
3580
7FC0
2FC0
3300
3780
5B00
6FC0
0000
ENDCHAR

STARTCHAR jisx0208_316D
ENCODING 12653
SWIDTH 960 0
DWIDTH 10 0
BBX 10 10 0 -2
BITMAP
0000
0B00
7FC0
0B00
7FC0
1B00
6FC0
0000
6AC0
0000
ENDCHAR

STARTCHAR jisx0208_316E
ENCODING 12654
SWIDTH 960 0
DWIDTH 10 0
BBX 10 10 0 -2
BITMAP
0000
3180
17C0
3980
5FC0
36C0
57C0
1D80
36C0
0000
ENDCHAR

STARTCHAR jisx0208_316F
ENCODING 12655
SWIDTH 960 0
DWIDTH 10 0
BBX 10 10 0 -2
BITMAP
0000
3780
5980
2FC0
76C0
2B80
7780
7B80
36C0
0000
ENDCHAR

STARTCHAR jisx0208_3170
ENCODING 12656
SWIDTH 960 0
DWIDTH 10 0
BBX 10 10 0 -2
BITMAP
0000
2B00
7F80
6D80
6FC0
7AC0
3FC0
2C00
7FC0
0000
ENDCHAR

STARTCHAR jisx0208_3171
ENCODING 12657
SWIDTH 960 0
DWIDTH 10 0
BBX 10 10 0 -2
BITMAP
0000
1B00
7FC0
1B00
3BC0
2AC0
5AC0
1B00
73C0
0000
ENDCHAR

STARTCHAR jisx0208_3172
ENCODING 12658
SWIDTH 960 0
DWIDTH 10 0
BBX 10 10 0 -2
BITMAP
0000
1B00
7FC0
1B00
7FC0
5AC0
5EC0
6BC0
7FC0
0000
ENDCHAR

STARTCHAR jisx0208_3173
ENCODING 12659
SWIDTH 960 0
DWIDTH 10 0
BBX 10 10 0 -2
BITMAP
0000
6300
0F80
0300
1FC0
6D80
2F80
2AC0
5FC0
0000
ENDCHAR

STARTCHAR jisx0208_3174
ENCODING 12660
SWIDTH 960 0
DWIDTH 10 0
BBX 10 10 0 -2
BITMAP
0000
3780
5980
7580
2CC0
77C0
36C0
76C0
77C0
0000
ENDCHAR

STARTCHAR jisx0208_3175
ENCODING 12661
SWIDTH 960 0
DWIDTH 10 0
BBX 10 10 0 -2
BITMAP
0000
3BC0
6AC0
1700
6FC0
1B00
1FC0
00C0
5580
0000
ENDCHAR

STARTCHAR jisx0208_3176
ENCODING 12662
SWIDTH 960 0
DWIDTH 10 0
BBX 10 10 0 -2
BITMAP
0000
3600
2FC0
7580
3780
3800
6FC0
0AC0
1FC0
0000
ENDCHAR

STARTCHAR jisx0208_3177
ENCODING 12663
SWIDTH 960 0
DWIDTH 10 0
BBX 10 10 0 -2
BITMAP
0000
3300
7D80
30C0
3B00
2D80
2C00
2B00
5980
0000
ENDCHAR

STARTCHAR jisx0208_3178
ENCODING 12664
SWIDTH 960 0
DWIDTH 10 0
BBX 10 10 0 -2
BITMAP
0000
6FC0
0300
1FC0
6600
07C0
2CC0
30C0
6380
0000
ENDCHAR

STARTCHAR jisx0208_3179
ENCODING 12665
SWIDTH 960 0
DWIDTH 10 0
BBX 10 10 0 -2
BITMAP
0000
6FC0
7AC0
2FC0
2AC0
7FC0
32C0
36C0
6D80
0000
ENDCHAR

STARTCHAR jisx0208_317A
ENCODING 12666
SWIDTH 960 0
DWIDTH 10 0
BBX 10 10 0 -2
BITMAP
0000
7BC0
5AC0
5AC0
5EC0
60C0
60C0
60C0
7FC0
0000
ENDCHAR

STARTCHAR jisx0208_317B
ENCODING 12667
SWIDTH 960 0
DWIDTH 10 0
BBX 10 10 0 -2
BITMAP
0000
0C00
3F80
2D80
2D80
7FC0
0C00
1600
73C0
0000
ENDCHAR

STARTCHAR jisx0208_317C
ENCODING 12668
SWIDTH 960 0
DWIDTH 10 0
BBX 10 10 0 -2
BITMAP
0000
0C00
3F80
3580
2B80
3580
7FC0
1B00
71C0
0000
ENDCHAR

STARTCHAR jisx0208_317D
ENCODING 12669
SWIDTH 960 0
DWIDTH 10 0
BBX 10 10 0 -2
BITMAP
0000
3300
5FC0
3300
7300
2FC0
3300
3300
2FC0
0000
ENDCHAR

STARTCHAR jisx0208_317E
ENCODING 12670
SWIDTH 960 0
DWIDTH 10 0
BBX 10 10 0 -2
BITMAP
0000
0600
3FC0
3000
3580
3600
3600
36C0
56C0
0000
ENDCHAR

STARTCHAR jisx0208_3221
ENCODING 12833
SWIDTH 960 0
DWIDTH 10 0
BBX 10 10 0 -2
BITMAP
0000
2FC0
7AC0
2FC0
3AC0
6FC0
3300
3300
7300
0000
ENDCHAR

STARTCHAR jisx0208_3222
ENCODING 12834
SWIDTH 960 0
DWIDTH 10 0
BBX 10 10 0 -2
BITMAP
0000
0FC0
7B00
5B00
77C0
5B00
5B00
7B00
0FC0
0000
ENDCHAR

STARTCHAR jisx0208_3223
ENCODING 12835
SWIDTH 960 0
DWIDTH 10 0
BBX 10 10 0 -2
BITMAP
0000
3580
7FC0
3580
7FC0
6FC0
2AC0
2FC0
38C0
0000
ENDCHAR

STARTCHAR jisx0208_3224
ENCODING 12836
SWIDTH 960 0
DWIDTH 10 0
BBX 10 10 0 -2
BITMAP
0000
7E00
67C0
6AC0
5B00
6B00
6300
7D80
0CC0
0000
ENDCHAR

STARTCHAR jisx0208_3225
ENCODING 12837
SWIDTH 960 0
DWIDTH 10 0
BBX 10 10 0 -2
BITMAP
0000
7F80
6580
6DC0
5800
6FC0
62C0
7D80
06C0
0000
ENDCHAR

STARTCHAR jisx0208_3226
ENCODING 12838
SWIDTH 960 0
DWIDTH 10 0
BBX 10 10 0 -2
BITMAP
0000
7FC0
0C00
0C00
7F80
0C00
0C00
0C00
7FC0
0000
ENDCHAR

STARTCHAR jisx0208_3227
ENCODING 12839
SWIDTH 960 0
DWIDTH 10 0
BBX 10 10 0 -2
BITMAP
0000
1700
2D80
56C0
7FC0
0CC0
2AC0
1DC0
6AC0
0000
ENDCHAR

STARTCHAR jisx0208_3228
ENCODING 12840
SWIDTH 960 0
DWIDTH 10 0
BBX 10 10 0 -2
BITMAP
0000
3600
7FC0
1AC0
2DC0
7AC0
3FC0
3300
2DC0
0000
ENDCHAR

STARTCHAR jisx0208_3229
ENCODING 12841
SWIDTH 960 0
DWIDTH 10 0
BBX 10 10 0 -2
BITMAP
0000
1580
7FC0
6CC0
1F80
1980
1F80
1FC0
56C0
0000
ENDCHAR

STARTCHAR jisx0208_322A
ENCODING 12842
SWIDTH 960 0
DWIDTH 10 0
BBX 10 10 0 -2
BITMAP
0000
7D80
63C0
6AC0
5BC0
6B00
63C0
7CC0
05C0
0000
ENDCHAR

STARTCHAR jisx0208_322B
ENCODING 12843
SWIDTH 960 0
DWIDTH 10 0
BBX 10 10 0 -2
BITMAP
0000
1B00
7FC0
1B00
7FC0
2D80
2D80
3F80
60C0
0000
ENDCHAR

STARTCHAR jisx0208_322C
ENCODING 12844
SWIDTH 960 0
DWIDTH 10 0
BBX 10 10 0 -2
BITMAP
0000
7FC0
72C0
56C0
7FC0
6CC0
6AC0
7EC0
60C0
0000
ENDCHAR

STARTCHAR jisx0208_322D
ENCODING 12845
SWIDTH 960 0
DWIDTH 10 0
BBX 10 10 0 -2
BITMAP
0000
6300
0FC0
6AC0
0AC0
0FC0
3300
3300
6300
0000
ENDCHAR

STARTCHAR jisx0208_322E
ENCODING 12846
SWIDTH 960 0
DWIDTH 10 0
BBX 10 10 0 -2
BITMAP
0000
1980
7FC0
5980
2AC0
5AC0
3B00
5580
3CC0
0000
ENDCHAR

STARTCHAR jisx0208_322F
ENCODING 12847
SWIDTH 960 0
DWIDTH 10 0
BBX 10 10 0 -2
BITMAP
0000
1B00
2FC0
7580
3FC0
2D80
2F80
2CC0
37C0
0000
ENDCHAR

STARTCHAR jisx0208_3230
ENCODING 12848
SWIDTH 960 0
DWIDTH 10 0
BBX 10 10 0 -2
BITMAP
0000
3FC0
30C0
3FC0
2D80
3FC0
2F80
3300
5FC0
0000
ENDCHAR

STARTCHAR jisx0208_3231
ENCODING 12849
SWIDTH 960 0
DWIDTH 10 0
BBX 10 10 0 -2
BITMAP
0000
3300
2FC0
7580
6FC0
2D80
2F80
2CC0
37C0
0000
ENDCHAR

STARTCHAR jisx0208_3232
ENCODING 12850
SWIDTH 960 0
DWIDTH 10 0
BBX 10 10 0 -2
BITMAP
0000
7B00
5FC0
7580
5FC0
7580
5780
56C0
5BC0
0000
ENDCHAR

STARTCHAR jisx0208_3233
ENCODING 12851
SWIDTH 960 0
DWIDTH 10 0
BBX 10 10 0 -2
BITMAP
0000
3780
7B00
2FC0
7AC0
6FC0
2AC0
2FC0
2AC0
0000
ENDCHAR

STARTCHAR jisx0208_3234
ENCODING 12852
SWIDTH 960 0
DWIDTH 10 0
BBX 10 10 0 -2
BITMAP
0000
5B00
7B00
5B00
1FC0
7B00
1B00
1B00
1FC0
0000
ENDCHAR

STARTCHAR jisx0208_3235
ENCODING 12853
SWIDTH 960 0
DWIDTH 10 0
BBX 10 10 0 -2
BITMAP
0000
7F80
0300
0E00
1800
3000
60C0
60C0
3F80
0000
ENDCHAR

STARTCHAR jisx0208_3236
ENCODING 12854
SWIDTH 960 0
DWIDTH 10 0
BBX 10 10 0 -2
BITMAP
0000
1B00
2FC0
7580
3FC0
2AC0
2FC0
3300
33C0
0000
ENDCHAR

STARTCHAR jisx0208_3237
ENCODING 12855
SWIDTH 960 0
DWIDTH 10 0
BBX 10 10 0 -2
BITMAP
0000
3000
3BC0
5AC0
7EC0
1AC0
5AC0
5AC0
7B00
0000
ENDCHAR

STARTCHAR jisx0208_3238
ENCODING 12856
SWIDTH 960 0
DWIDTH 10 0
BBX 10 10 0 -2
BITMAP
0000
3F80
3580
3F80
2B80
3F80
1600
58C0
5EC0
0000
ENDCHAR

STARTCHAR jisx0208_3239
ENCODING 12857
SWIDTH 960 0
DWIDTH 10 0
BBX 10 10 0 -2
BITMAP
0000
6F80
0F80
0D80
6F80
0000
2FC0
2AC0
5FC0
0000
ENDCHAR

STARTCHAR jisx0208_323A
ENCODING 12858
SWIDTH 960 0
DWIDTH 10 0
BBX 10 10 0 -2
BITMAP
0000
18C0
6F80
35C0
77C0
30C0
77C0
3300
2BC0
0000
ENDCHAR

STARTCHAR jisx0208_323B
ENCODING 12859
SWIDTH 960 0
DWIDTH 10 0
BBX 10 10 0 -2
BITMAP
0000
0C00
7FC0
1B00
7FC0
3180
3F80
3180
3F80
0000
ENDCHAR

STARTCHAR jisx0208_323C
ENCODING 12860
SWIDTH 960 0
DWIDTH 10 0
BBX 10 10 0 -2
BITMAP
0000
7FC0
0C00
0E00
0B00
0D80
0C00
0C00
0C00
0000
ENDCHAR

STARTCHAR jisx0208_323D
ENCODING 12861
SWIDTH 960 0
DWIDTH 10 0
BBX 10 10 0 -2
BITMAP
0000
1600
3600
76C0
3780
3600
3600
36C0
37C0
0000
ENDCHAR

STARTCHAR jisx0208_323E
ENCODING 12862
SWIDTH 960 0
DWIDTH 10 0
BBX 10 10 0 -2
BITMAP
0000
17C0
3600
77C0
36C0
36C0
2B80
3B80
36C0
0000
ENDCHAR

STARTCHAR jisx0208_323F
ENCODING 12863
SWIDTH 960 0
DWIDTH 10 0
BBX 10 10 0 -2
BITMAP
0000
1800
2FC0
70C0
2EC0
2AC0
2EC0
30C0
31C0
0000
ENDCHAR

STARTCHAR jisx0208_3240
ENCODING 12864
SWIDTH 960 0
DWIDTH 10 0
BBX 10 10 0 -2
BITMAP
0000
1C00
2C00
7FC0
2AC0
2AC0
2AC0
2AC0
35C0
0000
ENDCHAR

STARTCHAR jisx0208_3241
ENCODING 12865
SWIDTH 960 0
DWIDTH 10 0
BBX 10 10 0 -2
BITMAP
0000
1FC0
2B00
6B00
3FC0
2AC0
2AC0
2AC0
3FC0
0000
ENDCHAR

STARTCHAR jisx0208_3242
ENCODING 12866
SWIDTH 960 0
DWIDTH 10 0
BBX 10 10 0 -2
BITMAP
0000
1B00
2FC0
7300
2FC0
3300
2FC0
3300
2FC0
0000
ENDCHAR

STARTCHAR jisx0208_3243
ENCODING 12867
SWIDTH 960 0
DWIDTH 10 0
BBX 10 10 0 -2
BITMAP
0000
3000
7BC0
2AC0
2AC0
2AC0
2AC0
2AC0
5BC0
0000
ENDCHAR

STARTCHAR jisx0208_3244
ENCODING 12868
SWIDTH 960 0
DWIDTH 10 0
BBX 10 10 0 -2
BITMAP
0000
7FC0
0180
3D80
2D80
2D80
3D80
0180
0380
0000
ENDCHAR

STARTCHAR jisx0208_3245
ENCODING 12869
SWIDTH 960 0
DWIDTH 10 0
BBX 10 10 0 -2
BITMAP
0000
0C00
7FC0
0C00
3F80
3180
7FC0
2AC0
5BC0
0000
ENDCHAR

STARTCHAR jisx0208_3246
ENCODING 12870
SWIDTH 960 0
DWIDTH 10 0
BBX 10 10 0 -2
BITMAP
0000
7FC0
0C00
3F80
3180
3F80
1B00
0E00
7BC0
0000
ENDCHAR

STARTCHAR jisx0208_3247
ENCODING 12871
SWIDTH 960 0
DWIDTH 10 0
BBX 10 10 0 -2
BITMAP
0000
3300
2FC0
7CC0
3780
56C0
7B80
3780
5AC0
0000
ENDCHAR

STARTCHAR jisx0208_3248
ENCODING 12872
SWIDTH 960 0
DWIDTH 10 0
BBX 10 10 0 -2
BITMAP
0000
0C00
7FC0
5EC0
1600
6EC0
1580
7580
1CC0
0000
ENDCHAR

STARTCHAR jisx0208_3249
ENCODING 12873
SWIDTH 960 0
DWIDTH 10 0
BBX 10 10 0 -2
BITMAP
0000
0C00
7FC0
5EC0
1B00
7FC0
3180
7EC0
1B00
0000
ENDCHAR

STARTCHAR jisx0208_324A
ENCODING 12874
SWIDTH 960 0
DWIDTH 10 0
BBX 10 10 0 -2
BITMAP
0000
1980
7580
3180
7580
31C0
7780
3180
3180
0000
ENDCHAR

STARTCHAR jisx0208_324B
ENCODING 12875
SWIDTH 960 0
DWIDTH 10 0
BBX 10 10 0 -2
BITMAP
0000
1DC0
76C0
5DC0
7800
5FC0
5AC0
7D80
1AC0
0000
ENDCHAR

STARTCHAR jisx0208_324C
ENCODING 12876
SWIDTH 960 0
DWIDTH 10 0
BBX 10 10 0 -2
BITMAP
0000
3F80
2D80
3F80
2D80
7FC0
1E00
2B00
6DC0
0000
ENDCHAR

STARTCHAR jisx0208_324D
ENCODING 12877
SWIDTH 960 0
DWIDTH 10 0
BBX 10 10 0 -2
BITMAP
0000
3000
7BC0
2AC0
5AC0
7FC0
1E00
2B00
6DC0
0000
ENDCHAR

STARTCHAR jisx0208_324E
ENCODING 12878
SWIDTH 960 0
DWIDTH 10 0
BBX 10 10 0 -2
BITMAP
0000
7F00
0BC0
2EC0
0B00
7F00
0D80
2D80
0CC0
0000
ENDCHAR

STARTCHAR jisx0208_324F
ENCODING 12879
SWIDTH 960 0
DWIDTH 10 0
BBX 10 10 0 -2
BITMAP
0000
5FC0
0180
5D80
1580
1580
1D80
6180
6380
0000
ENDCHAR

STARTCHAR jisx0208_3250
ENCODING 12880
SWIDTH 960 0
DWIDTH 10 0
BBX 10 10 0 -2
BITMAP
0000
0C00
2D80
2B00
6E00
1600
1600
3300
61C0
0000
ENDCHAR

STARTCHAR jisx0208_3251
ENCODING 12881
SWIDTH 960 0
DWIDTH 10 0
BBX 10 10 0 -2
BITMAP
0000
7FC0
30C0
2EC0
7AC0
2EC0
38C0
70C0
01C0
0000
ENDCHAR

STARTCHAR jisx0208_3252
ENCODING 12882
SWIDTH 960 0
DWIDTH 10 0
BBX 10 10 0 -2
BITMAP
0000
3780
7580
1580
2FC0
7CC0
3AC0
2CC0
2DC0
0000
ENDCHAR

STARTCHAR jisx0208_3253
ENCODING 12883
SWIDTH 960 0
DWIDTH 10 0
BBX 10 10 0 -2
BITMAP
0000
0700
7C00
0C00
7FC0
1E00
2B00
6D80
0C00
0000
ENDCHAR

STARTCHAR jisx0208_3254
ENCODING 12884
SWIDTH 960 0
DWIDTH 10 0
BBX 10 10 0 -2
BITMAP
0000
1B00
6FC0
2AC0
7700
2AC0
7780
2AC0
36C0
0000
ENDCHAR

STARTCHAR jisx0208_3255
ENCODING 12885
SWIDTH 960 0
DWIDTH 10 0
BBX 10 10 0 -2
BITMAP
0000
3300
3FC0
5980
3FC0
36C0
3FC0
2AC0
3FC0
0000
ENDCHAR

STARTCHAR jisx0208_3256
ENCODING 12886
SWIDTH 960 0
DWIDTH 10 0
BBX 10 10 0 -2
BITMAP
0000
1B00
7FC0
1B00
16C0
3780
7600
36C0
37C0
0000
ENDCHAR

STARTCHAR jisx0208_3257
ENCODING 12887
SWIDTH 960 0
DWIDTH 10 0
BBX 10 10 0 -2
BITMAP
0000
1B00
7FC0
1B00
7FC0
3D80
2D80
3D80
0380
0000
ENDCHAR

STARTCHAR jisx0208_3258
ENCODING 12888
SWIDTH 960 0
DWIDTH 10 0
BBX 10 10 0 -2
BITMAP
0000
1B00
7FC0
1B00
3000
7BC0
2AC0
2AC0
5BC0
0000
ENDCHAR

STARTCHAR jisx0208_3259
ENCODING 12889
SWIDTH 960 0
DWIDTH 10 0
BBX 10 10 0 -2
BITMAP
0000
1B00
7FC0
1B00
3FC0
6EC0
2AC0
2EC0
31C0
0000
ENDCHAR

STARTCHAR jisx0208_325A
ENCODING 12890
SWIDTH 960 0
DWIDTH 10 0
BBX 10 10 0 -2
BITMAP
0000
1600
7FC0
1600
7F80
2B00
7FC0
2B00
7F80
0000
ENDCHAR

STARTCHAR jisx0208_325B
ENCODING 12891
SWIDTH 960 0
DWIDTH 10 0
BBX 10 10 0 -2
BITMAP
0000
1600
7FC0
2D80
3F80
2D80
7FC0
1B00
6DC0
0000
ENDCHAR

STARTCHAR jisx0208_325C
ENCODING 12892
SWIDTH 960 0
DWIDTH 10 0
BBX 10 10 0 -2
BITMAP
0000
2FC0
2AC0
7FC0
5C00
7FC0
2AC0
2D80
7AC0
0000
ENDCHAR

STARTCHAR jisx0208_325D
ENCODING 12893
SWIDTH 960 0
DWIDTH 10 0
BBX 10 10 0 -2
BITMAP
0000
2FC0
7AC0
0FC0
7AC0
1FC0
7780
5AC0
7B00
0000
ENDCHAR

STARTCHAR jisx0208_325E
ENCODING 12894
SWIDTH 960 0
DWIDTH 10 0
BBX 10 10 0 -2
BITMAP
0000
0B00
7FC0
5580
5FC0
5580
7FC0
0600
1FC0
0000
ENDCHAR

STARTCHAR jisx0208_325F
ENCODING 12895
SWIDTH 960 0
DWIDTH 10 0
BBX 10 10 0 -2
BITMAP
0000
16C0
3780
76C0
3FC0
3F80
3180
3F80
60C0
0000
ENDCHAR

STARTCHAR jisx0208_3260
ENCODING 12896
SWIDTH 960 0
DWIDTH 10 0
BBX 10 10 0 -2
BITMAP
0000
6C00
1FC0
0AC0
0AC0
6AC0
37C0
3000
5FC0
0000
ENDCHAR

STARTCHAR jisx0208_3261
ENCODING 12897
SWIDTH 960 0
DWIDTH 10 0
BBX 10 10 0 -2
BITMAP
0000
6780
0580
0580
0FC0
6CC0
2AC0
3000
5FC0
0000
ENDCHAR

STARTCHAR jisx0208_3262
ENCODING 12898
SWIDTH 960 0
DWIDTH 10 0
BBX 10 10 0 -2
BITMAP
0000
3F80
0C00
7FC0
6AC0
77C0
56C0
7B80
6EC0
0000
ENDCHAR

STARTCHAR jisx0208_3263
ENCODING 12899
SWIDTH 960 0
DWIDTH 10 0
BBX 10 10 0 -2
BITMAP
0000
3180
3180
7FC0
6AC0
7AC0
3180
2D80
7AC0
0000
ENDCHAR

STARTCHAR jisx0208_3264
ENCODING 12900
SWIDTH 960 0
DWIDTH 10 0
BBX 10 10 0 -2
BITMAP
0000
1700
2AC0
7FC0
2D80
2DC0
3D80
2D80
2AC0
0000
ENDCHAR

STARTCHAR jisx0208_3265
ENCODING 12901
SWIDTH 960 0
DWIDTH 10 0
BBX 10 10 0 -2
BITMAP
0000
3580
2D80
2FC0
5580
57C0
5DC0
7580
0EC0
0000
ENDCHAR

STARTCHAR jisx0208_3266
ENCODING 12902
SWIDTH 960 0
DWIDTH 10 0
BBX 10 10 0 -2
BITMAP
0000
0AC0
7B00
1B00
7FC0
1B00
7AC0
1980
36C0
0000
ENDCHAR

STARTCHAR jisx0208_3267
ENCODING 12903
SWIDTH 960 0
DWIDTH 10 0
BBX 10 10 0 -2
BITMAP
0000
1F80
1B00
1B00
7FC0
0700
1B00
7300
0700
0000
ENDCHAR

STARTCHAR jisx0208_3268
ENCODING 12904
SWIDTH 960 0
DWIDTH 10 0
BBX 10 10 0 -2
BITMAP
0000
7FC0
0C00
1F00
5AC0
5AC0
5EC0
60C0
7FC0
0000
ENDCHAR

STARTCHAR jisx0208_3269
ENCODING 12905
SWIDTH 960 0
DWIDTH 10 0
BBX 10 10 0 -2
BITMAP
0000
7B00
5B00
7B00
6B00
7B00
5580
5580
7CC0
0000
ENDCHAR

STARTCHAR jisx0208_326A
ENCODING 12906
SWIDTH 960 0
DWIDTH 10 0
BBX 10 10 0 -2
BITMAP
0000
1B00
7FC0
1B00
3F80
1B00
7FC0
0B00
3B00
0000
ENDCHAR

STARTCHAR jisx0208_326B
ENCODING 12907
SWIDTH 960 0
DWIDTH 10 0
BBX 10 10 0 -2
BITMAP
0000
3580
2DC0
7580
6FC0
7580
2DC0
3580
76C0
0000
ENDCHAR

STARTCHAR jisx0208_326C
ENCODING 12908
SWIDTH 960 0
DWIDTH 10 0
BBX 10 10 0 -2
BITMAP
0000
3000
7BC0
2AC0
5FC0
3180
3F80
3F80
60C0
0000
ENDCHAR

STARTCHAR jisx0208_326D
ENCODING 12909
SWIDTH 960 0
DWIDTH 10 0
BBX 10 10 0 -2
BITMAP
0000
7AC0
1580
5FC0
7580
17C0
3580
5580
37C0
0000
ENDCHAR

STARTCHAR jisx0208_326E
ENCODING 12910
SWIDTH 960 0
DWIDTH 10 0
BBX 10 10 0 -2
BITMAP
0000
3580
5DC0
3580
7FC0
5580
77C0
6D80
76C0
0000
ENDCHAR

STARTCHAR jisx0208_326F
ENCODING 12911
SWIDTH 960 0
DWIDTH 10 0
BBX 10 10 0 -2
BITMAP
0000
3000
7BC0
2AC0
5FC0
1B00
1FC0
00C0
55C0
0000
ENDCHAR

STARTCHAR jisx0208_3270
ENCODING 12912
SWIDTH 960 0
DWIDTH 10 0
BBX 10 10 0 -2
BITMAP
0000
0E00
1B00
3180
5AC0
1B00
1B00
1B00
3300
0000
ENDCHAR

STARTCHAR jisx0208_3271
ENCODING 12913
SWIDTH 960 0
DWIDTH 10 0
BBX 10 10 0 -2
BITMAP
0000
0E00
1B00
6DC0
0000
7FC0
0C00
1980
7EC0
0000
ENDCHAR

STARTCHAR jisx0208_3272
ENCODING 12914
SWIDTH 960 0
DWIDTH 10 0
BBX 10 10 0 -2
BITMAP
0000
37C0
72C0
76C0
5580
77C0
5D80
77C0
5980
0000
ENDCHAR

STARTCHAR jisx0208_3273
ENCODING 12915
SWIDTH 960 0
DWIDTH 10 0
BBX 10 10 0 -2
BITMAP
0000
7FC0
60C0
5EC0
5AC0
5AC0
5EC0
60C0
7FC0
0000
ENDCHAR

STARTCHAR jisx0208_3274
ENCODING 12916
SWIDTH 960 0
DWIDTH 10 0
BBX 10 10 0 -2
BITMAP
0000
3600
2FC0
7AC0
2FC0
3AC0
6FC0
0580
1DC0
0000
ENDCHAR

STARTCHAR jisx0208_3275
ENCODING 12917
SWIDTH 960 0
DWIDTH 10 0
BBX 10 10 0 -2
BITMAP
0000
3300
2FC0
7AC0
2FC0
3B00
6FC0
0D80
16C0
0000
ENDCHAR

STARTCHAR jisx0208_3276
ENCODING 12918
SWIDTH 960 0
DWIDTH 10 0
BBX 10 10 0 -2
BITMAP
0000
77C0
16C0
36C0
76C0
16C0
77C0
3800
6FC0
0000
ENDCHAR

STARTCHAR jisx0208_3277
ENCODING 12919
SWIDTH 960 0
DWIDTH 10 0
BBX 10 10 0 -2
BITMAP
0000
3600
2F80
7580
7580
3FC0
3600
2B00
39C0
0000
ENDCHAR

STARTCHAR jisx0208_3278
ENCODING 12920
SWIDTH 960 0
DWIDTH 10 0
BBX 10 10 0 -2
BITMAP
0000
2FC0
36C0
7B80
6EC0
3300
2FC0
3300
2FC0
0000
ENDCHAR

STARTCHAR jisx0208_3279
ENCODING 12921
SWIDTH 960 0
DWIDTH 10 0
BBX 10 10 0 -2
BITMAP
0000
3600
2FC0
7AC0
6FC0
2AC0
2AC0
2FC0
31C0
0000
ENDCHAR

STARTCHAR jisx0208_327A
ENCODING 12922
SWIDTH 960 0
DWIDTH 10 0
BBX 10 10 0 -2
BITMAP
0000
2FC0
2B00
7AC0
6F80
2B00
2B00
3580
2CC0
0000
ENDCHAR

STARTCHAR jisx0208_327B
ENCODING 12923
SWIDTH 960 0
DWIDTH 10 0
BBX 10 10 0 -2
BITMAP
0000
3300
2FC0
7AC0
6FC0
3300
3FC0
2D80
36C0
0000
ENDCHAR

STARTCHAR jisx0208_327C
ENCODING 12924
SWIDTH 960 0
DWIDTH 10 0
BBX 10 10 0 -2
BITMAP
0000
02C0
0300
7FC0
2B00
2AC0
7D80
2D80
6AC0
0000
ENDCHAR

STARTCHAR jisx0208_327D
ENCODING 12925
SWIDTH 960 0
DWIDTH 10 0
BBX 10 10 0 -2
BITMAP
0000
37C0
76C0
37C0
3800
6FC0
32C0
36C0
6D80
0000
ENDCHAR

STARTCHAR jisx0208_327E
ENCODING 12926
SWIDTH 960 0
DWIDTH 10 0
BBX 10 10 0 -2
BITMAP
0000
0600
7600
17C0
1D80
7580
6300
6B80
7EC0
0000
ENDCHAR

STARTCHAR jisx0208_3321
ENCODING 13089
SWIDTH 960 0
DWIDTH 10 0
BBX 10 10 0 -2
BITMAP
0000
3180
7B80
6D80
6B80
7DC0
3780
3980
5FC0
0000
ENDCHAR

STARTCHAR jisx0208_3322
ENCODING 13090
SWIDTH 960 0
DWIDTH 10 0
BBX 10 10 0 -2
BITMAP
0000
0C00
7FC0
5F80
7580
5FC0
5580
7FC0
0380
0000
ENDCHAR

STARTCHAR jisx0208_3323
ENCODING 13091
SWIDTH 960 0
DWIDTH 10 0
BBX 10 10 0 -2
BITMAP
0000
31C0
7980
2FC0
7580
6F80
35C0
3580
2AC0
0000
ENDCHAR

STARTCHAR jisx0208_3324
ENCODING 13092
SWIDTH 960 0
DWIDTH 10 0
BBX 10 10 0 -2
BITMAP
0000
5800
1FC0
5F80
1580
3FC0
1580
5FC0
6380
0000
ENDCHAR

STARTCHAR jisx0208_3325
ENCODING 13093
SWIDTH 960 0
DWIDTH 10 0
BBX 10 10 0 -2
BITMAP
0000
3FC0
3000
3300
2AC0
2B80
3300
3580
6CC0
0000
ENDCHAR

STARTCHAR jisx0208_3326
ENCODING 13094
SWIDTH 960 0
DWIDTH 10 0
BBX 10 10 0 -2
BITMAP
0000
3F80
2D80
3F80
2D80
3F80
5AC0
1B00
3300
0000
ENDCHAR

STARTCHAR jisx0208_3327
ENCODING 13095
SWIDTH 960 0
DWIDTH 10 0
BBX 10 10 0 -2
BITMAP
0000
3580
3F00
36C0
7FC0
3180
3F80
3180
3F80
0000
ENDCHAR

STARTCHAR jisx0208_3328
ENCODING 13096
SWIDTH 960 0
DWIDTH 10 0
BBX 10 10 0 -2
BITMAP
0000
3300
5580
2AC0
7800
37C0
7B00
7580
2EC0
0000
ENDCHAR

STARTCHAR jisx0208_3329
ENCODING 13097
SWIDTH 960 0
DWIDTH 10 0
BBX 10 10 0 -2
BITMAP
0000
1B00
7FC0
1B00
0E00
7BC0
1B00
1B00
3300
0000
ENDCHAR

STARTCHAR jisx0208_332A
ENCODING 13098
SWIDTH 960 0
DWIDTH 10 0
BBX 10 10 0 -2
BITMAP
0000
37C0
5AC0
75C0
5F80
6D80
3F80
0D80
7FC0
0000
ENDCHAR

STARTCHAR jisx0208_332B
ENCODING 13099
SWIDTH 960 0
DWIDTH 10 0
BBX 10 10 0 -2
BITMAP
0000
7BC0
5AC0
7BC0
5EC0
6AC0
5FC0
6AC0
5AC0
0000
ENDCHAR

STARTCHAR jisx0208_332C
ENCODING 13100
SWIDTH 960 0
DWIDTH 10 0
BBX 10 10 0 -2
BITMAP
0000
7D80
5FC0
5D80
6FC0
56C0
57C0
76C0
67C0
0000
ENDCHAR

STARTCHAR jisx0208_332D
ENCODING 13101
SWIDTH 960 0
DWIDTH 10 0
BBX 10 10 0 -2
BITMAP
0000
3F80
3180
3F80
3180
3F80
3180
3F80
71C0
0000
ENDCHAR

STARTCHAR jisx0208_332E
ENCODING 13102
SWIDTH 960 0
DWIDTH 10 0
BBX 10 10 0 -2
BITMAP
0000
5780
7D80
0580
7D80
6D80
7D80
2D80
79C0
0000
ENDCHAR

STARTCHAR jisx0208_332F
ENCODING 13103
SWIDTH 960 0
DWIDTH 10 0
BBX 10 10 0 -2
BITMAP
0000
1B00
7B00
17C0
2AC0
5AC0
2AC0
56C0
2D80
0000
ENDCHAR

STARTCHAR jisx0208_3330
ENCODING 13104
SWIDTH 960 0
DWIDTH 10 0
BBX 10 10 0 -2
BITMAP
0000
3300
3B00
2F00
6B80
1AC0
1B00
3300
6300
0000
ENDCHAR

STARTCHAR jisx0208_3331
ENCODING 13105
SWIDTH 960 0
DWIDTH 10 0
BBX 10 10 0 -2
BITMAP
0000
0300
7FC0
5B00
5580
5AC0
5580
7B80
06C0
0000
ENDCHAR

STARTCHAR jisx0208_3332
ENCODING 13106
SWIDTH 960 0
DWIDTH 10 0
BBX 10 10 0 -2
BITMAP
0000
0C00
7FC0
5EC0
0C00
7FC0
3F80
3180
3F80
0000
ENDCHAR

STARTCHAR jisx0208_3333
ENCODING 13107
SWIDTH 960 0
DWIDTH 10 0
BBX 10 10 0 -2
BITMAP
0000
1580
1580
3FC0
2F80
3600
3FC0
6600
3FC0
0000
ENDCHAR

STARTCHAR jisx0208_3334
ENCODING 13108
SWIDTH 960 0
DWIDTH 10 0
BBX 10 10 0 -2
BITMAP
0000
2FC0
2B80
7B80
6FC0
2D80
2D80
2B80
2DC0
0000
ENDCHAR

STARTCHAR jisx0208_3335
ENCODING 13109
SWIDTH 960 0
DWIDTH 10 0
BBX 10 10 0 -2
BITMAP
0000
2FC0
7B80
2B80
7FC0
6D80
2D80
2B80
2DC0
0000
ENDCHAR

STARTCHAR jisx0208_3336
ENCODING 13110
SWIDTH 960 0
DWIDTH 10 0
BBX 10 10 0 -2
BITMAP
0000
5FC0
1B00
1780
5B00
1FC0
1B00
5780
6FC0
0000
ENDCHAR

STARTCHAR jisx0208_3337
ENCODING 13111
SWIDTH 960 0
DWIDTH 10 0
BBX 10 10 0 -2
BITMAP
0000
7F80
3580
3780
3D80
6FC0
2D80
2D80
3B80
0000
ENDCHAR

STARTCHAR jisx0208_3338
ENCODING 13112
SWIDTH 960 0
DWIDTH 10 0
BBX 10 10 0 -2
BITMAP
0000
1980
7FC0
1580
7FC0
1980
3FC0
2AC0
7FC0
0000
ENDCHAR

STARTCHAR jisx0208_3339
ENCODING 13113
SWIDTH 960 0
DWIDTH 10 0
BBX 10 10 0 -2
BITMAP
0000
35C0
5F00
35C0
6EC0
36C0
2EC0
36C0
2DC0
0000
ENDCHAR

STARTCHAR jisx0208_333A
ENCODING 13114
SWIDTH 960 0
DWIDTH 10 0
BBX 10 10 0 -2
BITMAP
0000
3300
7FC0
0300
7580
02C0
7580
5B80
76C0
0000
ENDCHAR

STARTCHAR jisx0208_333B
ENCODING 13115
SWIDTH 960 0
DWIDTH 10 0
BBX 10 10 0 -2
BITMAP
0000
3300
5AC0
7FC0
2FC0
7CC0
2FC0
7580
6FC0
0000
ENDCHAR

STARTCHAR jisx0208_333C
ENCODING 13116
SWIDTH 960 0
DWIDTH 10 0
BBX 10 10 0 -2
BITMAP
0000
3D80
2FC0
7B00
6EC0
3D80
2AC0
3D80
2AC0
0000
ENDCHAR

STARTCHAR jisx0208_333D
ENCODING 13117
SWIDTH 960 0
DWIDTH 10 0
BBX 10 10 0 -2
BITMAP
0000
6FC0
0AC0
6FC0
0AC0
0FC0
3780
3300
6FC0
0000
ENDCHAR

STARTCHAR jisx0208_333E
ENCODING 13118
SWIDTH 960 0
DWIDTH 10 0
BBX 10 10 0 -2
BITMAP
0000
7F80
35C0
3D80
56C0
7FC0
1F00
7BC0
1F00
0000
ENDCHAR

STARTCHAR jisx0208_333F
ENCODING 13119
SWIDTH 960 0
DWIDTH 10 0
BBX 10 10 0 -2
BITMAP
0000
3300
2FC0
7B00
5FC0
7B00
2FC0
3B00
6FC0
0000
ENDCHAR

STARTCHAR jisx0208_3340
ENCODING 13120
SWIDTH 960 0
DWIDTH 10 0
BBX 10 10 0 -2
BITMAP
0000
2FC0
3000
77C0
37C0
36C0
37C0
7000
0FC0
0000
ENDCHAR

STARTCHAR jisx0208_3341
ENCODING 13121
SWIDTH 960 0
DWIDTH 10 0
BBX 10 10 0 -2
BITMAP
0000
3300
7FC0
3300
7FC0
6AC0
2AC0
2AC0
3300
0000
ENDCHAR

STARTCHAR jisx0208_3342
ENCODING 13122
SWIDTH 960 0
DWIDTH 10 0
BBX 10 10 0 -2
BITMAP
0000
2FC0
2C00
7FC0
5B00
7BC0
2AC0
3AC0
7580
0000
ENDCHAR

STARTCHAR jisx0208_3343
ENCODING 13123
SWIDTH 960 0
DWIDTH 10 0
BBX 10 10 0 -2
BITMAP
0000
3600
57C0
7CC0
36C0
76C0
2EC0
78C0
7380
0000
ENDCHAR

STARTCHAR jisx0208_3344
ENCODING 13124
SWIDTH 960 0
DWIDTH 10 0
BBX 10 10 0 -2
BITMAP
0000
18C0
7DC0
15C0
7FC0
55C0
7EC0
00C0
7DC0
0000
ENDCHAR

STARTCHAR jisx0208_3345
ENCODING 13125
SWIDTH 960 0
DWIDTH 10 0
BBX 10 10 0 -2
BITMAP
0000
0B00
7FC0
5B00
5FC0
5580
7FC0
1580
3580
0000
ENDCHAR

STARTCHAR jisx0208_3346
ENCODING 13126
SWIDTH 960 0
DWIDTH 10 0
BBX 10 10 0 -2
BITMAP
0000
1F00
3B00
6E00
1B00
7FC0
3300
3300
3F00
0000
ENDCHAR

STARTCHAR jisx0208_3347
ENCODING 13127
SWIDTH 960 0
DWIDTH 10 0
BBX 10 10 0 -2
BITMAP
0000
0300
3FC0
2AC0
3EC0
3780
2AC0
3EC0
6B80
0000
ENDCHAR

STARTCHAR jisx0208_3348
ENCODING 13128
SWIDTH 960 0
DWIDTH 10 0
BBX 10 10 0 -2
BITMAP
0000
3300
7FC0
2C00
3B00
6B00
2B00
3580
6EC0
0000
ENDCHAR

STARTCHAR jisx0208_3349
ENCODING 13129
SWIDTH 960 0
DWIDTH 10 0
BBX 10 10 0 -2
BITMAP
0000
2AC0
7FC0
2CC0
3780
7580
3580
3780
6DC0
0000
ENDCHAR

STARTCHAR jisx0208_334A
ENCODING 13130
SWIDTH 960 0
DWIDTH 10 0
BBX 10 10 0 -2
BITMAP
0000
3780
7580
2B00
7580
2FC0
2D80
2D80
2F80
0000
ENDCHAR

STARTCHAR jisx0208_334B
ENCODING 13131
SWIDTH 960 0
DWIDTH 10 0
BBX 10 10 0 -2
BITMAP
0000
3300
7FC0
3600
7D80
76C0
3580
2B80
36C0
0000
ENDCHAR

STARTCHAR jisx0208_334C
ENCODING 13132
SWIDTH 960 0
DWIDTH 10 0
BBX 10 10 0 -2
BITMAP
0000
1780
7D80
15C0
7C00
67C0
3AC0
2D80
6EC0
0000
ENDCHAR

STARTCHAR jisx0208_334D
ENCODING 13133
SWIDTH 960 0
DWIDTH 10 0
BBX 10 10 0 -2
BITMAP
0000
3580
1FC0
3580
57C0
3FC0
56C0
1B80
36C0
0000
ENDCHAR

STARTCHAR jisx0208_334E
ENCODING 13134
SWIDTH 960 0
DWIDTH 10 0
BBX 10 10 0 -2
BITMAP
0000
7B00
2FC0
2AC0
3FC0
6B00
2FC0
2B00
3FC0
0000
ENDCHAR

STARTCHAR jisx0208_334F
ENCODING 13135
SWIDTH 960 0
DWIDTH 10 0
BBX 10 10 0 -2
BITMAP
0000
1580
6FC0
3580
7FC0
2FC0
76C0
3380
2EC0
0000
ENDCHAR

STARTCHAR jisx0208_3350
ENCODING 13136
SWIDTH 960 0
DWIDTH 10 0
BBX 10 10 0 -2
BITMAP
0000
2D80
7FC0
5AC0
1F00
1B00
1F00
16C0
77C0
0000
ENDCHAR

STARTCHAR jisx0208_3351
ENCODING 13137
SWIDTH 960 0
DWIDTH 10 0
BBX 10 10 0 -2
BITMAP
0000
1E00
3600
7F80
2D80
3F80
2D80
3F80
6180
0000
ENDCHAR

STARTCHAR jisx0208_3352
ENCODING 13138
SWIDTH 960 0
DWIDTH 10 0
BBX 10 10 0 -2
BITMAP
0000
3300
7780
3300
7FC0
3580
75C0
7580
2D80
0000
ENDCHAR

STARTCHAR jisx0208_3353
ENCODING 13139
SWIDTH 960 0
DWIDTH 10 0
BBX 10 10 0 -2
BITMAP
0000
3300
7FC0
3000
7580
7DC0
3300
7580
2CC0
0000
ENDCHAR

STARTCHAR jisx0208_3354
ENCODING 13140
SWIDTH 960 0
DWIDTH 10 0
BBX 10 10 0 -2
BITMAP
0000
1800
7FC0
2AC0
7AC0
1B80
7AC0
1AC0
3B80
0000
ENDCHAR

STARTCHAR jisx0208_3355
ENCODING 13141
SWIDTH 960 0
DWIDTH 10 0
BBX 10 10 0 -2
BITMAP
0000
7BC0
5AC0
7BC0
5EC0
56C0
7EC0
56C0
5EC0
0000
ENDCHAR

STARTCHAR jisx0208_3356
ENCODING 13142
SWIDTH 960 0
DWIDTH 10 0
BBX 10 10 0 -2
BITMAP
0000
7FC0
5580
5FC0
6DC0
5CC0
5FC0
6AC0
6CC0
0000
ENDCHAR

STARTCHAR jisx0208_3357
ENCODING 13143
SWIDTH 960 0
DWIDTH 10 0
BBX 10 10 0 -2
BITMAP
0000
1600
7FC0
1600
3F80
2D80
3F80
7FC0
0C00
0000
ENDCHAR

STARTCHAR jisx0208_3358
ENCODING 13144
SWIDTH 960 0
DWIDTH 10 0
BBX 10 10 0 -2
BITMAP
0000
2D80
7FC0
5EC0
0300
0600
7FC0
0600
0E00
0000
ENDCHAR

STARTCHAR jisx0208_3359
ENCODING 13145
SWIDTH 960 0
DWIDTH 10 0
BBX 10 10 0 -2
BITMAP
0000
3F00
3000
3FC0
3600
7FC0
0600
36C0
3FC0
0000
ENDCHAR

STARTCHAR jisx0208_335A
ENCODING 13146
SWIDTH 960 0
DWIDTH 10 0
BBX 10 10 0 -2
BITMAP
0000
0C00
5D80
3700
5580
7FC0
1E00
2B00
6D80
0000
ENDCHAR

STARTCHAR jisx0208_335B
ENCODING 13147
SWIDTH 960 0
DWIDTH 10 0
BBX 10 10 0 -2
BITMAP
0000
1BC0
7D80
57C0
2AC0
1BC0
7EC0
2BC0
3EC0
0000
ENDCHAR

STARTCHAR jisx0208_335C
ENCODING 13148
SWIDTH 960 0
DWIDTH 10 0
BBX 10 10 0 -2
BITMAP
0000
7FC0
5580
7FC0
7AC0
33C0
3AC0
0BC0
36C0
0000
ENDCHAR

STARTCHAR jisx0208_335D
ENCODING 13149
SWIDTH 960 0
DWIDTH 10 0
BBX 10 10 0 -2
BITMAP
0000
3580
7F80
3580
3FC0
7580
2F80
3580
6D80
0000
ENDCHAR

STARTCHAR jisx0208_335E
ENCODING 13150
SWIDTH 960 0
DWIDTH 10 0
BBX 10 10 0 -2
BITMAP
0000
3600
3FC0
5980
0600
7FC0
1B00
1B00
7FC0
0000
ENDCHAR

STARTCHAR jisx0208_335F
ENCODING 13151
SWIDTH 960 0
DWIDTH 10 0
BBX 10 10 0 -2
BITMAP
0000
2FC0
7AC0
2FC0
7B80
6EC0
3780
3300
2FC0
0000
ENDCHAR

STARTCHAR jisx0208_3360
ENCODING 13152
SWIDTH 960 0
DWIDTH 10 0
BBX 10 10 0 -2
BITMAP
0000
2FC0
7AC0
2FC0
7FC0
7000
2FC0
2AC0
2FC0
0000
ENDCHAR

STARTCHAR jisx0208_3361
ENCODING 13153
SWIDTH 960 0
DWIDTH 10 0
BBX 10 10 0 -2
BITMAP
0000
2FC0
7CC0
2FC0
7B00
6FC0
2B00
3FC0
33C0
0000
ENDCHAR

STARTCHAR jisx0208_3362
ENCODING 13154
SWIDTH 960 0
DWIDTH 10 0
BBX 10 10 0 -2
BITMAP
0000
3380
6D80
75C0
5F80
5580
7F80
0580
56C0
0000
ENDCHAR

STARTCHAR jisx0208_3363
ENCODING 13155
SWIDTH 960 0
DWIDTH 10 0
BBX 10 10 0 -2
BITMAP
0000
6B80
1980
5B80
1980
1FC0
38C0
30C0
5580
0000
ENDCHAR

STARTCHAR jisx0208_3364
ENCODING 13156
SWIDTH 960 0
DWIDTH 10 0
BBX 10 10 0 -2
BITMAP
0000
18C0
7EC0
56C0
3AC0
1AC0
7AC0
6CC0
7DC0
0000
ENDCHAR

STARTCHAR jisx0208_3365
ENCODING 13157
SWIDTH 960 0
DWIDTH 10 0
BBX 10 10 0 -2
BITMAP
0000
0F80
7D80
5F80
5D80
5FC0
7AC0
0EC0
0F80
0000
ENDCHAR

STARTCHAR jisx0208_3366
ENCODING 13158
SWIDTH 960 0
DWIDTH 10 0
BBX 10 10 0 -2
BITMAP
0000
3300
3580
7CC0
7780
3000
2FC0
2CC0
2FC0
0000
ENDCHAR

STARTCHAR jisx0208_3367
ENCODING 13159
SWIDTH 960 0
DWIDTH 10 0
BBX 10 10 0 -2
BITMAP
0000
31C0
7700
3300
3FC0
7300
2FC0
2CC0
6FC0
0000
ENDCHAR

STARTCHAR jisx0208_3368
ENCODING 13160
SWIDTH 960 0
DWIDTH 10 0
BBX 10 10 0 -2
BITMAP
0000
6F80
0300
5FC0
0300
0F80
2D80
2D80
6F80
0000
ENDCHAR

STARTCHAR jisx0208_3369
ENCODING 13161
SWIDTH 960 0
DWIDTH 10 0
BBX 10 10 0 -2
BITMAP
0000
6F80
0D80
0F80
6D80
1FC0
36C0
5CC0
5D80
0000
ENDCHAR

STARTCHAR jisx0208_336A
ENCODING 13162
SWIDTH 960 0
DWIDTH 10 0
BBX 10 10 0 -2
BITMAP
0000
6F80
0D80
5FC0
1DC0
0F80
2D80
2F80
6D80
0000
ENDCHAR

STARTCHAR jisx0208_336B
ENCODING 13163
SWIDTH 960 0
DWIDTH 10 0
BBX 10 10 0 -2
BITMAP
0000
1B00
7FC0
3F80
3180
3FC0
6EC0
38C0
3D80
0000
ENDCHAR

STARTCHAR jisx0208_336C
ENCODING 13164
SWIDTH 960 0
DWIDTH 10 0
BBX 10 10 0 -2
BITMAP
0000
3780
7580
1780
3580
7FC0
36C0
2CC0
2D80
0000
ENDCHAR

STARTCHAR jisx0208_336D
ENCODING 13165
SWIDTH 960 0
DWIDTH 10 0
BBX 10 10 0 -2
BITMAP
0000
3300
7FC0
2AC0
7780
7B00
2FC0
7580
3780
0000
ENDCHAR

STARTCHAR jisx0208_336E
ENCODING 13166
SWIDTH 960 0
DWIDTH 10 0
BBX 10 10 0 -2
BITMAP
0000
3F00
3300
3F00
3300
3F00
3300
3300
7F80
0000
ENDCHAR

STARTCHAR jisx0208_336F
ENCODING 13167
SWIDTH 960 0
DWIDTH 10 0
BBX 10 10 0 -2
BITMAP
0000
2FC0
6AC0
7EC0
5D80
5EC0
77C0
0300
5FC0
0000
ENDCHAR

STARTCHAR jisx0208_3370
ENCODING 13168
SWIDTH 960 0
DWIDTH 10 0
BBX 10 10 0 -2
BITMAP
0000
0300
7B00
5B00
5FC0
5B00
7B00
0300
0300
0000
ENDCHAR

STARTCHAR jisx0208_3371
ENCODING 13169
SWIDTH 960 0
DWIDTH 10 0
BBX 10 10 0 -2
BITMAP
0000
3580
7FC0
3580
7600
6AC0
3B80
2B00
2BC0
0000
ENDCHAR

STARTCHAR jisx0208_3372
ENCODING 13170
SWIDTH 960 0
DWIDTH 10 0
BBX 10 10 0 -2
BITMAP
0000
3580
7FC0
2AC0
7FC0
6AC0
3FC0
3300
2FC0
0000
ENDCHAR

STARTCHAR jisx0208_3373
ENCODING 13171
SWIDTH 960 0
DWIDTH 10 0
BBX 10 10 0 -2
BITMAP
0000
5600
77C0
2CC0
7EC0
7AC0
2F00
7CC0
2FC0
0000
ENDCHAR

STARTCHAR jisx0208_3374
ENCODING 13172
SWIDTH 960 0
DWIDTH 10 0
BBX 10 10 0 -2
BITMAP
0000
2B00
7B00
2FC0
7B00
6FC0
3780
2AC0
3300
0000
ENDCHAR

STARTCHAR jisx0208_3375
ENCODING 13173
SWIDTH 960 0
DWIDTH 10 0
BBX 10 10 0 -2
BITMAP
0000
1600
6FC0
6AC0
6EC0
6BC0
0F00
1AC0
73C0
0000
ENDCHAR

STARTCHAR jisx0208_3376
ENCODING 13174
SWIDTH 960 0
DWIDTH 10 0
BBX 10 10 0 -2
BITMAP
0000
0C00
7FC0
5EC0
2D80
7FC0
2D80
3F80
0FC0
0000
ENDCHAR

STARTCHAR jisx0208_3377
ENCODING 13175
SWIDTH 960 0
DWIDTH 10 0
BBX 10 10 0 -2
BITMAP
0000
1600
7FC0
0580
5FC0
1580
5F80
3580
5580
0000
ENDCHAR

STARTCHAR jisx0208_3378
ENCODING 13176
SWIDTH 960 0
DWIDTH 10 0
BBX 10 10 0 -2
BITMAP
0000
3300
5580
0C00
3F00
6DC0
7F80
2B00
7F80
0000
ENDCHAR

STARTCHAR jisx0208_3379
ENCODING 13177
SWIDTH 960 0
DWIDTH 10 0
BBX 10 10 0 -2
BITMAP
0000
3580
5FC0
7580
2FC0
7580
2F80
75C0
7580
0000
ENDCHAR

STARTCHAR jisx0208_337A
ENCODING 13178
SWIDTH 960 0
DWIDTH 10 0
BBX 10 10 0 -2
BITMAP
0000
0BC0
7B00
5FC0
5AC0
5FC0
56C0
7AC0
1FC0
0000
ENDCHAR

STARTCHAR jisx0208_337B
ENCODING 13179
SWIDTH 960 0
DWIDTH 10 0
BBX 10 10 0 -2
BITMAP
0000
7B00
5780
7580
5780
7600
37C0
30C0
2DC0
0000
ENDCHAR

STARTCHAR jisx0208_337C
ENCODING 13180
SWIDTH 960 0
DWIDTH 10 0
BBX 10 10 0 -2
BITMAP
0000
37C0
7B00
37C0
76C0
77C0
36C0
36C0
37C0
0000
ENDCHAR

STARTCHAR jisx0208_337D
ENCODING 13181
SWIDTH 960 0
DWIDTH 10 0
BBX 10 10 0 -2
BITMAP
0000
1B00
7FC0
1F00
0600
7FC0
0EC0
1580
7600
0000
ENDCHAR

STARTCHAR jisx0208_337E
ENCODING 13182
SWIDTH 960 0
DWIDTH 10 0
BBX 10 10 0 -2
BITMAP
0000
1B00
7FC0
1B00
7FC0
5AC0
1F00
1B00
7FC0
0000
ENDCHAR

STARTCHAR jisx0208_3421
ENCODING 13345
SWIDTH 960 0
DWIDTH 10 0
BBX 10 10 0 -2
BITMAP
0000
75C0
1EC0
75C0
6F80
75C0
1EC0
16C0
7580
0000
ENDCHAR

STARTCHAR jisx0208_3422
ENCODING 13346
SWIDTH 960 0
DWIDTH 10 0
BBX 10 10 0 -2
BITMAP
0000
0CC0
0AC0
6AC0
2AC0
1AC0
1AC0
36C0
61C0
0000
ENDCHAR

STARTCHAR jisx0208_3423
ENCODING 13347
SWIDTH 960 0
DWIDTH 10 0
BBX 10 10 0 -2
BITMAP
0000
1B00
7FC0
1B00
6CC0
2AC0
1AC0
2AC0
6CC0
0000
ENDCHAR

STARTCHAR jisx0208_3424
ENCODING 13348
SWIDTH 960 0
DWIDTH 10 0
BBX 10 10 0 -2
BITMAP
0000
7FC0
1800
1F00
1B00
1B00
1B00
1AC0
7BC0
0000
ENDCHAR

STARTCHAR jisx0208_3425
ENCODING 13349
SWIDTH 960 0
DWIDTH 10 0
BBX 10 10 0 -2
BITMAP
0000
3600
77C0
2C00
57C0
7980
3300
76C0
37C0
0000
ENDCHAR

STARTCHAR jisx0208_3426
ENCODING 13350
SWIDTH 960 0
DWIDTH 10 0
BBX 10 10 0 -2
BITMAP
0000
1F80
2D80
6F80
3000
2D80
2D80
2D80
39C0
0000
ENDCHAR

STARTCHAR jisx0208_3427
ENCODING 13351
SWIDTH 960 0
DWIDTH 10 0
BBX 10 10 0 -2
BITMAP
0000
7FC0
60C0
3980
07C0
7D80
3580
38C0
5FC0
0000
ENDCHAR

STARTCHAR jisx0208_3428
ENCODING 13352
SWIDTH 960 0
DWIDTH 10 0
BBX 10 10 0 -2
BITMAP
0000
0C00
7FC0
56C0
3F80
1600
7FC0
2D80
66C0
0000
ENDCHAR

STARTCHAR jisx0208_3429
ENCODING 13353
SWIDTH 960 0
DWIDTH 10 0
BBX 10 10 0 -2
BITMAP
0000
7EC0
1AC0
1AC0
7EC0
1AC0
1AC0
18C0
19C0
0000
ENDCHAR

STARTCHAR jisx0208_342A
ENCODING 13354
SWIDTH 960 0
DWIDTH 10 0
BBX 10 10 0 -2
BITMAP
0000
2B00
7B00
2FC0
3AC0
2AC0
7EC0
66C0
7D80
0000
ENDCHAR

STARTCHAR jisx0208_342B
ENCODING 13355
SWIDTH 960 0
DWIDTH 10 0
BBX 10 10 0 -2
BITMAP
0000
3300
3F00
5BC0
3EC0
6AC0
3EC0
2AC0
3D80
0000
ENDCHAR

STARTCHAR jisx0208_342C
ENCODING 13356
SWIDTH 960 0
DWIDTH 10 0
BBX 10 10 0 -2
BITMAP
0000
2B00
7F80
1600
7FC0
3700
7D80
32C0
3F00
0000
ENDCHAR

STARTCHAR jisx0208_342D
ENCODING 13357
SWIDTH 960 0
DWIDTH 10 0
BBX 10 10 0 -2
BITMAP
0000
0700
7B00
5FC0
55C0
5AC0
7FC0
0700
1DC0
0000
ENDCHAR

STARTCHAR jisx0208_342E
ENCODING 13358
SWIDTH 960 0
DWIDTH 10 0
BBX 10 10 0 -2
BITMAP
0000
3580
2FC0
7580
3780
3580
3FC0
6D80
0FC0
0000
ENDCHAR

STARTCHAR jisx0208_342F
ENCODING 13359
SWIDTH 960 0
DWIDTH 10 0
BBX 10 10 0 -2
BITMAP
0000
0C00
7FC0
1B00
0E00
3300
7FC0
2D80
77C0
0000
ENDCHAR

STARTCHAR jisx0208_3430
ENCODING 13360
SWIDTH 960 0
DWIDTH 10 0
BBX 10 10 0 -2
BITMAP
0000
0C00
7FC0
60C0
1F00
7FC0
1600
16C0
77C0
0000
ENDCHAR

STARTCHAR jisx0208_3431
ENCODING 13361
SWIDTH 960 0
DWIDTH 10 0
BBX 10 10 0 -2
BITMAP
0000
0C00
7FC0
5AC0
1F00
1800
1F80
1980
1F80
0000
ENDCHAR

STARTCHAR jisx0208_3432
ENCODING 13362
SWIDTH 960 0
DWIDTH 10 0
BBX 10 10 0 -2
BITMAP
0000
0C00
7FC0
56C0
3F80
1B00
1B00
1EC0
77C0
0000
ENDCHAR

STARTCHAR jisx0208_3433
ENCODING 13363
SWIDTH 960 0
DWIDTH 10 0
BBX 10 10 0 -2
BITMAP
0000
7F80
0C00
0C00
7FC0
0C00
0C00
0C00
0C00
0000
ENDCHAR

STARTCHAR jisx0208_3434
ENCODING 13364
SWIDTH 960 0
DWIDTH 10 0
BBX 10 10 0 -2
BITMAP
0000
3300
7580
2CC0
5780
7B00
2FC0
7B00
3300
0000
ENDCHAR

STARTCHAR jisx0208_3435
ENCODING 13365
SWIDTH 960 0
DWIDTH 10 0
BBX 10 10 0 -2
BITMAP
0000
3F00
2B00
7F80
6D80
7F80
1600
58C0
5EC0
0000
ENDCHAR

STARTCHAR jisx0208_3436
ENCODING 13366
SWIDTH 960 0
DWIDTH 10 0
BBX 10 10 0 -2
BITMAP
0000
0580
3FC0
3600
3B80
2AC0
5DC0
3300
5EC0
0000
ENDCHAR

STARTCHAR jisx0208_3437
ENCODING 13367
SWIDTH 960 0
DWIDTH 10 0
BBX 10 10 0 -2
BITMAP
0000
2F80
2DC0
7F80
6D80
2F80
2D80
2F80
38C0
0000
ENDCHAR

STARTCHAR jisx0208_3438
ENCODING 13368
SWIDTH 960 0
DWIDTH 10 0
BBX 10 10 0 -2
BITMAP
0000
32C0
2FC0
7D80
6FC0
2AC0
3780
2EC0
37C0
0000
ENDCHAR

STARTCHAR jisx0208_3439
ENCODING 13369
SWIDTH 960 0
DWIDTH 10 0
BBX 10 10 0 -2
BITMAP
0000
3700
7B00
2FC0
3DC0
6AC0
3FC0
3580
6CC0
0000
ENDCHAR

STARTCHAR jisx0208_343A
ENCODING 13370
SWIDTH 960 0
DWIDTH 10 0
BBX 10 10 0 -2
BITMAP
0000
3B00
1B00
7BC0
2EC0
3AC0
2AC0
7D80
0AC0
0000
ENDCHAR

STARTCHAR jisx0208_343B
ENCODING 13371
SWIDTH 960 0
DWIDTH 10 0
BBX 10 10 0 -2
BITMAP
0000
3580
7580
2FC0
7580
7780
3580
3580
3780
0000
ENDCHAR

STARTCHAR jisx0208_343C
ENCODING 13372
SWIDTH 960 0
DWIDTH 10 0
BBX 10 10 0 -2
BITMAP
0000
37C0
7800
37C0
77C0
76C0
37C0
3000
2FC0
0000
ENDCHAR

STARTCHAR jisx0208_343D
ENCODING 13373
SWIDTH 960 0
DWIDTH 10 0
BBX 10 10 0 -2
BITMAP
0000
3300
7FC0
2DC0
7780
7600
37C0
36C0
37C0
0000
ENDCHAR

STARTCHAR jisx0208_343E
ENCODING 13374
SWIDTH 960 0
DWIDTH 10 0
BBX 10 10 0 -2
BITMAP
0000
1600
7E00
17C0
7AC0
0300
7D80
1580
5CC0
0000
ENDCHAR

STARTCHAR jisx0208_343F
ENCODING 13375
SWIDTH 960 0
DWIDTH 10 0
BBX 10 10 0 -2
BITMAP
0000
3300
3B00
57C0
3DC0
2D80
7D80
2AC0
3EC0
0000
ENDCHAR

STARTCHAR jisx0208_3440
ENCODING 13376
SWIDTH 960 0
DWIDTH 10 0
BBX 10 10 0 -2
BITMAP
0000
6FC0
0300
6300
1FC0
0300
3300
3300
6300
0000
ENDCHAR

STARTCHAR jisx0208_3441
ENCODING 13377
SWIDTH 960 0
DWIDTH 10 0
BBX 10 10 0 -2
BITMAP
0000
6D80
3FC0
5580
1F80
0600
3FC0
2B00
59C0
0000
ENDCHAR

STARTCHAR jisx0208_3442
ENCODING 13378
SWIDTH 960 0
DWIDTH 10 0
BBX 10 10 0 -2
BITMAP
0000
5FC0
16C0
5FC0
1AC0
1EC0
1AC0
5EC0
58C0
0000
ENDCHAR

STARTCHAR jisx0208_3443
ENCODING 13379
SWIDTH 960 0
DWIDTH 10 0
BBX 10 10 0 -2
BITMAP
0000
6C00
0FC0
5600
0FC0
1B00
2FC0
2B00
6FC0
0000
ENDCHAR

STARTCHAR jisx0208_3444
ENCODING 13380
SWIDTH 960 0
DWIDTH 10 0
BBX 10 10 0 -2
BITMAP
0000
7FC0
2AC0
2FC0
7FC0
36C0
37C0
7780
1AC0
0000
ENDCHAR

STARTCHAR jisx0208_3445
ENCODING 13381
SWIDTH 960 0
DWIDTH 10 0
BBX 10 10 0 -2
BITMAP
0000
1B00
7FC0
1B00
1B00
1F00
1B00
1B00
1F00
0000
ENDCHAR

STARTCHAR jisx0208_3446
ENCODING 13382
SWIDTH 960 0
DWIDTH 10 0
BBX 10 10 0 -2
BITMAP
0000
7B00
5BC0
7E00
5BC0
7C00
3FC0
2AC0
7FC0
0000
ENDCHAR

STARTCHAR jisx0208_3447
ENCODING 13383
SWIDTH 960 0
DWIDTH 10 0
BBX 10 10 0 -2
BITMAP
0000
3F80
0C00
7FC0
1800
7FC0
3980
5980
1F80
0000
ENDCHAR

STARTCHAR jisx0208_3448
ENCODING 13384
SWIDTH 960 0
DWIDTH 10 0
BBX 10 10 0 -2
BITMAP
0000
3300
3FC0
5980
3FC0
0600
7FC0
0600
0600
0000
ENDCHAR

STARTCHAR jisx0208_3449
ENCODING 13385
SWIDTH 960 0
DWIDTH 10 0
BBX 10 10 0 -2
BITMAP
0000
3600
3FC0
5980
7FC0
5AC0
1F80
1980
1F80
0000
ENDCHAR

STARTCHAR jisx0208_344A
ENCODING 13386
SWIDTH 960 0
DWIDTH 10 0
BBX 10 10 0 -2
BITMAP
0000
3300
3FC0
6AC0
3BC0
2EC0
2AC0
2AC0
2EC0
0000
ENDCHAR

STARTCHAR jisx0208_344B
ENCODING 13387
SWIDTH 960 0
DWIDTH 10 0
BBX 10 10 0 -2
BITMAP
0000
31C0
5700
2FC0
7B00
2FC0
7AC0
7580
2AC0
0000
ENDCHAR

STARTCHAR jisx0208_344C
ENCODING 13388
SWIDTH 960 0
DWIDTH 10 0
BBX 10 10 0 -2
BITMAP
0000
1800
3FC0
6600
7FC0
0600
36C0
36C0
3FC0
0000
ENDCHAR

STARTCHAR jisx0208_344D
ENCODING 13389
SWIDTH 960 0
DWIDTH 10 0
BBX 10 10 0 -2
BITMAP
0000
3300
7580
2CC0
5FC0
7AC0
2AC0
77C0
2AC0
0000
ENDCHAR

STARTCHAR jisx0208_344E
ENCODING 13390
SWIDTH 960 0
DWIDTH 10 0
BBX 10 10 0 -2
BITMAP
0000
7FC0
5B00
7B00
5FC0
7B00
5B00
5B00
5B00
0000
ENDCHAR

STARTCHAR jisx0208_344F
ENCODING 13391
SWIDTH 960 0
DWIDTH 10 0
BBX 10 10 0 -2
BITMAP
0000
2D80
77C0
5E00
77C0
5600
7F80
5580
5FC0
0000
ENDCHAR

STARTCHAR jisx0208_3450
ENCODING 13392
SWIDTH 960 0
DWIDTH 10 0
BBX 10 10 0 -2
BITMAP
0000
1B00
7FC0
1B00
7FC0
60C0
3F80
16C0
77C0
0000
ENDCHAR

STARTCHAR jisx0208_3451
ENCODING 13393
SWIDTH 960 0
DWIDTH 10 0
BBX 10 10 0 -2
BITMAP
0000
33C0
3EC0
5BC0
3EC0
6AC0
3FC0
2B80
3DC0
0000
ENDCHAR

STARTCHAR jisx0208_3452
ENCODING 13394
SWIDTH 960 0
DWIDTH 10 0
BBX 10 10 0 -2
BITMAP
0000
3300
7FC0
0AC0
7FC0
0AC0
7FC0
5780
7AC0
0000
ENDCHAR

STARTCHAR jisx0208_3453
ENCODING 13395
SWIDTH 960 0
DWIDTH 10 0
BBX 10 10 0 -2
BITMAP
0000
3F80
7FC0
2D80
3F80
3180
3180
3F80
60C0
0000
ENDCHAR

STARTCHAR jisx0208_3454
ENCODING 13396
SWIDTH 960 0
DWIDTH 10 0
BBX 10 10 0 -2
BITMAP
0000
5F80
1580
3FC0
0D80
6F80
2EC0
3580
5FC0
0000
ENDCHAR

STARTCHAR jisx0208_3455
ENCODING 13397
SWIDTH 960 0
DWIDTH 10 0
BBX 10 10 0 -2
BITMAP
0000
2D80
5BC0
7F00
2BC0
7E00
2FC0
7AC0
6FC0
0000
ENDCHAR

STARTCHAR jisx0208_3456
ENCODING 13398
SWIDTH 960 0
DWIDTH 10 0
BBX 10 10 0 -2
BITMAP
0000
7BC0
5AC0
7BC0
5EC0
56C0
5EC0
56C0
5EC0
0000
ENDCHAR

STARTCHAR jisx0208_3457
ENCODING 13399
SWIDTH 960 0
DWIDTH 10 0
BBX 10 10 0 -2
BITMAP
0000
7BC0
5AC0
7BC0
6CC0
7EC0
5EC0
6AC0
6CC0
0000
ENDCHAR

STARTCHAR jisx0208_3458
ENCODING 13400
SWIDTH 960 0
DWIDTH 10 0
BBX 10 10 0 -2
BITMAP
0000
7BC0
5AC0
7BC0
56C0
7EC0
6CC0
7EC0
56C0
0000
ENDCHAR

STARTCHAR jisx0208_3459
ENCODING 13401
SWIDTH 960 0
DWIDTH 10 0
BBX 10 10 0 -2
BITMAP
0000
7BC0
56C0
5D80
73C0
5AC0
5BC0
6AC0
6BC0
0000
ENDCHAR

STARTCHAR jisx0208_345A
ENCODING 13402
SWIDTH 960 0
DWIDTH 10 0
BBX 10 10 0 -2
BITMAP
0000
3300
7F80
3580
5FC0
7580
2F80
7580
2FC0
0000
ENDCHAR

STARTCHAR jisx0208_345B
ENCODING 13403
SWIDTH 960 0
DWIDTH 10 0
BBX 10 10 0 -2
BITMAP
0000
3300
5FC0
2DC0
7780
5600
77C0
66C0
77C0
0000
ENDCHAR

STARTCHAR jisx0208_345C
ENCODING 13404
SWIDTH 960 0
DWIDTH 10 0
BBX 10 10 0 -2
BITMAP
0000
3300
5FC0
75C0
3780
7600
37C0
56C0
77C0
0000
ENDCHAR

STARTCHAR jisx0208_345D
ENCODING 13405
SWIDTH 960 0
DWIDTH 10 0
BBX 10 10 0 -2
BITMAP
0000
0C00
0C00
7F00
0B00
3B00
1B00
2AC0
63C0
0000
ENDCHAR

STARTCHAR jisx0208_345E
ENCODING 13406
SWIDTH 960 0
DWIDTH 10 0
BBX 10 10 0 -2
BITMAP
0000
0E00
1B00
3F80
62C0
0600
3F80
3180
3F80
0000
ENDCHAR

STARTCHAR jisx0208_345F
ENCODING 13407
SWIDTH 960 0
DWIDTH 10 0
BBX 10 10 0 -2
BITMAP
0000
1580
3FC0
3000
2FC0
3300
3FC0
3300
6300
0000
ENDCHAR

STARTCHAR jisx0208_3460
ENCODING 13408
SWIDTH 960 0
DWIDTH 10 0
BBX 10 10 0 -2
BITMAP
0000
36C0
3FC0
1AC0
7FC0
2AC0
2EC0
3D80
6AC0
0000
ENDCHAR

STARTCHAR jisx0208_3461
ENCODING 13409
SWIDTH 960 0
DWIDTH 10 0
BBX 10 10 0 -2
BITMAP
0000
7780
3000
3000
7FC0
3580
3580
7580
1DC0
0000
ENDCHAR

STARTCHAR jisx0208_3462
ENCODING 13410
SWIDTH 960 0
DWIDTH 10 0
BBX 10 10 0 -2
BITMAP
0000
0600
3FC0
3580
6FC0
2AC0
6FC0
3AC0
5FC0
0000
ENDCHAR

STARTCHAR jisx0208_3463
ENCODING 13411
SWIDTH 960 0
DWIDTH 10 0
BBX 10 10 0 -2
BITMAP
0000
7780
5580
7780
5580
7780
55C0
5580
76C0
0000
ENDCHAR

STARTCHAR jisx0208_3464
ENCODING 13412
SWIDTH 960 0
DWIDTH 10 0
BBX 10 10 0 -2
BITMAP
0000
2D80
3F80
0000
7FC0
1800
3F80
5980
1F80
0000
ENDCHAR

STARTCHAR jisx0208_3465
ENCODING 13413
SWIDTH 960 0
DWIDTH 10 0
BBX 10 10 0 -2
BITMAP
0000
7F80
5600
3600
7FC0
6B80
7B80
6B80
7DC0
0000
ENDCHAR

STARTCHAR jisx0208_3466
ENCODING 13414
SWIDTH 960 0
DWIDTH 10 0
BBX 10 10 0 -2
BITMAP
0000
3FC0
2B00
2FC0
3B00
2FC0
2CC0
2FC0
58C0
0000
ENDCHAR

STARTCHAR jisx0208_3467
ENCODING 13415
SWIDTH 960 0
DWIDTH 10 0
BBX 10 10 0 -2
BITMAP
0000
3FC0
2AC0
2D80
37C0
3580
37C0
3580
57C0
0000
ENDCHAR

STARTCHAR jisx0208_3468
ENCODING 13416
SWIDTH 960 0
DWIDTH 10 0
BBX 10 10 0 -2
BITMAP
0000
3BC0
0180
7FC0
2AC0
2BC0
2AC0
2BC0
6EC0
0000
ENDCHAR

STARTCHAR jisx0208_3469
ENCODING 13417
SWIDTH 960 0
DWIDTH 10 0
BBX 10 10 0 -2
BITMAP
0000
1BC0
7D80
2BC0
7EC0
6BC0
5AC0
6BC0
56C0
0000
ENDCHAR

STARTCHAR jisx0208_346A
ENCODING 13418
SWIDTH 960 0
DWIDTH 10 0
BBX 10 10 0 -2
BITMAP
0000
7BC0
5980
7BC0
6AC0
7BC0
5AC0
7BC0
56C0
0000
ENDCHAR

STARTCHAR jisx0208_346B
ENCODING 13419
SWIDTH 960 0
DWIDTH 10 0
BBX 10 10 0 -2
BITMAP
0000
0E00
1B00
75C0
0600
3780
3600
3600
7FC0
0000
ENDCHAR

STARTCHAR jisx0208_346C
ENCODING 13420
SWIDTH 960 0
DWIDTH 10 0
BBX 10 10 0 -2
BITMAP
0000
1B00
2FC0
7300
2FC0
36C0
36C0
3380
2EC0
0000
ENDCHAR

STARTCHAR jisx0208_346D
ENCODING 13421
SWIDTH 960 0
DWIDTH 10 0
BBX 10 10 0 -2
BITMAP
0000
1F00
3300
7FC0
2D80
2B80
2C00
2CC0
6FC0
0000
ENDCHAR

STARTCHAR jisx0208_346E
ENCODING 13422
SWIDTH 960 0
DWIDTH 10 0
BBX 10 10 0 -2
BITMAP
0000
0C00
7FC0
3F00
3300
7FC0
3F00
3300
3F00
0000
ENDCHAR

STARTCHAR jisx0208_346F
ENCODING 13423
SWIDTH 960 0
DWIDTH 10 0
BBX 10 10 0 -2
BITMAP
0000
7780
5580
7780
0C00
7FC0
7780
55C0
7780
0000
ENDCHAR

STARTCHAR jisx0208_3470
ENCODING 13424
SWIDTH 960 0
DWIDTH 10 0
BBX 10 10 0 -2
BITMAP
0000
1B00
7FC0
1F00
1B00
7FC0
3D80
6CC0
3F80
0000
ENDCHAR

STARTCHAR jisx0208_3471
ENCODING 13425
SWIDTH 960 0
DWIDTH 10 0
BBX 10 10 0 -2
BITMAP
0000
0C00
7FC0
1B00
3180
7FC0
2D80
3D80
0380
0000
ENDCHAR

STARTCHAR jisx0208_3472
ENCODING 13426
SWIDTH 960 0
DWIDTH 10 0
BBX 10 10 0 -2
BITMAP
0000
3300
2FC0
7B00
3780
5580
6FC0
3580
5780
0000
ENDCHAR

STARTCHAR jisx0208_3473
ENCODING 13427
SWIDTH 960 0
DWIDTH 10 0
BBX 10 10 0 -2
BITMAP
0000
0600
7FC0
6EC0
1B00
7FC0
2D80
3D80
0380
0000
ENDCHAR

STARTCHAR jisx0208_3474
ENCODING 13428
SWIDTH 960 0
DWIDTH 10 0
BBX 10 10 0 -2
BITMAP
0000
3180
2FC0
3180
5FC0
56C0
56C0
7B80
0EC0
0000
ENDCHAR

STARTCHAR jisx0208_3475
ENCODING 13429
SWIDTH 960 0
DWIDTH 10 0
BBX 10 10 0 -2
BITMAP
0000
1D80
0700
7FC0
0E00
3FC0
76C0
36C0
0600
0000
ENDCHAR

STARTCHAR jisx0208_3476
ENCODING 13430
SWIDTH 960 0
DWIDTH 10 0
BBX 10 10 0 -2
BITMAP
0000
1580
2EC0
1580
2EC0
7FC0
3300
39C0
6AC0
0000
ENDCHAR

STARTCHAR jisx0208_3477
ENCODING 13431
SWIDTH 960 0
DWIDTH 10 0
BBX 10 10 0 -2
BITMAP
0000
3F00
0300
3F00
30C0
3FC0
1600
58C0
5EC0
0000
ENDCHAR

STARTCHAR jisx0208_3478
ENCODING 13432
SWIDTH 960 0
DWIDTH 10 0
BBX 10 10 0 -2
BITMAP
0000
2FC0
7AC0
3780
3580
7780
3300
2FC0
7300
0000
ENDCHAR

STARTCHAR jisx0208_3479
ENCODING 13433
SWIDTH 960 0
DWIDTH 10 0
BBX 10 10 0 -2
BITMAP
0000
3780
7580
3580
7580
7580
3580
3580
2DC0
0000
ENDCHAR

STARTCHAR jisx0208_347A
ENCODING 13434
SWIDTH 960 0
DWIDTH 10 0
BBX 10 10 0 -2
BITMAP
0000
3300
7BC0
37C0
3AC0
2BC0
2AC0
2FC0
56C0
0000
ENDCHAR

STARTCHAR jisx0208_347B
ENCODING 13435
SWIDTH 960 0
DWIDTH 10 0
BBX 10 10 0 -2
BITMAP
0000
7FC0
5580
7580
5FC0
7B80
6380
5580
6DC0
0000
ENDCHAR

STARTCHAR jisx0208_347C
ENCODING 13436
SWIDTH 960 0
DWIDTH 10 0
BBX 10 10 0 -2
BITMAP
0000
2BC0
7EC0
2BC0
3AC0
2BC0
7EC0
2AC0
66C0
0000
ENDCHAR

STARTCHAR jisx0208_347D
ENCODING 13437
SWIDTH 960 0
DWIDTH 10 0
BBX 10 10 0 -2
BITMAP
0000
3580
7FC0
3580
7780
7580
2FC0
3580
2CC0
0000
ENDCHAR

STARTCHAR jisx0208_347E
ENCODING 13438
SWIDTH 960 0
DWIDTH 10 0
BBX 10 10 0 -2
BITMAP
0000
0C00
7FC0
1B00
7FC0
2B00
7FC0
2B00
6DC0
0000
ENDCHAR

STARTCHAR jisx0208_3521
ENCODING 13601
SWIDTH 960 0
DWIDTH 10 0
BBX 10 10 0 -2
BITMAP
0000
36C0
7B80
36C0
7B80
6FC0
2DC0
2D80
3AC0
0000
ENDCHAR

STARTCHAR jisx0208_3522
ENCODING 13602
SWIDTH 960 0
DWIDTH 10 0
BBX 10 10 0 -2
BITMAP
0000
1780
5980
5FC0
5AC0
1FC0
1AC0
2AC0
6300
0000
ENDCHAR

STARTCHAR jisx0208_3523
ENCODING 13603
SWIDTH 960 0
DWIDTH 10 0
BBX 10 10 0 -2
BITMAP
0000
1780
7D80
2DC0
7E00
17C0
6AC0
1D80
6AC0
0000
ENDCHAR

STARTCHAR jisx0208_3524
ENCODING 13604
SWIDTH 960 0
DWIDTH 10 0
BBX 10 10 0 -2
BITMAP
0000
3000
3F80
5E00
0000
7F80
3580
1D80
6CC0
0000
ENDCHAR

STARTCHAR jisx0208_3525
ENCODING 13605
SWIDTH 960 0
DWIDTH 10 0
BBX 10 10 0 -2
BITMAP
0000
6C00
1F80
6F00
0000
1F80
3180
3180
60C0
0000
ENDCHAR

STARTCHAR jisx0208_3526
ENCODING 13606
SWIDTH 960 0
DWIDTH 10 0
BBX 10 10 0 -2
BITMAP
0000
2B00
5D80
2B00
7FC0
5700
7EC0
5580
7EC0
0000
ENDCHAR

STARTCHAR jisx0208_3527
ENCODING 13607
SWIDTH 960 0
DWIDTH 10 0
BBX 10 10 0 -2
BITMAP
0000
3180
7700
1600
37C0
7580
3580
3580
2D80
0000
ENDCHAR

STARTCHAR jisx0208_3528
ENCODING 13608
SWIDTH 960 0
DWIDTH 10 0
BBX 10 10 0 -2
BITMAP
0000
3F00
0C00
7FC0
2B00
5DC0
0600
7FC0
0C00
0000
ENDCHAR

STARTCHAR jisx0208_3529
ENCODING 13609
SWIDTH 960 0
DWIDTH 10 0
BBX 10 10 0 -2
BITMAP
0000
16C0
7380
36C0
7FC0
3300
7FC0
2AC0
2AC0
0000
ENDCHAR

STARTCHAR jisx0208_352A
ENCODING 13610
SWIDTH 960 0
DWIDTH 10 0
BBX 10 10 0 -2
BITMAP
0000
37C0
58C0
30C0
77C0
3600
7600
76C0
37C0
0000
ENDCHAR

STARTCHAR jisx0208_352B
ENCODING 13611
SWIDTH 960 0
DWIDTH 10 0
BBX 10 10 0 -2
BITMAP
0000
2D80
5B00
3FC0
6AC0
36C0
3D80
2D80
2AC0
0000
ENDCHAR

STARTCHAR jisx0208_352C
ENCODING 13612
SWIDTH 960 0
DWIDTH 10 0
BBX 10 10 0 -2
BITMAP
0000
3780
7580
3780
7580
3580
3780
5580
6DC0
0000
ENDCHAR

STARTCHAR jisx0208_352D
ENCODING 13613
SWIDTH 960 0
DWIDTH 10 0
BBX 10 10 0 -2
BITMAP
0000
37C0
78C0
00C0
77C0
0600
7600
56C0
77C0
0000
ENDCHAR

STARTCHAR jisx0208_352E
ENCODING 13614
SWIDTH 960 0
DWIDTH 10 0
BBX 10 10 0 -2
BITMAP
0000
0600
1F80
75C0
1F80
1980
1980
1F80
70C0
0000
ENDCHAR

STARTCHAR jisx0208_352F
ENCODING 13615
SWIDTH 960 0
DWIDTH 10 0
BBX 10 10 0 -2
BITMAP
0000
3000
7780
3180
7780
36C0
77C0
7000
5FC0
0000
ENDCHAR

STARTCHAR jisx0208_3530
ENCODING 13616
SWIDTH 960 0
DWIDTH 10 0
BBX 10 10 0 -2
BITMAP
0000
3600
7600
2F80
7580
7580
3580
7580
2DC0
0000
ENDCHAR

STARTCHAR jisx0208_3531
ENCODING 13617
SWIDTH 960 0
DWIDTH 10 0
BBX 10 10 0 -2
BITMAP
0000
2FC0
7AC0
3780
7D80
3780
3B00
3FC0
5B00
0000
ENDCHAR

STARTCHAR jisx0208_3532
ENCODING 13618
SWIDTH 960 0
DWIDTH 10 0
BBX 10 10 0 -2
BITMAP
0000
3000
5780
3580
7580
5580
7580
5580
6DC0
0000
ENDCHAR

STARTCHAR jisx0208_3533
ENCODING 13619
SWIDTH 960 0
DWIDTH 10 0
BBX 10 10 0 -2
BITMAP
0000
7B00
57C0
7B80
56C0
7FC0
0AC0
6EC0
1DC0
0000
ENDCHAR

STARTCHAR jisx0208_3534
ENCODING 13620
SWIDTH 960 0
DWIDTH 10 0
BBX 10 10 0 -2
BITMAP
0000
1800
7F80
7F80
6D80
7F80
1B00
2CC0
6FC0
0000
ENDCHAR

STARTCHAR jisx0208_3535
ENCODING 13621
SWIDTH 960 0
DWIDTH 10 0
BBX 10 10 0 -2
BITMAP
0000
1E00
7F00
2B00
7F80
6D80
7F80
0CC0
0FC0
0000
ENDCHAR

STARTCHAR jisx0208_3536
ENCODING 13622
SWIDTH 960 0
DWIDTH 10 0
BBX 10 10 0 -2
BITMAP
0000
1B00
2F80
7580
37C0
2CC0
3FC0
30C0
3580
0000
ENDCHAR

STARTCHAR jisx0208_3537
ENCODING 13623
SWIDTH 960 0
DWIDTH 10 0
BBX 10 10 0 -2
BITMAP
0000
1580
2FC0
7300
3FC0
2D80
3FC0
2D80
2AC0
0000
ENDCHAR

STARTCHAR jisx0208_3538
ENCODING 13624
SWIDTH 960 0
DWIDTH 10 0
BBX 10 10 0 -2
BITMAP
0000
3300
2FC0
7B00
3FC0
56C0
7380
3380
56C0
0000
ENDCHAR

STARTCHAR jisx0208_3539
ENCODING 13625
SWIDTH 960 0
DWIDTH 10 0
BBX 10 10 0 -2
BITMAP
0000
0C00
7FC0
5AC0
1F00
1B00
1F00
1B00
7FC0
0000
ENDCHAR

STARTCHAR jisx0208_353A
ENCODING 13626
SWIDTH 960 0
DWIDTH 10 0
BBX 10 10 0 -2
BITMAP
0000
1D80
7D80
5BC0
7D80
59C0
7D80
5B80
7EC0
0000
ENDCHAR

STARTCHAR jisx0208_353B
ENCODING 13627
SWIDTH 960 0
DWIDTH 10 0
BBX 10 10 0 -2
BITMAP
0000
3300
77C0
3300
37C0
76C0
3380
3380
6EC0
0000
ENDCHAR

STARTCHAR jisx0208_353C
ENCODING 13628
SWIDTH 960 0
DWIDTH 10 0
BBX 10 10 0 -2
BITMAP
0000
2DC0
7EC0
2D80
3FC0
7580
2FC0
3580
6BC0
0000
ENDCHAR

STARTCHAR jisx0208_353D
ENCODING 13629
SWIDTH 960 0
DWIDTH 10 0
BBX 10 10 0 -2
BITMAP
0000
2B00
7FC0
2DC0
3D80
2D80
7D80
2AC0
66C0
0000
ENDCHAR

STARTCHAR jisx0208_353E
ENCODING 13630
SWIDTH 960 0
DWIDTH 10 0
BBX 10 10 0 -2
BITMAP
0000
7580
7FC0
3300
3FC0
6B00
3FC0
2D80
2AC0
0000
ENDCHAR

STARTCHAR jisx0208_353F
ENCODING 13631
SWIDTH 960 0
DWIDTH 10 0
BBX 10 10 0 -2
BITMAP
0000
6BC0
78C0
6D80
3FC0
5B00
7FC0
1700
6DC0
0000
ENDCHAR

STARTCHAR jisx0208_3540
ENCODING 13632
SWIDTH 960 0
DWIDTH 10 0
BBX 10 10 0 -2
BITMAP
0000
30C0
7780
1580
3580
77C0
3580
36C0
2EC0
0000
ENDCHAR

STARTCHAR jisx0208_3541
ENCODING 13633
SWIDTH 960 0
DWIDTH 10 0
BBX 10 10 0 -2
BITMAP
0000
1B00
7FC0
0C00
7FC0
3580
7FC0
3300
6DC0
0000
ENDCHAR

STARTCHAR jisx0208_3542
ENCODING 13634
SWIDTH 960 0
DWIDTH 10 0
BBX 10 10 0 -2
BITMAP
0000
3580
2FC0
7B00
5FC0
7580
2FC0
3580
6EC0
0000
ENDCHAR

STARTCHAR jisx0208_3543
ENCODING 13635
SWIDTH 960 0
DWIDTH 10 0
BBX 10 10 0 -2
BITMAP
0000
3300
7FC0
0CC0
7780
0580
7780
5580
7FC0
0000
ENDCHAR

STARTCHAR jisx0208_3544
ENCODING 13636
SWIDTH 960 0
DWIDTH 10 0
BBX 10 10 0 -2
BITMAP
0000
3580
7FC0
0300
7FC0
0D80
7FC0
5580
7EC0
0000
ENDCHAR

STARTCHAR jisx0208_3545
ENCODING 13637
SWIDTH 960 0
DWIDTH 10 0
BBX 10 10 0 -2
BITMAP
0000
3600
77C0
2DC0
36C0
6FC0
36C0
2DC0
7580
0000
ENDCHAR

STARTCHAR jisx0208_3546
ENCODING 13638
SWIDTH 960 0
DWIDTH 10 0
BBX 10 10 0 -2
BITMAP
0000
0B00
7FC0
2B00
3FC0
55C0
3EC0
0EC0
3580
0000
ENDCHAR

STARTCHAR jisx0208_3547
ENCODING 13639
SWIDTH 960 0
DWIDTH 10 0
BBX 10 10 0 -2
BITMAP
0000
5600
77C0
2AC0
77C0
7AC0
2FC0
7AC0
3380
0000
ENDCHAR

STARTCHAR jisx0208_3548
ENCODING 13640
SWIDTH 960 0
DWIDTH 10 0
BBX 10 10 0 -2
BITMAP
0000
0C00
7FC0
0C00
3F80
0000
3F80
3180
3F80
0000
ENDCHAR

STARTCHAR jisx0208_3549
ENCODING 13641
SWIDTH 960 0
DWIDTH 10 0
BBX 10 10 0 -2
BITMAP
0000
0600
77C0
5C00
5780
5980
5B00
76C0
07C0
0000
ENDCHAR

STARTCHAR jisx0208_354A
ENCODING 13642
SWIDTH 960 0
DWIDTH 10 0
BBX 10 10 0 -2
BITMAP
0000
0600
7FC0
55C0
5EC0
5580
7FC0
0700
1DC0
0000
ENDCHAR

STARTCHAR jisx0208_354B
ENCODING 13643
SWIDTH 960 0
DWIDTH 10 0
BBX 10 10 0 -2
BITMAP
0000
3300
7FC0
3300
6FC0
7800
2FC0
2CC0
2FC0
0000
ENDCHAR

STARTCHAR jisx0208_354C
ENCODING 13644
SWIDTH 960 0
DWIDTH 10 0
BBX 10 10 0 -2
BITMAP
0000
3780
7B00
2FC0
7580
6FC0
2DC0
2AC0
2CC0
0000
ENDCHAR

STARTCHAR jisx0208_354D
ENCODING 13645
SWIDTH 960 0
DWIDTH 10 0
BBX 10 10 0 -2
BITMAP
0000
3300
77C0
0300
77C0
0000
77C0
56C0
77C0
0000
ENDCHAR

STARTCHAR jisx0208_354E
ENCODING 13646
SWIDTH 960 0
DWIDTH 10 0
BBX 10 10 0 -2
BITMAP
0000
7B00
33C0
3300
3B00
6FC0
2CC0
2CC0
3FC0
0000
ENDCHAR

STARTCHAR jisx0208_354F
ENCODING 13647
SWIDTH 960 0
DWIDTH 10 0
BBX 10 10 0 -2
BITMAP
0000
3600
77C0
2B00
7B00
6FC0
3300
3300
3300
0000
ENDCHAR

STARTCHAR jisx0208_3550
ENCODING 13648
SWIDTH 960 0
DWIDTH 10 0
BBX 10 10 0 -2
BITMAP
0000
3F00
0C00
7FC0
2B00
5DC0
2F00
1D80
6CC0
0000
ENDCHAR

STARTCHAR jisx0208_3551
ENCODING 13649
SWIDTH 960 0
DWIDTH 10 0
BBX 10 10 0 -2
BITMAP
0000
1800
1BC0
7AC0
1AC0
7EC0
1AC0
2BC0
7B00
0000
ENDCHAR

STARTCHAR jisx0208_3552
ENCODING 13650
SWIDTH 960 0
DWIDTH 10 0
BBX 10 10 0 -2
BITMAP
0000
0C00
7FC0
5AC0
2E00
1B00
7FC0
3180
3F80
0000
ENDCHAR

STARTCHAR jisx0208_3553
ENCODING 13651
SWIDTH 960 0
DWIDTH 10 0
BBX 10 10 0 -2
BITMAP
0000
77C0
5EC0
76C0
5EC0
76C0
5AC0
5F00
5B00
0000
ENDCHAR

STARTCHAR jisx0208_3554
ENCODING 13652
SWIDTH 960 0
DWIDTH 10 0
BBX 10 10 0 -2
BITMAP
0000
0780
3FC0
36C0
3F80
3600
2FC0
2C00
6FC0
0000
ENDCHAR

STARTCHAR jisx0208_3555
ENCODING 13653
SWIDTH 960 0
DWIDTH 10 0
BBX 10 10 0 -2
BITMAP
0000
6CC0
0580
0FC0
0300
6AC0
2FC0
3600
5FC0
0000
ENDCHAR

STARTCHAR jisx0208_3556
ENCODING 13654
SWIDTH 960 0
DWIDTH 10 0
BBX 10 10 0 -2
BITMAP
0000
0380
3E00
3000
3F80
3600
3600
3600
7FC0
0000
ENDCHAR

STARTCHAR jisx0208_3557
ENCODING 13655
SWIDTH 960 0
DWIDTH 10 0
BBX 10 10 0 -2
BITMAP
0000
1800
1F00
3300
6300
0600
0E00
1B00
71C0
0000
ENDCHAR

STARTCHAR jisx0208_3558
ENCODING 13656
SWIDTH 960 0
DWIDTH 10 0
BBX 10 10 0 -2
BITMAP
0000
1600
3600
6F80
3580
3580
3580
3580
2DC0
0000
ENDCHAR

STARTCHAR jisx0208_3559
ENCODING 13657
SWIDTH 960 0
DWIDTH 10 0
BBX 10 10 0 -2
BITMAP
0000
1B00
3300
6FC0
3300
3780
3780
2AC0
3300
0000
ENDCHAR

STARTCHAR jisx0208_355A
ENCODING 13658
SWIDTH 960 0
DWIDTH 10 0
BBX 10 10 0 -2
BITMAP
0000
7E00
1600
1780
1980
2D80
3700
6700
1DC0
0000
ENDCHAR

STARTCHAR jisx0208_355B
ENCODING 13659
SWIDTH 960 0
DWIDTH 10 0
BBX 10 10 0 -2
BITMAP
0000
1F00
7B00
5BC0
5AC0
56C0
5580
7B80
2EC0
0000
ENDCHAR

STARTCHAR jisx0208_355C
ENCODING 13660
SWIDTH 960 0
DWIDTH 10 0
BBX 10 10 0 -2
BITMAP
0000
0C00
7FC0
5AC0
1F00
0C00
3F80
3180
3F80
0000
ENDCHAR

STARTCHAR jisx0208_355D
ENCODING 13661
SWIDTH 960 0
DWIDTH 10 0
BBX 10 10 0 -2
BITMAP
0000
7F80
0180
3F80
3000
3FC0
30C0
00C0
0380
0000
ENDCHAR

STARTCHAR jisx0208_355E
ENCODING 13662
SWIDTH 960 0
DWIDTH 10 0
BBX 10 10 0 -2
BITMAP
0000
1E00
3600
7F80
0180
3F80
0600
58C0
5EC0
0000
ENDCHAR

STARTCHAR jisx0208_355F
ENCODING 13663
SWIDTH 960 0
DWIDTH 10 0
BBX 10 10 0 -2
BITMAP
0000
1B00
7B00
17C0
5AC0
3AC0
5D80
1B80
36C0
0000
ENDCHAR

STARTCHAR jisx0208_3560
ENCODING 13664
SWIDTH 960 0
DWIDTH 10 0
BBX 10 10 0 -2
BITMAP
0000
2FC0
7600
3600
77C0
70C0
30C0
30C0
3380
0000
ENDCHAR

STARTCHAR jisx0208_3561
ENCODING 13665
SWIDTH 960 0
DWIDTH 10 0
BBX 10 10 0 -2
BITMAP
0000
0D80
7FC0
0C00
2D80
1B00
2D80
6CC0
1C00
0000
ENDCHAR

STARTCHAR jisx0208_3562
ENCODING 13666
SWIDTH 960 0
DWIDTH 10 0
BBX 10 10 0 -2
BITMAP
0000
5F80
0D80
6D80
0BC0
0CC0
0EC0
6B80
56C0
0000
ENDCHAR

STARTCHAR jisx0208_3563
ENCODING 13667
SWIDTH 960 0
DWIDTH 10 0
BBX 10 10 0 -2
BITMAP
0000
6600
0600
5FC0
0180
0D80
2D80
3300
5FC0
0000
ENDCHAR

STARTCHAR jisx0208_3564
ENCODING 13668
SWIDTH 960 0
DWIDTH 10 0
BBX 10 10 0 -2
BITMAP
0000
1E00
7600
1B00
6DC0
2B00
6E00
1B00
71C0
0000
ENDCHAR

STARTCHAR jisx0208_3565
ENCODING 13669
SWIDTH 960 0
DWIDTH 10 0
BBX 10 10 0 -2
BITMAP
0000
7AC0
2FC0
3300
7AC0
3780
3B80
72C0
0700
0000
ENDCHAR

STARTCHAR jisx0208_3566
ENCODING 13670
SWIDTH 960 0
DWIDTH 10 0
BBX 10 10 0 -2
BITMAP
0000
0C00
7FC0
56C0
3780
0C00
7F00
1AC0
73C0
0000
ENDCHAR

STARTCHAR jisx0208_3567
ENCODING 13671
SWIDTH 960 0
DWIDTH 10 0
BBX 10 10 0 -2
BITMAP
0000
0C00
7FC0
56C0
3FC0
2CC0
7BC0
1CC0
6BC0
0000
ENDCHAR

STARTCHAR jisx0208_3568
ENCODING 13672
SWIDTH 960 0
DWIDTH 10 0
BBX 10 10 0 -2
BITMAP
0000
3300
3FC0
6D80
3F00
1B00
1B80
3580
6AC0
0000
ENDCHAR

STARTCHAR jisx0208_3569
ENCODING 13673
SWIDTH 960 0
DWIDTH 10 0
BBX 10 10 0 -2
BITMAP
0000
2F80
5580
3580
75C0
36C0
7580
7580
2AC0
0000
ENDCHAR

STARTCHAR jisx0208_356A
ENCODING 13674
SWIDTH 960 0
DWIDTH 10 0
BBX 10 10 0 -2
BITMAP
0000
3180
5580
3580
7580
35C0
7F80
7980
3180
0000
ENDCHAR

STARTCHAR jisx0208_356B
ENCODING 13675
SWIDTH 960 0
DWIDTH 10 0
BBX 10 10 0 -2
BITMAP
0000
3300
5580
2CC0
7780
3000
7780
7580
3780
0000
ENDCHAR

STARTCHAR jisx0208_356C
ENCODING 13676
SWIDTH 960 0
DWIDTH 10 0
BBX 10 10 0 -2
BITMAP
0000
6FC0
6CC0
6CC0
6FC0
6CC0
6CC0
6CC0
6FC0
0000
ENDCHAR

STARTCHAR jisx0208_356D
ENCODING 13677
SWIDTH 960 0
DWIDTH 10 0
BBX 10 10 0 -2
BITMAP
0000
1600
1F80
3600
0600
7FC0
0600
0600
0600
0000
ENDCHAR

STARTCHAR jisx0208_356E
ENCODING 13678
SWIDTH 960 0
DWIDTH 10 0
BBX 10 10 0 -2
BITMAP
0000
0C00
3F80
0C00
0C00
7FC0
0C00
1980
7EC0
0000
ENDCHAR

STARTCHAR jisx0208_356F
ENCODING 13679
SWIDTH 960 0
DWIDTH 10 0
BBX 10 10 0 -2
BITMAP
0000
3F80
3180
3F80
3FC0
3600
3F80
3980
5F80
0000
ENDCHAR

STARTCHAR jisx0208_3570
ENCODING 13680
SWIDTH 960 0
DWIDTH 10 0
BBX 10 10 0 -2
BITMAP
0000
7FC0
6000
7F80
6180
7F80
6000
6000
7FC0
0000
ENDCHAR

STARTCHAR jisx0208_3571
ENCODING 13681
SWIDTH 960 0
DWIDTH 10 0
BBX 10 10 0 -2
BITMAP
0000
2FC0
7C00
2FC0
3CC0
6FC0
2C00
2C00
6FC0
0000
ENDCHAR

STARTCHAR jisx0208_3572
ENCODING 13682
SWIDTH 960 0
DWIDTH 10 0
BBX 10 10 0 -2
BITMAP
0000
2C00
7BC0
2EC0
3AC0
6AC0
36C0
3700
6DC0
0000
ENDCHAR

STARTCHAR jisx0208_3573
ENCODING 13683
SWIDTH 960 0
DWIDTH 10 0
BBX 10 10 0 -2
BITMAP
0000
2D80
7FC0
3580
5EC0
0600
7FC0
0600
0E00
0000
ENDCHAR

STARTCHAR jisx0208_3574
ENCODING 13684
SWIDTH 960 0
DWIDTH 10 0
BBX 10 10 0 -2
BITMAP
0000
5FC0
1980
5F80
1800
7FC0
1B00
2D80
6CC0
0000
ENDCHAR

STARTCHAR jisx0208_3575
ENCODING 13685
SWIDTH 960 0
DWIDTH 10 0
BBX 10 10 0 -2
BITMAP
0000
0780
3FC0
36C0
3E00
37C0
3AC0
2B80
5FC0
0000
ENDCHAR

STARTCHAR jisx0208_3576
ENCODING 13686
SWIDTH 960 0
DWIDTH 10 0
BBX 10 10 0 -2
BITMAP
0000
3600
77C0
0B00
7B00
0FC0
7B00
5B00
7B00
0000
ENDCHAR

STARTCHAR jisx0208_3577
ENCODING 13687
SWIDTH 960 0
DWIDTH 10 0
BBX 10 10 0 -2
BITMAP
0000
77C0
5600
77C0
36C0
37C0
7600
7600
77C0
0000
ENDCHAR

STARTCHAR jisx0208_3578
ENCODING 13688
SWIDTH 960 0
DWIDTH 10 0
BBX 10 10 0 -2
BITMAP
0000
2FC0
5CC0
7FC0
2FC0
7D80
2FC0
76C0
77C0
0000
ENDCHAR

STARTCHAR jisx0208_3579
ENCODING 13689
SWIDTH 960 0
DWIDTH 10 0
BBX 10 10 0 -2
BITMAP
0000
6780
0FC0
5AC0
0FC0
0AC0
2FC0
3000
6AC0
0000
ENDCHAR

STARTCHAR jisx0208_357A
ENCODING 13690
SWIDTH 960 0
DWIDTH 10 0
BBX 10 10 0 -2
BITMAP
0000
2C00
5FC0
2AC0
7EC0
2B00
7FC0
0600
66C0
0000
ENDCHAR

STARTCHAR jisx0208_357B
ENCODING 13691
SWIDTH 960 0
DWIDTH 10 0
BBX 10 10 0 -2
BITMAP
0000
1E00
3600
7F80
2D80
3F80
2D80
3F80
56C0
0000
ENDCHAR

STARTCHAR jisx0208_357C
ENCODING 13692
SWIDTH 960 0
DWIDTH 10 0
BBX 10 10 0 -2
BITMAP
0000
0600
7FC0
1B00
7F80
0300
0600
0600
0E00
0000
ENDCHAR

STARTCHAR jisx0208_357D
ENCODING 13693
SWIDTH 960 0
DWIDTH 10 0
BBX 10 10 0 -2
BITMAP
0000
0600
7FC0
1980
1F80
0300
7FC0
0600
0E00
0000
ENDCHAR

STARTCHAR jisx0208_357E
ENCODING 13694
SWIDTH 960 0
DWIDTH 10 0
BBX 10 10 0 -2
BITMAP
0000
0600
7FC0
3F80
3180
3F80
0600
3580
6EC0
0000
ENDCHAR

STARTCHAR jisx0208_3621
ENCODING 13857
SWIDTH 960 0
DWIDTH 10 0
BBX 10 10 0 -2
BITMAP
0000
1580
3580
6FC0
3580
3580
2FC0
3580
2CC0
0000
ENDCHAR

STARTCHAR jisx0208_3622
ENCODING 13858
SWIDTH 960 0
DWIDTH 10 0
BBX 10 10 0 -2
BITMAP
0000
1B00
2FC0
7300
2AC0
3FC0
3300
3580
2CC0
0000
ENDCHAR

STARTCHAR jisx0208_3623
ENCODING 13859
SWIDTH 960 0
DWIDTH 10 0
BBX 10 10 0 -2
BITMAP
0000
1780
3300
6FC0
3580
3FC0
2CC0
2AC0
2CC0
0000
ENDCHAR

STARTCHAR jisx0208_3624
ENCODING 13860
SWIDTH 960 0
DWIDTH 10 0
BBX 10 10 0 -2
BITMAP
0000
5580
6D80
5580
6180
7F80
1600
36C0
67C0
0000
ENDCHAR

STARTCHAR jisx0208_3625
ENCODING 13861
SWIDTH 960 0
DWIDTH 10 0
BBX 10 10 0 -2
BITMAP
0000
1B00
7FC0
2D80
7FC0
2D80
3FC0
3B80
5DC0
0000
ENDCHAR

STARTCHAR jisx0208_3626
ENCODING 13862
SWIDTH 960 0
DWIDTH 10 0
BBX 10 10 0 -2
BITMAP
0000
1B00
1B00
7FC0
1B00
1B00
7FC0
1B00
71C0
0000
ENDCHAR

STARTCHAR jisx0208_3627
ENCODING 13863
SWIDTH 960 0
DWIDTH 10 0
BBX 10 10 0 -2
BITMAP
0000
0300
5AC0
6EC0
6EC0
5AC0
70C0
60C0
7FC0
0000
ENDCHAR

STARTCHAR jisx0208_3628
ENCODING 13864
SWIDTH 960 0
DWIDTH 10 0
BBX 10 10 0 -2
BITMAP
0000
3600
2F80
7580
2B00
3FC0
2AC0
2AC0
3580
0000
ENDCHAR

STARTCHAR jisx0208_3629
ENCODING 13865
SWIDTH 960 0
DWIDTH 10 0
BBX 10 10 0 -2
BITMAP
0000
7FC0
5F80
6600
5F80
6600
5F80
6000
7FC0
0000
ENDCHAR

STARTCHAR jisx0208_362A
ENCODING 13866
SWIDTH 960 0
DWIDTH 10 0
BBX 10 10 0 -2
BITMAP
0000
3FC0
56C0
5EC0
56C0
5EC0
7AC0
3700
5B00
0000
ENDCHAR

STARTCHAR jisx0208_362B
ENCODING 13867
SWIDTH 960 0
DWIDTH 10 0
BBX 10 10 0 -2
BITMAP
0000
0180
7580
5580
5580
55C0
7780
0D80
0180
0000
ENDCHAR

STARTCHAR jisx0208_362C
ENCODING 13868
SWIDTH 960 0
DWIDTH 10 0
BBX 10 10 0 -2
BITMAP
0000
3F00
0C00
7FC0
3300
7F80
55C0
5D80
6180
0000
ENDCHAR

STARTCHAR jisx0208_362D
ENCODING 13869
SWIDTH 960 0
DWIDTH 10 0
BBX 10 10 0 -2
BITMAP
0000
3300
2FC0
7580
2FC0
2CC0
3FC0
7580
1DC0
0000
ENDCHAR

STARTCHAR jisx0208_362E
ENCODING 13870
SWIDTH 960 0
DWIDTH 10 0
BBX 10 10 0 -2
BITMAP
0000
3300
2FC0
3300
5AC0
5FC0
5B00
7580
0CC0
0000
ENDCHAR

STARTCHAR jisx0208_362F
ENCODING 13871
SWIDTH 960 0
DWIDTH 10 0
BBX 10 10 0 -2
BITMAP
0000
7580
1FC0
7B00
6FC0
7AC0
1FC0
1AC0
6FC0
0000
ENDCHAR

STARTCHAR jisx0208_3630
ENCODING 13872
SWIDTH 960 0
DWIDTH 10 0
BBX 10 10 0 -2
BITMAP
0000
7FC0
1580
7580
6FC0
7FC0
1580
1580
6FC0
0000
ENDCHAR

STARTCHAR jisx0208_3631
ENCODING 13873
SWIDTH 960 0
DWIDTH 10 0
BBX 10 10 0 -2
BITMAP
0000
3300
3300
7FC0
7300
2FC0
3300
3580
2EC0
0000
ENDCHAR

STARTCHAR jisx0208_3632
ENCODING 13874
SWIDTH 960 0
DWIDTH 10 0
BBX 10 10 0 -2
BITMAP
0000
7780
3580
3780
6DC0
0000
1600
58C0
5EC0
0000
ENDCHAR

STARTCHAR jisx0208_3633
ENCODING 13875
SWIDTH 960 0
DWIDTH 10 0
BBX 10 10 0 -2
BITMAP
0000
1B00
3F80
1B00
7FC0
3300
6DC0
2B00
6AC0
0000
ENDCHAR

STARTCHAR jisx0208_3634
ENCODING 13876
SWIDTH 960 0
DWIDTH 10 0
BBX 10 10 0 -2
BITMAP
0000
3300
77C0
3300
3AC0
6FC0
3300
3580
6CC0
0000
ENDCHAR

STARTCHAR jisx0208_3635
ENCODING 13877
SWIDTH 960 0
DWIDTH 10 0
BBX 10 10 0 -2
BITMAP
0000
2B00
7B00
3BC0
7EC0
2AC0
5980
3B80
16C0
0000
ENDCHAR

STARTCHAR jisx0208_3636
ENCODING 13878
SWIDTH 960 0
DWIDTH 10 0
BBX 10 10 0 -2
BITMAP
0000
3780
7B00
2FC0
7580
6FC0
2CC0
2AC0
2CC0
0000
ENDCHAR

STARTCHAR jisx0208_3637
ENCODING 13879
SWIDTH 960 0
DWIDTH 10 0
BBX 10 10 0 -2
BITMAP
0000
5F80
1980
1980
5F80
0B00
2B00
2AC0
5BC0
0000
ENDCHAR

STARTCHAR jisx0208_3638
ENCODING 13880
SWIDTH 960 0
DWIDTH 10 0
BBX 10 10 0 -2
BITMAP
0000
2FC0
1B00
3B00
5FC0
3B00
5B00
1B00
2FC0
0000
ENDCHAR

STARTCHAR jisx0208_3639
ENCODING 13881
SWIDTH 960 0
DWIDTH 10 0
BBX 10 10 0 -2
BITMAP
0000
3300
1FC0
3B00
5AC0
3FC0
5B00
1580
2CC0
0000
ENDCHAR

STARTCHAR jisx0208_363A
ENCODING 13882
SWIDTH 960 0
DWIDTH 10 0
BBX 10 10 0 -2
BITMAP
0000
6780
7B00
2FC0
7580
2FC0
2CC0
5AC0
6CC0
0000
ENDCHAR

STARTCHAR jisx0208_363B
ENCODING 13883
SWIDTH 960 0
DWIDTH 10 0
BBX 10 10 0 -2
BITMAP
0000
7600
57C0
7CC0
56C0
75C0
56C0
57C0
5980
0000
ENDCHAR

STARTCHAR jisx0208_363C
ENCODING 13884
SWIDTH 960 0
DWIDTH 10 0
BBX 10 10 0 -2
BITMAP
0000
3F80
0D80
7FC0
2AC0
5F80
1980
1F80
1980
0000
ENDCHAR

STARTCHAR jisx0208_363D
ENCODING 13885
SWIDTH 960 0
DWIDTH 10 0
BBX 10 10 0 -2
BITMAP
0000
1800
2F80
3D80
2F80
3D80
2B80
7FC0
3180
0000
ENDCHAR

STARTCHAR jisx0208_363E
ENCODING 13886
SWIDTH 960 0
DWIDTH 10 0
BBX 10 10 0 -2
BITMAP
0000
1B00
7FC0
1B00
7FC0
1580
7FC0
2AC0
2EC0
0000
ENDCHAR

STARTCHAR jisx0208_363F
ENCODING 13887
SWIDTH 960 0
DWIDTH 10 0
BBX 10 10 0 -2
BITMAP
0000
3FC0
2AC0
5EC0
2B80
6EC0
6AC0
3F80
6300
0000
ENDCHAR

STARTCHAR jisx0208_3640
ENCODING 13888
SWIDTH 960 0
DWIDTH 10 0
BBX 10 10 0 -2
BITMAP
0000
3300
5FC0
7580
2FC0
7580
3780
7580
6DC0
0000
ENDCHAR

STARTCHAR jisx0208_3641
ENCODING 13889
SWIDTH 960 0
DWIDTH 10 0
BBX 10 10 0 -2
BITMAP
0000
2FC0
5AC0
2F80
3AC0
6FC0
3F80
3180
3F80
0000
ENDCHAR

STARTCHAR jisx0208_3642
ENCODING 13890
SWIDTH 960 0
DWIDTH 10 0
BBX 10 10 0 -2
BITMAP
0000
2FC0
5EC0
2BC0
5F80
39C0
5F80
1B80
3EC0
0000
ENDCHAR

STARTCHAR jisx0208_3643
ENCODING 13891
SWIDTH 960 0
DWIDTH 10 0
BBX 10 10 0 -2
BITMAP
0000
2B00
7FC0
2AC0
5F80
16C0
1FC0
00C0
55C0
0000
ENDCHAR

STARTCHAR jisx0208_3644
ENCODING 13892
SWIDTH 960 0
DWIDTH 10 0
BBX 10 10 0 -2
BITMAP
0000
1600
2BC0
6AC0
2AC0
2AC0
2EC0
3AC0
3300
0000
ENDCHAR

STARTCHAR jisx0208_3645
ENCODING 13893
SWIDTH 960 0
DWIDTH 10 0
BBX 10 10 0 -2
BITMAP
0000
1BC0
5EC0
3980
1FC0
1980
3DC0
2B80
55C0
0000
ENDCHAR

STARTCHAR jisx0208_3646
ENCODING 13894
SWIDTH 960 0
DWIDTH 10 0
BBX 10 10 0 -2
BITMAP
0000
0C00
7F80
2B00
7FC0
3300
7F80
1600
77C0
0000
ENDCHAR

STARTCHAR jisx0208_3647
ENCODING 13895
SWIDTH 960 0
DWIDTH 10 0
BBX 10 10 0 -2
BITMAP
0000
0300
7780
5B00
7FC0
5580
5FC0
7580
1DC0
0000
ENDCHAR

STARTCHAR jisx0208_3648
ENCODING 13896
SWIDTH 960 0
DWIDTH 10 0
BBX 10 10 0 -2
BITMAP
0000
2AC0
7FC0
0B00
3FC0
0600
7FC0
1580
76C0
0000
ENDCHAR

STARTCHAR jisx0208_3649
ENCODING 13897
SWIDTH 960 0
DWIDTH 10 0
BBX 10 10 0 -2
BITMAP
0000
3F80
3180
3FC0
30C0
2EC0
2AC0
2EC0
6180
0000
ENDCHAR

STARTCHAR jisx0208_364A
ENCODING 13898
SWIDTH 960 0
DWIDTH 10 0
BBX 10 10 0 -2
BITMAP
0000
1B00
1B00
7FC0
5AC0
7FC0
5AC0
5AC0
7FC0
0000
ENDCHAR

STARTCHAR jisx0208_364B
ENCODING 13899
SWIDTH 960 0
DWIDTH 10 0
BBX 10 10 0 -2
BITMAP
0000
2FC0
7600
37C0
7EC0
6B80
2EC0
3300
2FC0
0000
ENDCHAR

STARTCHAR jisx0208_364C
ENCODING 13900
SWIDTH 960 0
DWIDTH 10 0
BBX 10 10 0 -2
BITMAP
0000
7FC0
0C00
0C00
7F80
0C00
0D80
0C00
7FC0
0000
ENDCHAR

STARTCHAR jisx0208_364D
ENCODING 13901
SWIDTH 960 0
DWIDTH 10 0
BBX 10 10 0 -2
BITMAP
0000
2FC0
7CC0
2EC0
7CC0
6EC0
2AC0
2EC0
2CC0
0000
ENDCHAR

STARTCHAR jisx0208_364E
ENCODING 13902
SWIDTH 960 0
DWIDTH 10 0
BBX 10 10 0 -2
BITMAP
0000
3180
7700
3300
7B00
2FC0
7B00
3300
3300
0000
ENDCHAR

STARTCHAR jisx0208_364F
ENCODING 13903
SWIDTH 960 0
DWIDTH 10 0
BBX 10 10 0 -2
BITMAP
0000
1580
2FC0
7580
2FC0
2AC0
2FC0
3300
2FC0
0000
ENDCHAR

STARTCHAR jisx0208_3650
ENCODING 13904
SWIDTH 960 0
DWIDTH 10 0
BBX 10 10 0 -2
BITMAP
0000
2D80
7D80
2BC0
7DC0
55C0
7EC0
1AC0
7580
0000
ENDCHAR

STARTCHAR jisx0208_3651
ENCODING 13905
SWIDTH 960 0
DWIDTH 10 0
BBX 10 10 0 -2
BITMAP
0000
3600
37C0
7CC0
36C0
31C0
36C0
70C0
0380
0000
ENDCHAR

STARTCHAR jisx0208_3652
ENCODING 13906
SWIDTH 960 0
DWIDTH 10 0
BBX 10 10 0 -2
BITMAP
0000
0C00
7FC0
6CC0
6CC0
6CC0
6CC0
6DC0
0C00
0000
ENDCHAR

STARTCHAR jisx0208_3653
ENCODING 13907
SWIDTH 960 0
DWIDTH 10 0
BBX 10 10 0 -2
BITMAP
0000
3300
57C0
76C0
37C0
7B00
2FC0
7AC0
6AC0
0000
ENDCHAR

STARTCHAR jisx0208_3654
ENCODING 13908
SWIDTH 960 0
DWIDTH 10 0
BBX 10 10 0 -2
BITMAP
0000
0380
3E00
3000
3FC0
3300
3300
3300
6300
0000
ENDCHAR

STARTCHAR jisx0208_3655
ENCODING 13909
SWIDTH 960 0
DWIDTH 10 0
BBX 10 10 0 -2
BITMAP
0000
1600
7600
67C0
7AC0
5B00
5B00
5580
5CC0
0000
ENDCHAR

STARTCHAR jisx0208_3656
ENCODING 13910
SWIDTH 960 0
DWIDTH 10 0
BBX 10 10 0 -2
BITMAP
0000
3600
5600
77C0
2AC0
7B00
3300
7580
6CC0
0000
ENDCHAR

STARTCHAR jisx0208_3657
ENCODING 13911
SWIDTH 960 0
DWIDTH 10 0
BBX 10 10 0 -2
BITMAP
0000
7FC0
1B00
7FC0
0E00
1B00
6FC0
0300
0600
0000
ENDCHAR

STARTCHAR jisx0208_3658
ENCODING 13912
SWIDTH 960 0
DWIDTH 10 0
BBX 10 10 0 -2
BITMAP
0000
1980
7FC0
3B80
5DC0
0000
7FC0
0C00
6D80
0000
ENDCHAR

STARTCHAR jisx0208_3659
ENCODING 13913
SWIDTH 960 0
DWIDTH 10 0
BBX 10 10 0 -2
BITMAP
0000
0E00
1B00
7FC0
1B00
7FC0
6CC0
5EC0
61C0
0000
ENDCHAR

STARTCHAR jisx0208_365A
ENCODING 13914
SWIDTH 960 0
DWIDTH 10 0
BBX 10 10 0 -2
BITMAP
0000
3300
3FC0
5980
3FC0
2AC0
3AC0
2AC0
2D80
0000
ENDCHAR

STARTCHAR jisx0208_365B
ENCODING 13915
SWIDTH 960 0
DWIDTH 10 0
BBX 10 10 0 -2
BITMAP
0000
7BC0
5AC0
7D80
5AC0
7B00
1580
7FC0
36C0
0000
ENDCHAR

STARTCHAR jisx0208_365C
ENCODING 13916
SWIDTH 960 0
DWIDTH 10 0
BBX 10 10 0 -2
BITMAP
0000
1B00
7FC0
1B00
3F80
3000
3FC0
3300
6300
0000
ENDCHAR

STARTCHAR jisx0208_365D
ENCODING 13917
SWIDTH 960 0
DWIDTH 10 0
BBX 10 10 0 -2
BITMAP
0000
1B00
7FC0
1B00
3FC0
36C0
2EC0
36C0
3FC0
0000
ENDCHAR

STARTCHAR jisx0208_365E
ENCODING 13918
SWIDTH 960 0
DWIDTH 10 0
BBX 10 10 0 -2
BITMAP
0000
3300
7580
1AC0
3000
77C0
38C0
3180
3300
0000
ENDCHAR

STARTCHAR jisx0208_365F
ENCODING 13919
SWIDTH 960 0
DWIDTH 10 0
BBX 10 10 0 -2
BITMAP
0000
3580
7FC0
1580
2FC0
7800
3FC0
3300
2AC0
0000
ENDCHAR

STARTCHAR jisx0208_3660
ENCODING 13920
SWIDTH 960 0
DWIDTH 10 0
BBX 10 10 0 -2
BITMAP
0000
3580
7FC0
0580
7FC0
0AC0
7FC0
5B00
7FC0
0000
ENDCHAR

STARTCHAR jisx0208_3661
ENCODING 13921
SWIDTH 960 0
DWIDTH 10 0
BBX 10 10 0 -2
BITMAP
0000
6180
0F00
0C00
0FC0
6D80
3980
3180
5FC0
0000
ENDCHAR

STARTCHAR jisx0208_3662
ENCODING 13922
SWIDTH 960 0
DWIDTH 10 0
BBX 10 10 0 -2
BITMAP
0000
0E00
1B00
3F80
6CC0
3F80
0C00
2B00
7FC0
0000
ENDCHAR

STARTCHAR jisx0208_3663
ENCODING 13923
SWIDTH 960 0
DWIDTH 10 0
BBX 10 10 0 -2
BITMAP
0000
0300
7580
5AC0
5800
5FC0
58C0
7980
0300
0000
ENDCHAR

STARTCHAR jisx0208_3664
ENCODING 13924
SWIDTH 960 0
DWIDTH 10 0
BBX 10 10 0 -2
BITMAP
0000
3780
5580
7780
3580
7780
35C0
7580
6EC0
0000
ENDCHAR

STARTCHAR jisx0208_3665
ENCODING 13925
SWIDTH 960 0
DWIDTH 10 0
BBX 10 10 0 -2
BITMAP
0000
0C00
0C00
7F00
0B00
1B00
1B00
32C0
63C0
0000
ENDCHAR

STARTCHAR jisx0208_3666
ENCODING 13926
SWIDTH 960 0
DWIDTH 10 0
BBX 10 10 0 -2
BITMAP
0000
1F80
2D80
6F80
2D80
2D80
3FC0
2D80
38C0
0000
ENDCHAR

STARTCHAR jisx0208_3667
ENCODING 13927
SWIDTH 960 0
DWIDTH 10 0
BBX 10 10 0 -2
BITMAP
0000
1800
1FC0
30C0
5EC0
16C0
1EC0
00C0
0380
0000
ENDCHAR

STARTCHAR jisx0208_3668
ENCODING 13928
SWIDTH 960 0
DWIDTH 10 0
BBX 10 10 0 -2
BITMAP
0000
7FC0
6000
6D80
6700
6700
5D80
6000
7FC0
0000
ENDCHAR

STARTCHAR jisx0208_3669
ENCODING 13929
SWIDTH 960 0
DWIDTH 10 0
BBX 10 10 0 -2
BITMAP
0000
2C00
1FC0
38C0
5EC0
3AC0
5EC0
18C0
3980
0000
ENDCHAR

STARTCHAR jisx0208_366A
ENCODING 13930
SWIDTH 960 0
DWIDTH 10 0
BBX 10 10 0 -2
BITMAP
0000
7600
3780
2D80
7980
3300
3B00
7580
0CC0
0000
ENDCHAR

STARTCHAR jisx0208_366B
ENCODING 13931
SWIDTH 960 0
DWIDTH 10 0
BBX 10 10 0 -2
BITMAP
0000
37C0
3E00
57C0
16C0
7FC0
1600
2E00
67C0
0000
ENDCHAR

STARTCHAR jisx0208_366C
ENCODING 13932
SWIDTH 960 0
DWIDTH 10 0
BBX 10 10 0 -2
BITMAP
0000
1B00
7FC0
1B00
7FC0
0C00
3F80
3180
3F80
0000
ENDCHAR

STARTCHAR jisx0208_366D
ENCODING 13933
SWIDTH 960 0
DWIDTH 10 0
BBX 10 10 0 -2
BITMAP
0000
37C0
7600
56C0
7580
5580
7EC0
3600
57C0
0000
ENDCHAR

STARTCHAR jisx0208_366E
ENCODING 13934
SWIDTH 960 0
DWIDTH 10 0
BBX 10 10 0 -2
BITMAP
0000
7FC0
5600
7EC0
5580
7D80
0EC0
6E00
17C0
0000
ENDCHAR

STARTCHAR jisx0208_366F
ENCODING 13935
SWIDTH 960 0
DWIDTH 10 0
BBX 10 10 0 -2
BITMAP
0000
7DC0
5700
7E00
57C0
7D80
0D80
6D80
17C0
0000
ENDCHAR

STARTCHAR jisx0208_3670
ENCODING 13936
SWIDTH 960 0
DWIDTH 10 0
BBX 10 10 0 -2
BITMAP
0000
7E00
57C0
7CC0
5EC0
7AC0
0EC0
6CC0
1B80
0000
ENDCHAR

STARTCHAR jisx0208_3671
ENCODING 13937
SWIDTH 960 0
DWIDTH 10 0
BBX 10 10 0 -2
BITMAP
0000
1F80
1980
1F80
1980
1980
7FC0
1980
30C0
0000
ENDCHAR

STARTCHAR jisx0208_3672
ENCODING 13938
SWIDTH 960 0
DWIDTH 10 0
BBX 10 10 0 -2
BITMAP
0000
3F00
2B00
7F80
6D80
5D80
0000
56C0
5EC0
0000
ENDCHAR

STARTCHAR jisx0208_3673
ENCODING 13939
SWIDTH 960 0
DWIDTH 10 0
BBX 10 10 0 -2
BITMAP
0000
0780
3FC0
36C0
3F80
2F00
2B80
3FC0
6D80
0000
ENDCHAR

STARTCHAR jisx0208_3674
ENCODING 13940
SWIDTH 960 0
DWIDTH 10 0
BBX 10 10 0 -2
BITMAP
0000
0300
7580
5AC0
5780
5580
77C0
0580
0EC0
0000
ENDCHAR

STARTCHAR jisx0208_3675
ENCODING 13941
SWIDTH 960 0
DWIDTH 10 0
BBX 10 10 0 -2
BITMAP
0000
0C00
7FC0
56C0
37C0
6000
3F80
0C00
7FC0
0000
ENDCHAR

STARTCHAR jisx0208_3676
ENCODING 13942
SWIDTH 960 0
DWIDTH 10 0
BBX 10 10 0 -2
BITMAP
0000
1F80
3580
7F80
3580
3FC0
36C0
2EC0
30C0
0000
ENDCHAR

STARTCHAR jisx0208_3677
ENCODING 13943
SWIDTH 960 0
DWIDTH 10 0
BBX 10 10 0 -2
BITMAP
0000
0C00
7FC0
6AC0
3F00
2B00
7FC0
6CC0
5EC0
0000
ENDCHAR

STARTCHAR jisx0208_3678
ENCODING 13944
SWIDTH 960 0
DWIDTH 10 0
BBX 10 10 0 -2
BITMAP
0000
6FC0
0AC0
0FC0
0300
6FC0
2AC0
2CC0
5FC0
0000
ENDCHAR

STARTCHAR jisx0208_3679
ENCODING 13945
SWIDTH 960 0
DWIDTH 10 0
BBX 10 10 0 -2
BITMAP
0000
7FC0
5AC0
5FC0
7300
5FC0
5AC0
6EC0
6CC0
0000
ENDCHAR

STARTCHAR jisx0208_367A
ENCODING 13946
SWIDTH 960 0
DWIDTH 10 0
BBX 10 10 0 -2
BITMAP
0000
0600
3F80
3580
3F80
7FC0
66C0
7FC0
0600
0000
ENDCHAR

STARTCHAR jisx0208_367B
ENCODING 13947
SWIDTH 960 0
DWIDTH 10 0
BBX 10 10 0 -2
BITMAP
0000
3580
7FC0
2B00
7FC0
6AC0
2EC0
3AC0
3300
0000
ENDCHAR

STARTCHAR jisx0208_367C
ENCODING 13948
SWIDTH 960 0
DWIDTH 10 0
BBX 10 10 0 -2
BITMAP
0000
36C0
56C0
76C0
36C0
76C0
36C0
76C0
6CC0
0000
ENDCHAR

STARTCHAR jisx0208_367D
ENCODING 13949
SWIDTH 960 0
DWIDTH 10 0
BBX 10 10 0 -2
BITMAP
0000
3FC0
30C0
3FC0
2AC0
2FC0
2CC0
2FC0
6CC0
0000
ENDCHAR

STARTCHAR jisx0208_367E
ENCODING 13950
SWIDTH 960 0
DWIDTH 10 0
BBX 10 10 0 -2
BITMAP
0000
3FC0
30C0
3FC0
3300
2AC0
2FC0
3AC0
5FC0
0000
ENDCHAR

STARTCHAR jisx0208_3721
ENCODING 14113
SWIDTH 960 0
DWIDTH 10 0
BBX 10 10 0 -2
BITMAP
0000
2FC0
7CC0
2FC0
3AC0
6FC0
2B00
3AC0
6FC0
0000
ENDCHAR

STARTCHAR jisx0208_3722
ENCODING 14114
SWIDTH 960 0
DWIDTH 10 0
BBX 10 10 0 -2
BITMAP
0000
0C00
7FC0
5AC0
3FC0
3180
3F80
36C0
5FC0
0000
ENDCHAR

STARTCHAR jisx0208_3723
ENCODING 14115
SWIDTH 960 0
DWIDTH 10 0
BBX 10 10 0 -2
BITMAP
0000
0C00
7EC0
1B80
2D80
6CC0
3F80
3180
3F80
0000
ENDCHAR

STARTCHAR jisx0208_3724
ENCODING 14116
SWIDTH 960 0
DWIDTH 10 0
BBX 10 10 0 -2
BITMAP
0000
5580
7580
3580
7DC0
7580
3580
7580
35C0
0000
ENDCHAR

STARTCHAR jisx0208_3725
ENCODING 14117
SWIDTH 960 0
DWIDTH 10 0
BBX 10 10 0 -2
BITMAP
0000
2D80
5EC0
3580
7FC0
2D80
3F80
3180
3F80
0000
ENDCHAR

STARTCHAR jisx0208_3726
ENCODING 14118
SWIDTH 960 0
DWIDTH 10 0
BBX 10 10 0 -2
BITMAP
0000
0C00
7FC0
5AC0
2FC0
6300
0FC0
6300
5FC0
0000
ENDCHAR

STARTCHAR jisx0208_3727
ENCODING 14119
SWIDTH 960 0
DWIDTH 10 0
BBX 10 10 0 -2
BITMAP
0000
1B00
2BC0
7B00
2BC0
3B00
2BC0
0000
6AC0
0000
ENDCHAR

STARTCHAR jisx0208_3728
ENCODING 14120
SWIDTH 960 0
DWIDTH 10 0
BBX 10 10 0 -2
BITMAP
0000
7FC0
5AC0
5FC0
6AC0
5FC0
5AC0
6D80
5EC0
0000
ENDCHAR

STARTCHAR jisx0208_3729
ENCODING 14121
SWIDTH 960 0
DWIDTH 10 0
BBX 10 10 0 -2
BITMAP
0000
1F00
7300
0E00
7BC0
0D80
2B00
7FC0
2B00
0000
ENDCHAR

STARTCHAR jisx0208_372A
ENCODING 14122
SWIDTH 960 0
DWIDTH 10 0
BBX 10 10 0 -2
BITMAP
0000
7FC0
3F80
2D80
3F80
0C00
7FC0
2B00
6DC0
0000
ENDCHAR

STARTCHAR jisx0208_372B
ENCODING 14123
SWIDTH 960 0
DWIDTH 10 0
BBX 10 10 0 -2
BITMAP
0000
3780
5580
2FC0
7AC0
2FC0
7780
7AC0
3300
0000
ENDCHAR

STARTCHAR jisx0208_372C
ENCODING 14124
SWIDTH 960 0
DWIDTH 10 0
BBX 10 10 0 -2
BITMAP
0000
3F00
1600
7FC0
2AC0
1D80
7FC0
2B00
6D80
0000
ENDCHAR

STARTCHAR jisx0208_372D
ENCODING 14125
SWIDTH 960 0
DWIDTH 10 0
BBX 10 10 0 -2
BITMAP
0000
3380
5D80
75C0
2F80
7580
2D80
76C0
76C0
0000
ENDCHAR

STARTCHAR jisx0208_372E
ENCODING 14126
SWIDTH 960 0
DWIDTH 10 0
BBX 10 10 0 -2
BITMAP
0000
3B00
17C0
7AC0
56C0
7EC0
1D80
7800
6AC0
0000
ENDCHAR

STARTCHAR jisx0208_372F
ENCODING 14127
SWIDTH 960 0
DWIDTH 10 0
BBX 10 10 0 -2
BITMAP
0000
3F80
0D80
7FC0
3F80
1800
3F80
5980
1F80
0000
ENDCHAR

STARTCHAR jisx0208_3730
ENCODING 14128
SWIDTH 960 0
DWIDTH 10 0
BBX 10 10 0 -2
BITMAP
0000
1600
7FC0
0C00
7FC0
3F80
2D80
7FC0
6AC0
0000
ENDCHAR

STARTCHAR jisx0208_3731
ENCODING 14129
SWIDTH 960 0
DWIDTH 10 0
BBX 10 10 0 -2
BITMAP
0000
36C0
76C0
06C0
76C0
06C0
76C0
56C0
7CC0
0000
ENDCHAR

STARTCHAR jisx0208_3732
ENCODING 14130
SWIDTH 960 0
DWIDTH 10 0
BBX 10 10 0 -2
BITMAP
0000
7AC0
2FC0
7D80
7BC0
3180
7BC0
2D80
3D80
0000
ENDCHAR

STARTCHAR jisx0208_3733
ENCODING 14131
SWIDTH 960 0
DWIDTH 10 0
BBX 10 10 0 -2
BITMAP
0000
7FC0
6CC0
7F80
2B00
3F00
2B00
7FC0
0C00
0000
ENDCHAR

STARTCHAR jisx0208_3734
ENCODING 14132
SWIDTH 960 0
DWIDTH 10 0
BBX 10 10 0 -2
BITMAP
0000
7BC0
2AC0
7EC0
7B80
32C0
7AC0
2B80
3B00
0000
ENDCHAR

STARTCHAR jisx0208_3735
ENCODING 14133
SWIDTH 960 0
DWIDTH 10 0
BBX 10 10 0 -2
BITMAP
0000
1B00
7B00
1B00
7F80
1AC0
7B00
1B00
7B00
0000
ENDCHAR

STARTCHAR jisx0208_3736
ENCODING 14134
SWIDTH 960 0
DWIDTH 10 0
BBX 10 10 0 -2
BITMAP
0000
3000
7BC0
2AC0
5BC0
0C00
7FC0
3B00
5DC0
0000
ENDCHAR

STARTCHAR jisx0208_3737
ENCODING 14135
SWIDTH 960 0
DWIDTH 10 0
BBX 10 10 0 -2
BITMAP
0000
1BC0
7AC0
0AC0
1B80
3AC0
5AC0
1B80
1B00
0000
ENDCHAR

STARTCHAR jisx0208_3738
ENCODING 14136
SWIDTH 960 0
DWIDTH 10 0
BBX 10 10 0 -2
BITMAP
0000
19C0
2F00
7580
3300
2FC0
3300
2AC0
2AC0
0000
ENDCHAR

STARTCHAR jisx0208_3739
ENCODING 14137
SWIDTH 960 0
DWIDTH 10 0
BBX 10 10 0 -2
BITMAP
0000
1BC0
2D80
6BC0
2EC0
2BC0
2AC0
2FC0
36C0
0000
ENDCHAR

STARTCHAR jisx0208_373A
ENCODING 14138
SWIDTH 960 0
DWIDTH 10 0
BBX 10 10 0 -2
BITMAP
0000
7EC0
2AC0
2AC0
7EC0
2AC0
2AC0
2CC0
6DC0
0000
ENDCHAR

STARTCHAR jisx0208_373B
ENCODING 14139
SWIDTH 960 0
DWIDTH 10 0
BBX 10 10 0 -2
BITMAP
0000
3F80
3180
3180
3F80
1600
1600
16C0
77C0
0000
ENDCHAR

STARTCHAR jisx0208_373C
ENCODING 14140
SWIDTH 960 0
DWIDTH 10 0
BBX 10 10 0 -2
BITMAP
0000
7B00
7BC0
6EC0
7D80
62C0
3F80
3180
3F80
0000
ENDCHAR

STARTCHAR jisx0208_373D
ENCODING 14141
SWIDTH 960 0
DWIDTH 10 0
BBX 10 10 0 -2
BITMAP
0000
0C00
3F80
0C00
7FC0
0C00
3F80
0C00
7FC0
0000
ENDCHAR

STARTCHAR jisx0208_373E
ENCODING 14142
SWIDTH 960 0
DWIDTH 10 0
BBX 10 10 0 -2
BITMAP
0000
7B00
2FC0
3300
7FC0
3300
3FC0
7300
0FC0
0000
ENDCHAR

STARTCHAR jisx0208_373F
ENCODING 14143
SWIDTH 960 0
DWIDTH 10 0
BBX 10 10 0 -2
BITMAP
0000
7EC0
2AC0
7EC0
2AC0
6EC0
3F80
0600
7FC0
0000
ENDCHAR

STARTCHAR jisx0208_3740
ENCODING 14144
SWIDTH 960 0
DWIDTH 10 0
BBX 10 10 0 -2
BITMAP
0000
3000
7FC0
32C0
76C0
2D80
7FC0
1B00
71C0
0000
ENDCHAR

STARTCHAR jisx0208_3741
ENCODING 14145
SWIDTH 960 0
DWIDTH 10 0
BBX 10 10 0 -2
BITMAP
0000
7EC0
2B80
2C00
7EC0
2B80
2C00
2CC0
6B80
0000
ENDCHAR

STARTCHAR jisx0208_3742
ENCODING 14146
SWIDTH 960 0
DWIDTH 10 0
BBX 10 10 0 -2
BITMAP
0000
2FC0
56C0
3380
6EC0
3300
2FC0
3300
2FC0
0000
ENDCHAR

STARTCHAR jisx0208_3743
ENCODING 14147
SWIDTH 960 0
DWIDTH 10 0
BBX 10 10 0 -2
BITMAP
0000
0C00
7FC0
2D80
2D80
3F80
1600
58C0
5EC0
0000
ENDCHAR

STARTCHAR jisx0208_3744
ENCODING 14148
SWIDTH 960 0
DWIDTH 10 0
BBX 10 10 0 -2
BITMAP
0000
0600
3FC0
2AC0
3FC0
3780
2D80
3B00
6DC0
0000
ENDCHAR

STARTCHAR jisx0208_3745
ENCODING 14149
SWIDTH 960 0
DWIDTH 10 0
BBX 10 10 0 -2
BITMAP
0000
1B00
7FC0
1B00
7FC0
0180
3F80
56C0
5EC0
0000
ENDCHAR

STARTCHAR jisx0208_3746
ENCODING 14150
SWIDTH 960 0
DWIDTH 10 0
BBX 10 10 0 -2
BITMAP
0000
7B00
37C0
7EC0
57C0
76C0
07C0
5580
5EC0
0000
ENDCHAR

STARTCHAR jisx0208_3747
ENCODING 14151
SWIDTH 960 0
DWIDTH 10 0
BBX 10 10 0 -2
BITMAP
0000
2F80
7D80
2F80
3D80
6FC0
3AC0
2EC0
6F80
0000
ENDCHAR

STARTCHAR jisx0208_3748
ENCODING 14152
SWIDTH 960 0
DWIDTH 10 0
BBX 10 10 0 -2
BITMAP
0000
3580
7FC0
2B00
3FC0
6F80
35C0
36C0
6DC0
0000
ENDCHAR

STARTCHAR jisx0208_3749
ENCODING 14153
SWIDTH 960 0
DWIDTH 10 0
BBX 10 10 0 -2
BITMAP
0000
2B00
7F00
2BC0
7EC0
76C0
5580
7580
0AC0
0000
ENDCHAR

STARTCHAR jisx0208_374A
ENCODING 14154
SWIDTH 960 0
DWIDTH 10 0
BBX 10 10 0 -2
BITMAP
0000
3F80
3F80
3180
7FC0
3180
3F80
0C00
6CC0
0000
ENDCHAR

STARTCHAR jisx0208_374B
ENCODING 14155
SWIDTH 960 0
DWIDTH 10 0
BBX 10 10 0 -2
BITMAP
0000
3300
7FC0
3300
7FC0
7300
2FC0
3300
2FC0
0000
ENDCHAR

STARTCHAR jisx0208_374C
ENCODING 14156
SWIDTH 960 0
DWIDTH 10 0
BBX 10 10 0 -2
BITMAP
0000
6380
1EC0
5580
0F80
0600
1FC0
6700
5DC0
0000
ENDCHAR

STARTCHAR jisx0208_374D
ENCODING 14157
SWIDTH 960 0
DWIDTH 10 0
BBX 10 10 0 -2
BITMAP
0000
7B00
6FC0
6B00
7FC0
6B00
6FC0
7B00
0FC0
0000
ENDCHAR

STARTCHAR jisx0208_374E
ENCODING 14158
SWIDTH 960 0
DWIDTH 10 0
BBX 10 10 0 -2
BITMAP
0000
1AC0
6FC0
3380
7DC0
2C00
7FC0
2D80
2F80
0000
ENDCHAR

STARTCHAR jisx0208_374F
ENCODING 14159
SWIDTH 960 0
DWIDTH 10 0
BBX 10 10 0 -2
BITMAP
0000
0780
7B00
1600
0D80
7FC0
0C00
2D80
6CC0
0000
ENDCHAR

STARTCHAR jisx0208_3750
ENCODING 14160
SWIDTH 960 0
DWIDTH 10 0
BBX 10 10 0 -2
BITMAP
0000
2FC0
56C0
3380
76C0
3300
77C0
7B00
2FC0
0000
ENDCHAR

STARTCHAR jisx0208_3751
ENCODING 14161
SWIDTH 960 0
DWIDTH 10 0
BBX 10 10 0 -2
BITMAP
0000
3580
57C0
3580
77C0
3580
76C0
7600
37C0
0000
ENDCHAR

STARTCHAR jisx0208_3752
ENCODING 14162
SWIDTH 960 0
DWIDTH 10 0
BBX 10 10 0 -2
BITMAP
0000
1780
7D80
2FC0
7B80
16C0
2D80
7FC0
2B00
0000
ENDCHAR

STARTCHAR jisx0208_3753
ENCODING 14163
SWIDTH 960 0
DWIDTH 10 0
BBX 10 10 0 -2
BITMAP
0000
7FC0
5AC0
7FC0
1980
7D80
3DC0
1980
7D80
0000
ENDCHAR

STARTCHAR jisx0208_3754
ENCODING 14164
SWIDTH 960 0
DWIDTH 10 0
BBX 10 10 0 -2
BITMAP
0000
1600
7FC0
1600
3F80
1B00
6DC0
0C00
7F80
0000
ENDCHAR

STARTCHAR jisx0208_3755
ENCODING 14165
SWIDTH 960 0
DWIDTH 10 0
BBX 10 10 0 -2
BITMAP
0000
1B00
7FC0
1B00
7EC0
2AC0
7EC0
2AC0
6CC0
0000
ENDCHAR

STARTCHAR jisx0208_3756
ENCODING 14166
SWIDTH 960 0
DWIDTH 10 0
BBX 10 10 0 -2
BITMAP
0000
2D80
7FC0
6CC0
3F80
2D80
3F80
0D80
7EC0
0000
ENDCHAR

STARTCHAR jisx0208_3757
ENCODING 14167
SWIDTH 960 0
DWIDTH 10 0
BBX 10 10 0 -2
BITMAP
0000
3300
7B00
0FC0
7B00
0300
7B00
5B00
7B00
0000
ENDCHAR

STARTCHAR jisx0208_3758
ENCODING 14168
SWIDTH 960 0
DWIDTH 10 0
BBX 10 10 0 -2
BITMAP
0000
36C0
7780
0600
77C0
06C0
77C0
56C0
77C0
0000
ENDCHAR

STARTCHAR jisx0208_3759
ENCODING 14169
SWIDTH 960 0
DWIDTH 10 0
BBX 10 10 0 -2
BITMAP
0000
2B00
7FC0
2AC0
6D80
1EC0
7FC0
3180
3F80
0000
ENDCHAR

STARTCHAR jisx0208_375A
ENCODING 14170
SWIDTH 960 0
DWIDTH 10 0
BBX 10 10 0 -2
BITMAP
0000
37C0
7AC0
3180
76C0
7980
37C0
7980
37C0
0000
ENDCHAR

STARTCHAR jisx0208_375B
ENCODING 14171
SWIDTH 960 0
DWIDTH 10 0
BBX 10 10 0 -2
BITMAP
0000
7BC0
2D80
3BC0
6AC0
33C0
7AC0
33C0
76C0
0000
ENDCHAR

STARTCHAR jisx0208_375C
ENCODING 14172
SWIDTH 960 0
DWIDTH 10 0
BBX 10 10 0 -2
BITMAP
0000
0D80
7BC0
7AC0
1BC0
7B00
1BC0
2CC0
65C0
0000
ENDCHAR

STARTCHAR jisx0208_375D
ENCODING 14173
SWIDTH 960 0
DWIDTH 10 0
BBX 10 10 0 -2
BITMAP
0000
1B00
7FC0
1B00
3F80
0000
7FC0
1B00
3D80
0000
ENDCHAR

STARTCHAR jisx0208_375E
ENCODING 14174
SWIDTH 960 0
DWIDTH 10 0
BBX 10 10 0 -2
BITMAP
0000
6600
0BC0
0AC0
0AC0
6EC0
2B00
3300
5FC0
0000
ENDCHAR

STARTCHAR jisx0208_375F
ENCODING 14175
SWIDTH 960 0
DWIDTH 10 0
BBX 10 10 0 -2
BITMAP
0000
3300
77C0
7800
57C0
56C0
77C0
0300
56C0
0000
ENDCHAR

STARTCHAR jisx0208_3760
ENCODING 14176
SWIDTH 960 0
DWIDTH 10 0
BBX 10 10 0 -2
BITMAP
0000
1CC0
7EC0
5AC0
7AC0
56C0
5AC0
6CC0
55C0
0000
ENDCHAR

STARTCHAR jisx0208_3761
ENCODING 14177
SWIDTH 960 0
DWIDTH 10 0
BBX 10 10 0 -2
BITMAP
0000
32C0
7B00
2FC0
5B00
7AC0
3180
7B80
36C0
0000
ENDCHAR

STARTCHAR jisx0208_3762
ENCODING 14178
SWIDTH 960 0
DWIDTH 10 0
BBX 10 10 0 -2
BITMAP
0000
1780
7D80
2FC0
7B00
1580
1EC0
7FC0
0600
0000
ENDCHAR

STARTCHAR jisx0208_3763
ENCODING 14179
SWIDTH 960 0
DWIDTH 10 0
BBX 10 10 0 -2
BITMAP
0000
6D80
1D80
57C0
1EC0
0AC0
1D80
56C0
6AC0
0000
ENDCHAR

STARTCHAR jisx0208_3764
ENCODING 14180
SWIDTH 960 0
DWIDTH 10 0
BBX 10 10 0 -2
BITMAP
0000
7AC0
5B00
5FC0
6CC0
5FC0
5B00
6AC0
6AC0
0000
ENDCHAR

STARTCHAR jisx0208_3765
ENCODING 14181
SWIDTH 960 0
DWIDTH 10 0
BBX 10 10 0 -2
BITMAP
0000
35C0
7B00
35C0
7EC0
76C0
36C0
36C0
36C0
0000
ENDCHAR

STARTCHAR jisx0208_3766
ENCODING 14182
SWIDTH 960 0
DWIDTH 10 0
BBX 10 10 0 -2
BITMAP
0000
1D80
2FC0
7580
2BC0
3980
2FC0
3780
2AC0
0000
ENDCHAR

STARTCHAR jisx0208_3767
ENCODING 14183
SWIDTH 960 0
DWIDTH 10 0
BBX 10 10 0 -2
BITMAP
0000
3000
3F80
2D80
6C00
0C00
1600
3300
61C0
0000
ENDCHAR

STARTCHAR jisx0208_3768
ENCODING 14184
SWIDTH 960 0
DWIDTH 10 0
BBX 10 10 0 -2
BITMAP
0000
6600
0F80
6580
0580
1FC0
3600
2B00
59C0
0000
ENDCHAR

STARTCHAR jisx0208_3769
ENCODING 14185
SWIDTH 960 0
DWIDTH 10 0
BBX 10 10 0 -2
BITMAP
0000
5800
3FC0
5AC0
3AC0
1580
0B00
5FC0
5580
0000
ENDCHAR

STARTCHAR jisx0208_376A
ENCODING 14186
SWIDTH 960 0
DWIDTH 10 0
BBX 10 10 0 -2
BITMAP
0000
0C00
7FC0
60C0
1F00
0300
1B00
3180
60C0
0000
ENDCHAR

STARTCHAR jisx0208_376B
ENCODING 14187
SWIDTH 960 0
DWIDTH 10 0
BBX 10 10 0 -2
BITMAP
0000
3180
57C0
3180
77C0
3000
77C0
76C0
37C0
0000
ENDCHAR

STARTCHAR jisx0208_376C
ENCODING 14188
SWIDTH 960 0
DWIDTH 10 0
BBX 10 10 0 -2
BITMAP
0000
0600
0C00
3F80
2D80
2D80
2D80
2D80
7FC0
0000
ENDCHAR

STARTCHAR jisx0208_376D
ENCODING 14189
SWIDTH 960 0
DWIDTH 10 0
BBX 10 10 0 -2
BITMAP
0000
3300
77C0
02C0
7AC0
0FC0
7B00
5580
7CC0
0000
ENDCHAR

STARTCHAR jisx0208_376E
ENCODING 14190
SWIDTH 960 0
DWIDTH 10 0
BBX 10 10 0 -2
BITMAP
0000
3F80
3180
3F80
3180
3F80
3180
3180
6380
0000
ENDCHAR

STARTCHAR jisx0208_376F
ENCODING 14191
SWIDTH 960 0
DWIDTH 10 0
BBX 10 10 0 -2
BITMAP
0000
1B00
2B00
6FC0
3B00
3300
2FC0
3300
3300
0000
ENDCHAR

STARTCHAR jisx0208_3770
ENCODING 14192
SWIDTH 960 0
DWIDTH 10 0
BBX 10 10 0 -2
BITMAP
0000
1B00
3580
6AC0
3FC0
2AC0
2FC0
3580
2CC0
0000
ENDCHAR

STARTCHAR jisx0208_3771
ENCODING 14193
SWIDTH 960 0
DWIDTH 10 0
BBX 10 10 0 -2
BITMAP
0000
1AC0
3FC0
7580
3FC0
2D80
3780
36C0
37C0
0000
ENDCHAR

STARTCHAR jisx0208_3772
ENCODING 14194
SWIDTH 960 0
DWIDTH 10 0
BBX 10 10 0 -2
BITMAP
0000
1B00
37C0
7AC0
2FC0
3B00
2FC0
2B00
37C0
0000
ENDCHAR

STARTCHAR jisx0208_3773
ENCODING 14195
SWIDTH 960 0
DWIDTH 10 0
BBX 10 10 0 -2
BITMAP
0000
1B00
7FC0
1580
7FC0
1580
3F80
3580
56C0
0000
ENDCHAR

STARTCHAR jisx0208_3774
ENCODING 14196
SWIDTH 960 0
DWIDTH 10 0
BBX 10 10 0 -2
BITMAP
0000
2B00
7F80
1600
7FC0
3300
7F80
1AC0
3600
0000
ENDCHAR

STARTCHAR jisx0208_3775
ENCODING 14197
SWIDTH 960 0
DWIDTH 10 0
BBX 10 10 0 -2
BITMAP
0000
18C0
2AC0
56C0
7EC0
56C0
7EC0
2CC0
65C0
0000
ENDCHAR

STARTCHAR jisx0208_3776
ENCODING 14198
SWIDTH 960 0
DWIDTH 10 0
BBX 10 10 0 -2
BITMAP
0000
0300
7FC0
5CC0
5780
5580
5780
7580
0FC0
0000
ENDCHAR

STARTCHAR jisx0208_3777
ENCODING 14199
SWIDTH 960 0
DWIDTH 10 0
BBX 10 10 0 -2
BITMAP
0000
7FC0
6AC0
7FC0
5EC0
75C0
5EC0
5AC0
7FC0
0000
ENDCHAR

STARTCHAR jisx0208_3778
ENCODING 14200
SWIDTH 960 0
DWIDTH 10 0
BBX 10 10 0 -2
BITMAP
0000
7FC0
5AC0
7AC0
5980
76C0
3F80
0600
7FC0
0000
ENDCHAR

STARTCHAR jisx0208_3779
ENCODING 14201
SWIDTH 960 0
DWIDTH 10 0
BBX 10 10 0 -2
BITMAP
0000
3580
2FC0
7580
3FC0
5580
6FC0
2DC0
5580
0000
ENDCHAR

STARTCHAR jisx0208_377A
ENCODING 14202
SWIDTH 960 0
DWIDTH 10 0
BBX 10 10 0 -2
BITMAP
0000
7B00
17C0
32C0
7FC0
1B00
6FC0
3300
5FC0
0000
ENDCHAR

STARTCHAR jisx0208_377B
ENCODING 14203
SWIDTH 960 0
DWIDTH 10 0
BBX 10 10 0 -2
BITMAP
0000
0C00
7FC0
5EC0
2D80
3F80
0600
58C0
5EC0
0000
ENDCHAR

STARTCHAR jisx0208_377C
ENCODING 14204
SWIDTH 960 0
DWIDTH 10 0
BBX 10 10 0 -2
BITMAP
0000
3BC0
6D80
6AC0
7FC0
5580
0BC0
5980
5EC0
0000
ENDCHAR

STARTCHAR jisx0208_377D
ENCODING 14205
SWIDTH 960 0
DWIDTH 10 0
BBX 10 10 0 -2
BITMAP
0000
2B00
7FC0
1B00
7FC0
3580
5EC0
3F80
0600
0000
ENDCHAR

STARTCHAR jisx0208_377E
ENCODING 14206
SWIDTH 960 0
DWIDTH 10 0
BBX 10 10 0 -2
BITMAP
0000
2AC0
7FC0
3580
3FC0
6B80
3EC0
2D80
6F80
0000
ENDCHAR

STARTCHAR jisx0208_3821
ENCODING 14369
SWIDTH 960 0
DWIDTH 10 0
BBX 10 10 0 -2
BITMAP
0000
3300
7580
2AC0
7FC0
6AC0
2FC0
3580
2CC0
0000
ENDCHAR

STARTCHAR jisx0208_3822
ENCODING 14370
SWIDTH 960 0
DWIDTH 10 0
BBX 10 10 0 -2
BITMAP
0000
3600
77C0
2B00
77C0
6D80
37C0
3580
37C0
0000
ENDCHAR

STARTCHAR jisx0208_3823
ENCODING 14371
SWIDTH 960 0
DWIDTH 10 0
BBX 10 10 0 -2
BITMAP
0000
0600
7FC0
2B00
7FC0
5EC0
3600
7FC0
0600
0000
ENDCHAR

STARTCHAR jisx0208_3824
ENCODING 14372
SWIDTH 960 0
DWIDTH 10 0
BBX 10 10 0 -2
BITMAP
0000
0D80
0C00
7FC0
0C00
1600
1600
3300
61C0
0000
ENDCHAR

STARTCHAR jisx0208_3825
ENCODING 14373
SWIDTH 960 0
DWIDTH 10 0
BBX 10 10 0 -2
BITMAP
0000
1980
7DC0
1980
7FC0
6D80
5580
7EC0
56C0
0000
ENDCHAR

STARTCHAR jisx0208_3826
ENCODING 14374
SWIDTH 960 0
DWIDTH 10 0
BBX 10 10 0 -2
BITMAP
0000
7FC0
32C0
32C0
3AC0
6FC0
2AC0
2AC0
3EC0
0000
ENDCHAR

STARTCHAR jisx0208_3827
ENCODING 14375
SWIDTH 960 0
DWIDTH 10 0
BBX 10 10 0 -2
BITMAP
0000
7BC0
32C0
33C0
3AC0
6AC0
2BC0
2B80
3DC0
0000
ENDCHAR

STARTCHAR jisx0208_3828
ENCODING 14376
SWIDTH 960 0
DWIDTH 10 0
BBX 10 10 0 -2
BITMAP
0000
37C0
56C0
37C0
7800
37C0
76C0
77C0
36C0
0000
ENDCHAR

STARTCHAR jisx0208_3829
ENCODING 14377
SWIDTH 960 0
DWIDTH 10 0
BBX 10 10 0 -2
BITMAP
0000
1F80
5980
5F80
5980
7FC0
0600
3580
66C0
0000
ENDCHAR

STARTCHAR jisx0208_382A
ENCODING 14378
SWIDTH 960 0
DWIDTH 10 0
BBX 10 10 0 -2
BITMAP
0000
3FC0
30C0
3FC0
2CC0
2FC0
2CC0
2FC0
6CC0
0000
ENDCHAR

STARTCHAR jisx0208_382B
ENCODING 14379
SWIDTH 960 0
DWIDTH 10 0
BBX 10 10 0 -2
BITMAP
0000
3F80
3180
3F80
3180
3F80
1600
36C0
67C0
0000
ENDCHAR

STARTCHAR jisx0208_382C
ENCODING 14380
SWIDTH 960 0
DWIDTH 10 0
BBX 10 10 0 -2
BITMAP
0000
3580
7FC0
0580
7FC0
0FC0
7580
5DC0
7580
0000
ENDCHAR

STARTCHAR jisx0208_382D
ENCODING 14381
SWIDTH 960 0
DWIDTH 10 0
BBX 10 10 0 -2
BITMAP
0000
7FC0
5AC0
5D80
7FC0
1980
1980
1F80
71C0
0000
ENDCHAR

STARTCHAR jisx0208_382E
ENCODING 14382
SWIDTH 960 0
DWIDTH 10 0
BBX 10 10 0 -2
BITMAP
0000
3000
7FC0
3300
7B00
7FC0
3300
7B00
3300
0000
ENDCHAR

STARTCHAR jisx0208_382F
ENCODING 14383
SWIDTH 960 0
DWIDTH 10 0
BBX 10 10 0 -2
BITMAP
0000
6600
1F80
1580
1FC0
6B00
2F80
2D80
5FC0
0000
ENDCHAR

STARTCHAR jisx0208_3830
ENCODING 14384
SWIDTH 960 0
DWIDTH 10 0
BBX 10 10 0 -2
BITMAP
0000
2B00
57C0
7AC0
2FC0
7B00
37C0
7B00
77C0
0000
ENDCHAR

STARTCHAR jisx0208_3831
ENCODING 14385
SWIDTH 960 0
DWIDTH 10 0
BBX 10 10 0 -2
BITMAP
0000
7B00
5580
5AC0
6FC0
5AC0
5FC0
7580
6CC0
0000
ENDCHAR

ENDFONT
